<?xml version="1.0" encoding="UTF-8" standalone="no"?>
<svg xmlns:dc="http://purl.org/dc/elements/1.1/" xmlns:cc="http://creativecommons.org/ns#" xmlns:rdf="http://www.w3.org/1999/02/22-rdf-syntax-ns#" xmlns:svg="http://www.w3.org/2000/svg" xmlns="http://www.w3.org/2000/svg"  version="1.1" viewBox="0 0 500.00001 222.15244" height="222.15244" width="500">
	<title>Tribuna do Ceará</title>
	<g transform="translate(-72.707031,-357.50381)">
		<path style="fill:#2b2f6f;fill-opacity:1;fill-rule:nonzero;stroke:none" d="m 105.04102,357.50781 c -5.583285,0.0746 -13.742523,1.23261 -17.552739,6.88086 -2.689188,4.00504 -2.078125,16.35352 -2.078125,16.35352 l -12.703125,0 0,25.40039 12.703125,0 0,25.41211 c 0,22.57129 11.290853,33.8789 33.871094,33.8789 l 12.69922,0 0,-25.41211 -12.69922,0 c -5.64921,0 -8.4668,-2.8163 -8.4668,-8.46679 l 0,-25.41211 21.16602,0 0,-25.40039 -21.16602,0 0,-22.9336 c 0,0 -2.42347,-0.34551 -5.77343,-0.30078 z m 145.45507,0.13477 c -4.02276,-0.0772 -7.33593,0.16601 -7.33593,0.16601 l 0,107.625 22.86132,0 2.54493,-6.78515 c 2.8195,4.5301 8.4636,6.78515 16.93359,6.78515 22.58152,0 33.87109,-11.30761 33.87109,-33.8789 l 0,-16.9375 c 0,-22.59302 -11.28957,-33.875 -33.87109,-33.875 -8.46999,0 -16.42769,0.88908 -16.93359,6.76953 0,0 0.69728,-9.0282 -0.55469,-17.74219 -1.11552,-4.09656 -4.48186,-11.45173 -14.15625,-11.91992 0.25848,-10e-4 0.54316,6.7e-4 0.80273,-0.002 -1.40208,-0.11754 -2.82118,-0.17933 -4.16211,-0.20508 z m -106.43164,23.09961 0,84.6914 25.40821,0 0,-55.05468 c 2.81439,-2.81311 8.45527,-4.23633 16.93164,-4.23633 l 8.46875,0 0,-25.40039 -8.46875,0 c -8.47637,0 -14.11725,2.26498 -16.93164,6.76953 l -2.54688,-6.76953 -22.86133,0 z m 60.2168,0 0,84.6914 25.40234,0 0,-84.6914 -25.40234,0 z m 121.625,0 0,50.8125 c 0,22.57129 11.28559,33.8789 33.86328,33.8789 8.4802,0 14.11417,-2.25505 16.9375,-6.78515 l 2.54297,6.78515 22.87109,0 0,-84.6914 -25.41406,0 0,55.04297 c -2.82333,2.83099 -8.4573,4.23632 -16.9375,4.23632 -5.65049,0 -8.46289,-2.81631 -8.46289,-8.46679 l 0,-50.8125 -25.40039,0 z m 86.20703,0 0,84.6914 25.41211,0 0,-55.05468 c 2.81566,-2.81311 8.46744,-4.23633 16.93359,-4.23633 5.64538,0 8.46875,2.83178 8.46875,8.47461 l 0,50.8164 25.40821,0 0,-50.8164 c 0,-22.59302 -11.28905,-33.875 -33.87696,-33.875 -8.46615,0 -14.11793,2.26498 -16.93359,6.76953 l -2.54101,-6.76953 -22.8711,0 z m 92.8418,0 0,23.71289 25.4082,0 c 11.92185,0.2389 17.32269,-1.72824 17.20899,11.90039 0.0179,-3.62561 -8.73901,-3.42383 -17.20899,-3.42383 l -8.45898,0 c -16.95019,0 -25.41211,8.74792 -25.41211,26.25 0,17.49314 8.46192,26.25195 25.41211,26.25195 l 8.45898,0 c 8.46998,0 14.1162,-2.25505 16.94336,-6.78515 l 2.53125,6.78515 22.86914,0 0,-45.74023 c 0,-28.51306 -6.12594,-38.95117 -42.34375,-38.95117 l -25.4082,0 z M 285.5,406.14258 c 5.64666,0 8.46484,2.83179 8.46484,8.47461 l 0,16.9375 c 0,5.65049 -2.81818,8.46679 -8.46484,8.46679 -8.46999,0 -14.11409,-1.40533 -16.93359,-4.23632 l 0,-25.40625 c 2.8195,-2.8131 8.4636,-4.23633 16.93359,-4.23633 z m 242.68359,25.41211 c 8.46999,0 14.10967,1.40458 16.93555,4.23047 l 0,5.08984 c -2.82588,2.81567 -8.46556,4.23047 -16.93555,4.23047 -5.64666,0 -8.4707,-2.26453 -8.4707,-6.7793 0,-4.52243 2.82404,-6.77148 8.4707,-6.77148 z m -409.50781,56.4707 0,16.8418 c -4.37935,-4.36913 -10.94509,-6.5625 -19.705077,-6.5625 l -6.564453,0 c -13.132949,0 -19.699219,6.56325 -19.699219,19.70898 l 0,26.2793 c 0,13.13167 6.56627,19.70508 19.699219,19.70508 l 6.564453,0 c 8.759987,0 15.325727,-2.19742 19.705077,-6.57422 l 1.97461,6.57422 4.59961,0 0,-69.89649 c 0,0 0.0591,-3.16393 -1.33594,-4.51172 -1.23409,-1.16638 -5.23828,-1.56445 -5.23828,-1.56445 z m 112.62305,7.19727 c -22.50742,0 -33.75781,11.25383 -33.75781,33.77148 l 0,16.88477 c 0,22.50359 11.25039,33.77734 33.75781,33.77734 l 33.76953,0 0,-25.33398 -33.76953,0 c -5.62493,0 -8.43555,-2.81842 -8.43555,-8.44336 l 0,-16.88477 c 0,-5.62239 2.81062,-8.44531 8.43555,-8.44531 l 33.76953,0 0,-25.32617 -33.76953,0 z m 74.05469,0 c -22.51509,0 -33.77149,11.25383 -33.77149,33.77148 l 0,16.88477 c 0,22.50359 11.2564,33.77734 33.77149,33.77734 l 37.99609,0 0,-14.52734 c 0,0 -0.0112,-3.08662 -1.47266,-4.88282 -1.53558,-1.90223 -5.00586,-1.70312 -5.00586,-1.70312 l -31.51757,0 c -5.62877,0 -8.45118,-2.81211 -8.45118,-8.44727 l 0,-2.54297 40.08204,0 c 0,0 5.25625,0.19577 7.98632,-2.59179 2.5921,-1.83069 2.5918,-6.17969 2.5918,-6.17969 l 0,-9.78711 c 0,-22.51765 -11.25377,-33.77148 -33.76758,-33.77148 l -8.4414,0 z m 57.90625,0 0,23.64062 25.33789,0 c 11.87587,0.24529 17.26454,-1.72755 17.14062,11.86914 0.0281,-3.61922 -8.70257,-3.41992 -17.14062,-3.41992 l -8.45899,0 c -16.87865,0 -25.32226,8.71707 -25.32226,26.17188 0,17.43948 8.44361,26.17187 25.32226,26.17187 l 8.45899,0 c 8.43805,0 14.05902,-2.25341 16.89257,-6.76563 l 2.51954,6.76563 22.79296,0 0,-45.59961 c 0,-28.42108 -6.11245,-38.83398 -42.20507,-38.83398 l -25.33789,0 z m 76.75976,0 0,84.43359 25.32617,0 0,-54.88672 c 2.81949,-2.80162 8.44229,-4.2207 16.88672,-4.2207 l 8.43946,0 0,-25.32617 -8.43946,0 c -8.44443,0 -14.06723,2.26145 -16.88672,6.75195 l -2.53125,-6.75195 -22.79492,0 z m 64.83985,0 0,23.64062 25.33593,0 c 11.88353,0.24529 17.26026,-1.72822 17.15039,11.86719 0.0242,-3.61922 -8.71617,-3.41992 -17.15039,-3.41992 l -8.44726,0 c -16.88887,0 -25.3125,8.71902 -25.3125,26.17383 0,17.44075 8.42363,26.17187 25.3125,26.17187 l 8.44726,0 c 8.43422,0 14.05896,-2.25341 16.88867,-6.76563 l 2.51563,6.76563 22.80273,0 0,-45.59961 c 0,-28.41981 -6.10675,-38.83398 -42.20703,-38.83398 l -25.33593,0 z m -354.79297,3.08203 c -13.14317,0 -19.71094,6.56325 -19.71094,19.70898 l 0,26.2793 c 0,13.1304 6.56777,19.70508 19.71094,19.70508 l 13.1289,0 c 13.14061,0 19.71485,-6.57468 19.71485,-19.70508 l 0,-26.2793 c 0,-13.14573 -6.57424,-19.70898 -19.71485,-19.70898 l -13.1289,0 z m -57.66016,6.5625 6.564453,0 c 8.759987,0 15.325727,2.19749 19.705077,6.57812 l 0,39.40821 c -4.37935,4.37935 -10.94509,6.57031 -19.705077,6.57031 l -6.564453,0 c -8.754874,0 -13.132812,-4.37982 -13.132812,-13.13086 l 0,-26.2793 c 0,-8.75743 4.377938,-13.14648 13.132812,-13.14648 z m 57.66016,0.002 13.1289,0 c 8.76893,0 13.14063,4.38582 13.14063,13.14453 l 0,26.2793 c 0,8.75104 -4.3717,13.13086 -13.14063,13.13086 l -13.1289,0 c -8.76381,0 -13.14453,-4.37982 -13.14453,-13.13086 l 0,-26.2793 c 0,-8.75871 4.38072,-13.14453 13.14453,-13.14453 z m 155.28711,12.30469 8.4414,0 c 5.62111,0 8.42969,2.81887 8.42969,8.43359 l 0,3.38672 -25.32227,0 0,-3.38672 c 0,-5.61472 2.82241,-8.43359 8.45118,-8.43359 z m 81.07226,28.70312 c 8.43038,0 14.06189,1.40564 16.875,4.21875 l 0,5.07422 c -2.81311,2.80544 -8.44462,4.21289 -16.875,4.21289 -5.6326,0 -8.45312,-2.25371 -8.45312,-6.74804 0,-4.51605 2.82052,-6.75782 8.45312,-6.75782 z m 143.76953,0.002 c 8.43422,0 14.05896,1.40368 16.88867,4.21679 l 0,5.07422 c -2.82971,2.80544 -8.45445,4.21289 -16.88867,4.21289 -5.62877,0 -8.44726,-2.25371 -8.44726,-6.74804 0,-4.51605 2.81849,-6.75586 8.44726,-6.75586 z" />
		<path style="fill:#d81f26;fill-opacity:1;fill-rule:nonzero;stroke:none" d="m 204.28207,376.41131 0,-18.23283 26.52396,0 c 0,0 -0.89555,10.31473 -12.87745,15.66628 -7.67664,3.41993 -13.64651,2.56655 -13.64651,2.56655" />
		<path style="fill:#d81f26;fill-opacity:1;fill-rule:nonzero;stroke:none" d="m 531.54712,472.99968 0,18.22644 -26.53162,0 c 0,0 0.89554,-10.31218 12.88128,-15.66372 7.67281,-3.4276 13.65034,-2.56272 13.65034,-2.56272" />
	</g>
</svg>
