<?xml version="1.0" encoding="UTF-8"?>
<!DOCTYPE svg PUBLIC "-//W3C//DTD SVG 1.1//EN" "http://www.w3.org/Graphics/SVG/1.1/DTD/svg11.dtd">
<!-- Creator: CorelDRAW 2019 (64 Bit) -->
<svg xmlns="http://www.w3.org/2000/svg" xml:space="preserve" width="9.7368mm" height="9.7368mm" version="1.1" style="shape-rendering:geometricPrecision; text-rendering:geometricPrecision; image-rendering:optimizeQuality; fill-rule:evenodd; clip-rule:evenodd"
viewBox="0 0 73.45 73.45"
 xmlns:xlink="http://www.w3.org/1999/xlink"
 xmlns:xodm="http://www.corel.com/coreldraw/odm/2003">
 <defs>
  <style type="text/css">
   <![CDATA[
    .fil1 {fill:#FEFEFE}
    .fil0 {fill:#2B49A0}
   ]]>
  </style>
 </defs>
 <g id="Camada_x0020_1">
  <metadata id="CorelCorpID_0Corel-Layer"/>
  <circle class="fil0" cx="36.72" cy="36.72" r="36.72"/>
  <path class="fil1" d="M16.22 9.39c0.36,0.55 1.02,-0 0.77,1.75 -0.13,0.96 -0.97,2.01 -1.56,2.67 -0.24,0.27 -0.49,0.42 -0.65,0.76 -0.37,0.82 -0.29,1.54 0.09,2.25 0.56,1.06 0.34,1.09 0.67,2.15 0.26,0.84 0.88,1.16 1.06,1.74 0.22,0.75 0.43,1.43 0.55,2.26 0.26,1.73 1.89,1.88 2.01,3.69 0.08,1.27 -1.97,1.65 -2.08,3.51 -0.03,0.52 0.18,0.47 0.18,1.22 -0,0.6 0.14,0.65 0.39,1.08 0.52,0.89 -0.2,1.71 0.42,2.38 0.85,0.92 0.24,0.13 0.95,1.94 0.2,0.51 0.43,0.41 0.37,1.08 -0.04,0.49 -0.32,0.77 -0.11,1.28 0.24,0.6 1.34,0.97 1.52,1.35 0.08,0.51 0.01,0.87 0.13,1.37 0.13,0.56 0.23,0.72 0.15,1.31 -0.14,1.05 0.51,3.41 0.49,3.88 -0.03,0.63 -0.3,0.31 0.09,1.19 0.31,0.72 0.46,1.57 0.77,2.3 0.5,1.21 -0.01,1.38 0.28,2.52 0.3,1.19 0.86,0.89 0.85,2.24 -0.01,0.57 0.23,0.57 0.71,0.77 0.46,0.19 0.44,0.34 1.12,0.45 1.29,0.22 1.19,-0.01 1.56,0.71 0.29,0.57 0.87,0.41 -0.38,2.05 -0.54,0.7 -1.54,2.59 -1.23,3.59 0.2,0.65 0.54,0.75 0.52,1.36l0.01 0.41c0.08,0.49 2.59,0.23 3.12,0.23 1.08,0 1.25,0.52 2.76,0.19 0.91,-0.2 1.17,-0.67 2.41,-0.72 0.74,-0.03 2.27,0.02 2.83,0.39 0.76,0.5 0.73,1.01 1.84,1.33 0.47,0.14 0.55,0.38 1.01,0.55 0.71,0.25 0.73,-0.08 0.99,0.66 0.29,0.81 0.88,1.13 1.72,1.45 1.57,0.59 0.7,1.07 1.41,1.84 0.41,-0.01 0.57,-0.21 0.88,-0.34 0.88,0.62 0.23,0.5 1.39,-0.99 0.62,-0.79 0.56,-0.13 0.82,-0.49 0.41,-0.56 -0.33,-0.5 0.99,-0.58 0.41,-0.52 0.23,-0.18 0.65,-0.49 0.17,-0.37 -0.18,-0.13 0.13,-0.48 0.12,-0.13 0.24,-0.14 0.44,-0.35 0.36,-0.36 0.4,-0.57 0.35,-1.19 0.53,-0.32 0.89,-0.96 1.1,-1.48 0.15,-0.36 0.11,-0.69 -0,-1.07 -0.17,-0.57 -0.31,-0.41 -0.83,-0.51 -0.41,-0.8 -0.07,-0.38 -0.84,-0.7 -0,-0.56 0.17,-0.69 -0.01,-1.32 -0.17,-0.61 -0.31,-0.53 -0.79,-0.77 -0.29,-1.8 0.76,-0.82 1.43,-2.63 0.19,-0.52 -0.24,-0.58 -0.29,-1 -0.04,-0.38 0.72,-2.6 1.08,-3.02 0.22,-0.25 0.46,-0.52 0.38,-0.98 -0.56,-0.03 -0.2,0.25 -0.97,0.24 0.38,-0.75 0.17,-0.58 0.28,-1.49 0.31,-0.35 0.28,-0.11 0.46,-0.61 0.13,-0.36 0.32,-0.28 0.49,-0.65 0.07,-0.15 0.42,-1.24 0.99,-1.23 0.59,0.23 0.39,0.63 1.33,0.22 0.72,-0.31 0.48,-0.53 0.92,-1.01 0.26,-0.29 0.63,-0.66 0.95,-0.98 0.17,-0.16 0.37,-0.28 0.46,-0.51 0.14,-0.37 -0.02,-0.41 0.16,-0.79 0.29,-0.61 0.57,-0.39 0.49,-1.3 -0.09,-1.07 0.87,-1.66 1.47,-2.35 0.9,-1.03 1.41,-2.49 2.02,-3.76 0.57,-1.2 0.51,-1.52 1.49,-2.36 1.01,-0.87 0.97,-0.86 2.48,-1.37 0.81,-0.27 2.12,-0.64 2.85,-0.99 0.09,-0.46 -0.23,-1.02 -0.47,-1.36 -0.41,-0.59 -1.61,-0.84 -2.44,-1.25 -0.8,-0.39 -0.55,0.24 -1.44,-0.23 -2.48,-1.32 -0.99,-2.5 -2.73,-2.79 -0.74,-0.12 -0.98,-0.71 -1.69,-1.12 -0.21,-0.12 -0.39,-0.27 -0.56,-0.4 -1.45,-1.14 -3,-3.68 -3.43,-3.93 -0.25,-0.14 -0.38,-0.15 -0.58,-0.29 -1.12,-0.75 -1.03,-2.12 -1.98,-2.79 -0.33,0.15 -0.16,0.16 -0.33,0.23 -0.34,0.15 -0.77,-0.22 -1.12,-0.32 -0.27,-0.08 -0.62,-0.07 -0.83,-0.22 -0.3,-0.21 -0.12,-0.3 -0.53,-0.52 -1.07,-0.56 -0.59,-0.36 -1.17,-0.93 -0.27,-0.26 -0.43,-0.13 -0.73,-0.32 -0.45,-0.28 -0,-0.26 -0.76,-0.37 -0.45,-1.38 -0.53,-1.27 -1.96,-1.48 -0.23,-0.34 -0.19,-0.48 -0.64,-0.59 -0.67,-0.16 -0.69,-0.36 -1.21,-0.7 -0.3,-0.19 -0.39,-0.39 -0.69,-0.54 -0.22,-0.11 -0.22,-0.12 -0.44,-0.26 -0.54,-0.35 -1.29,-0.32 -1.86,-0.68 -0.3,-0.19 -0.28,-0.3 -0.72,-0.51 -0.33,-0.16 -0.58,-0.26 -0.8,-0.51 -0.49,-0.56 -0.05,-0.2 -0.76,-0.47 -0.44,-0.17 -0.73,-0.12 -0.91,-0.23 -0.27,-0.16 -0.35,-0.27 -0.75,-0.47 -0.43,-0.21 -0.39,-0.35 -0.71,-0.61 -0.29,-0.23 -0.5,-0.2 -0.84,-0.39 -0.24,-0.13 -0.56,-0.42 -0.8,-0.51 -0.43,-0.17 -0.65,0.02 -1.11,-0.12 -0.82,-0.25 -0.43,-0.18 -1.04,0.05 -0.77,-0.84 -2.73,-0.36 -3.77,-0.61 -0.56,-0.13 -0.34,-0.18 -0.81,0.03 -1.48,0.66 -1.69,0.22 -2.91,0.52 -0.33,0.08 -0.48,0.23 -0.73,0.32 -0.48,0.17 -0.05,-0.26 -0.84,-0.06 -0.31,0.08 -0.02,0.08 -0.36,0.1 -0.57,0.03 -1.86,0.01 -2.36,0.11 -0.36,0.07 0.16,0.1 -0.35,0.07 -0.82,-0.04 -1.63,-0.48 -2.36,0.3z"/>
 </g>
</svg>
