<?xml version="1.0" encoding="UTF-8"?>
<!DOCTYPE svg PUBLIC "-//W3C//DTD SVG 1.1//EN" "http://www.w3.org/Graphics/SVG/1.1/DTD/svg11.dtd">
<!-- Creator: CorelDRAW 2019 (64 Bit) -->
<svg xmlns="http://www.w3.org/2000/svg" xml:space="preserve" width="9.7368mm" height="9.7368mm" version="1.1" style="shape-rendering:geometricPrecision; text-rendering:geometricPrecision; image-rendering:optimizeQuality; fill-rule:evenodd; clip-rule:evenodd"
viewBox="0 0 174.96 174.96"
 xmlns:xlink="http://www.w3.org/1999/xlink"
 xmlns:xodm="http://www.corel.com/coreldraw/odm/2003">
 <defs>
  <style type="text/css">
   <![CDATA[
    .fil1 {fill:#FEFEFE}
    .fil0 {fill:#2B49A0}
   ]]>
  </style>
 </defs>
 <g id="Camada_x0020_1">
  <metadata id="CorelCorpID_0Corel-Layer"/>
  <circle class="fil0" cx="87.48" cy="87.48" r="87.48"/>
  <g id="_2508148956960">
   <path class="fil1" d="M26.03 38.3l0 0.7c1.43,2.89 2.14,18.85 2.69,20.02 1.7,1.58 1.81,0.33 2.02,3.55l1.55 0.53 0.4 4.13c2.28,0.82 1.9,1.41 2.26,2.37 0.99,0.2 1.47,0.07 2.33,0.21 2.82,0.46 -0.2,0.59 5.78,0.5 0.61,-1.17 -0.16,-0.54 0.79,-1.27 4.9,1.51 3.18,2.63 3.98,3.53 0.95,1.07 3.15,0.28 5.34,4.2 0.94,1.68 -1.19,5.36 -1.89,6.9l-11.71 25.74c-1.02,2.3 -1.95,4.26 -2.96,6.55 -2.86,6.48 -3.22,4.2 -3.76,5.34 -0.13,2.63 0.4,3.11 2.02,4.34 2.27,1.71 1.17,1.83 2.08,3.84 0.38,0.84 0.86,0.79 1.42,1.83 1.65,3.04 0.08,2.89 3.26,5.58 -0.53,3.41 -0.17,1.36 0.14,2.52 0.39,1.45 -1.15,0.6 0.59,3.65 1.32,2.31 1.8,-0.36 2.55,2.75l2.51 -0.01 0.94 2.54c5.15,0.16 0.63,1.35 5.09,1.65l62.93 4.09 3.87 0c0.64,-4.46 0.12,-2.66 1.72,-3.86 -0.56,-1.58 -0.78,-2.08 1.77,-5.04 1.14,-1.33 3.11,-2.1 3.98,-4.05 1.62,-3.65 1.14,0.35 2.67,-5.34 1.04,-3.85 0.03,-3.23 -1.88,-5.17 0.16,-1.29 0.73,-1.84 1.28,-2.86 1.12,-2.1 -0.64,-4.16 3.27,-5.58 2.06,-0.75 0.86,-0.9 3.01,-1.5 0.25,-2.27 0.37,-2.74 2.69,-2.79 -0.37,-1.67 -0.56,-1.7 0.16,-3.29 0.56,-1.24 1.64,-0.77 0.73,-2.99 2.77,-1.64 0.93,-1.92 -0.56,-3.49 -0.63,-0.67 -0.36,-0.6 -1.15,-1.15 -1.18,0.56 -1.19,0.95 -2.62,0.47 0.5,-0.91 6.02,-5.65 7.41,-6.83 1.64,-1.39 0.91,-1.27 3.57,-1.32l1.78 -2.23c0.76,-0.82 0.94,-1.38 1.46,-2.4 0.73,-1.44 0.76,-1.17 1.67,-2.18 0.86,-0.96 1.9,-4.56 2.17,-5.8 0.27,-1.25 1.33,-2.57 2.15,-3.55 0.85,-1.02 0.36,-0.24 1.12,-0.97 0.94,-0.91 0.86,-1.7 0.81,-3.21l1 -0.65c1.38,-1.04 1.37,-2.23 1.3,-3.76 0.43,-0.32 0.96,-0.65 1.37,-0.93 0.05,-1.89 -0.72,-3.69 -0.09,-5.47 0.46,-1.3 0.62,-0.55 1.05,-1.88 0.26,-0.81 0.22,-1.65 0.53,-2.35l0 -0.94c-0.88,-1.19 -0.97,-1.27 -3.27,-2.46 -1.18,0.42 -0.85,1.08 -2.15,0.45 -1.47,-0.71 -0.91,-3.54 -5.59,-2.45 -0.64,-1.64 -0.78,-1.49 -5.04,-1.43 -6.96,0.1 -5.01,1.8 -6.4,2.98 -0.55,0.47 -0.97,0.47 -1.77,1.23 -1.38,1.32 -1.95,1.59 -1.86,4.31 -3.42,0.6 -2.23,1.58 -3.85,3.05l-3.94 2.63 -0.59 -1.35c-2.37,0.31 -3.62,1.08 -6.24,1.25 -0.75,-0.95 -0.38,-1.07 -1.78,-1.28l-0.19 1.2c0,0.32 0.14,0.47 0.06,1.3l-2.75 -0.08c-0.68,-1.33 -0.58,-2.26 -1.03,-2.83 -0.15,-0.19 -0.83,-0.57 -1.11,-0.71 -2.07,-1.07 -0.88,-0.88 -2.08,-3.23 -0.53,-1.05 -0.83,-0.83 -1.35,-2.14 -1.84,0.13 -1.6,0.04 -2.58,1.27 -1.87,2.34 -3.99,3.57 -6.8,3.43 -1.22,-1.34 1,0.38 -2.19,-2.42 -0.4,-0.35 -0.62,-0.71 -1.13,-1.25 -0.55,-0.59 -0.66,-0.52 -1.23,-1.14l-1.26 -1.12c-2.03,-1.35 -2.82,-4.15 -3.53,-5.96 -0.22,-0.56 -0.62,-1.06 -0.8,-1.55 -0.47,-1.23 -0.49,-2.59 -0.99,-3.78 -0.62,-1.48 -1.25,-1.79 -1.86,-2.88 -0.9,-1.61 -0.57,-1.94 -2.22,-2.59 0.58,-1.17 1.46,-0.71 -0.04,-1.98 -3.36,-2.84 -1.06,-0.72 -3.09,-3.49 -0.55,-0.75 -0.39,-0.46 -1.48,-0.62l-0.42 -0.1c-1.16,-0.9 -0.92,-2.23 -2.57,-2.81 -0.75,-0.26 -1.34,-0.24 -2.06,-0.61 -1.22,-0.61 -0.44,-0.39 -1.26,-1.43 -1.04,-0.16 -2.79,-0.31 -3.57,-0.58 -1.26,-0.43 -0.29,0.12 -1.09,-0.95 -0.48,-0.65 -0.48,-0.62 -1.05,-1.06 0.04,-3.09 0.94,-2.83 1.73,-4.22 -0.94,-1.03 -1.48,-1 -2.35,-1.78l-1.05 0c-1.68,1.41 -2.16,-0.76 -3.6,0.55l-0.61 1.05c-0.94,0.03 -2.07,0.06 -3,-0 -0.68,-0.04 -0.73,0.01 -1.26,-0.27 -0.93,-0.5 0.72,0.38 -0.52,-0.43 -2.03,-1.33 -3.6,1.68 -3.48,2.37 0.41,1.08 2.47,2.43 1.43,4.14 -0.44,0.48 -0.95,0.32 -1.67,-0.03 -2.17,-1.07 -2.24,-0.79 -5.68,-0.39 -6.24,0.72 -2.49,-0.26 -5.69,-0.45 -0.62,-0.04 -1.49,0.02 -2.14,0.01 -0.58,0.91 -1.32,1.69 -1.7,2.78 -1.27,-0.4 -0.52,-0.46 -1.6,-0.64 -0.39,-0.06 -1.55,-0 -2.02,-0.01 -2.66,2.92 -2.89,1.88 -5.08,1.46 -1.94,1.61 -0.8,0.91 -1.65,3.04 -0.59,0.27 -1.92,0.49 -2.74,0.24 -1.45,-0.43 -0.13,-0.77 -1.82,-0.87z"/>
   <path class="fil1" d="M113.68 58.63c-0.46,0.48 -0.52,0.26 -0.83,0.87 -0.79,1.57 0.79,1.73 1.19,2.93 1.05,3.09 -0.12,6.04 5.05,6.81 0.95,0.14 1.92,-0 2.88,0.05 3.46,0.19 1.62,1.47 3.71,-0.33 2.27,-1.96 2.88,0.43 6.1,-2.8 1.17,-1.18 0.04,-1.07 1.18,-2.38 0.72,-0.82 1.05,-0.59 1.64,-1.96 0.4,-0.93 0.33,-2.15 0.75,-2.8 0.31,-0.47 2.5,-2 1.95,-4.88 -0.08,-0.04 -0.21,-0.17 -0.26,-0.09l-2.9 -0.33c-1.66,-0.07 -1.66,-0.04 -3.1,-0.54 -4.71,-1.65 -7.04,3.21 -11.09,0.42 -0.92,-0.64 -1.41,-1.01 -2.73,-0.98 -1.54,0.03 -2.2,-0.11 -3.55,-0.08 0,1.8 0.89,0.73 0.06,2.98 -0.43,1.16 -0.97,2.08 -0.04,3.11z"/>
   <path class="fil1" d="M101.86 65.85c2.96,1.14 6.78,-4.96 5.29,-6.84 -1.43,-1.81 -3.32,-0.46 -3.64,1.49 -0.18,1.07 -0.03,2.2 -0.42,3.12 -0.52,1.25 -1.01,0.84 -1.22,2.22z"/>
   <path class="fil1" d="M116.66 51.63c1.06,-0.25 1.33,-0.66 2.22,-0.5 1.18,0.21 0.74,0.58 2.49,0.5 1.38,-1.64 0.93,-4.76 -1.01,-3.45 -1.68,1.13 -1.15,0.44 -2.5,1.05 -0.56,0.26 -0.5,0.1 -0.85,0.99 -0.17,0.42 -0.26,0.97 -0.35,1.41z"/>
   <path class="fil1" d="M122.42 52.19c2.29,1.49 5.8,-0.16 4.42,-1.9 -0.91,-0.54 -1.14,-0.26 -2.53,0.04 -1.28,0.27 -1.68,0.52 -1.89,1.86z"/>
   <path class="fil1" d="M108.98 54.79c1.17,0.04 2.14,0.17 2.77,-0.66 0.72,-0.96 -0.13,-1.57 -0.43,-2.23 -2.11,0.22 -2.73,0.49 -2.34,2.89z"/>
  </g>
 </g>
</svg>
