<?xml version="1.0" encoding="UTF-8"?>
<!DOCTYPE svg PUBLIC "-//W3C//DTD SVG 1.1//EN" "http://www.w3.org/Graphics/SVG/1.1/DTD/svg11.dtd">
<!-- Creator: CorelDRAW 2019 (64 Bit) -->
<svg xmlns="http://www.w3.org/2000/svg" xml:space="preserve" width="9.7368mm" height="9.7368mm" version="1.1" style="shape-rendering:geometricPrecision; text-rendering:geometricPrecision; image-rendering:optimizeQuality; fill-rule:evenodd; clip-rule:evenodd"
viewBox="0 0 89.97 89.97"
 xmlns:xlink="http://www.w3.org/1999/xlink"
 xmlns:xodm="http://www.corel.com/coreldraw/odm/2003">
 <defs>
  <style type="text/css">
   <![CDATA[
    .fil1 {fill:#FEFEFE}
    .fil0 {fill:#2B49A0}
   ]]>
  </style>
 </defs>
 <g id="Camada_x0020_1">
  <metadata id="CorelCorpID_0Corel-Layer"/>
  <circle class="fil0" cx="44.99" cy="44.99" r="44.98"/>
  <path class="fil1" d="M34.59 18.53c-0.45,0.09 -0.28,0.19 -0.72,0.22 -0.36,0.03 -0.58,-0.12 -0.95,-0.16 -0.88,-0.1 -1.11,0.4 -1.79,-0.09 -0.93,-0.68 -0.55,-0.32 -1.42,-0 -0.96,0.35 -2.66,-0.59 -3.51,-0.29 -0.31,0.11 -1.03,0.72 -1.23,0.91 -1,0.93 -1.7,0.78 -2.93,1.35 -3.77,1.74 -3.38,1.63 -3.95,4.5 -0.13,0.64 -0.94,2.54 -1.27,2.9 -0.81,0.89 -1.79,0.97 -2.7,1.58 -0.15,1.3 -0.45,1.88 -0.67,3.13 -0.11,0.6 -0.35,0.89 -0.48,1.45 -0.13,0.59 0.01,1.23 -0.1,1.78 -0.12,0.64 -0.92,0.87 -1.52,1.35 -1,0.79 -2.29,1.04 -1.28,2.85 1.47,2.63 -0.72,1.52 -0.27,4.33 0.13,0.78 -0.03,1.07 -0.27,1.72 -0.4,1.11 -0.75,1.47 -1.03,2.76 -0.11,0.48 -0.29,1.15 -0.35,1.6 -0.14,0.98 0.35,0.72 0.39,1.63 -0.33,0.64 -0.5,0.33 -0.76,1.18 -0.37,1.2 -1.2,1.55 -1.4,2.42 -0.2,0.85 0.21,0.88 0.16,1.79 0.45,0.02 0.21,-0.05 0.5,0.13 0.38,0.24 0.74,0.65 1.19,0.86 0.03,-0.03 0.11,-0.11 0.12,-0.13l0.34 -0.62c0.36,-0.36 0.2,0.05 0.71,-0.25 0.25,-0.14 0.32,-0.38 0.76,-0.15 0.69,0.36 -0.17,0.2 0.88,0.26l-0.17 -0.61c0.6,-0.07 0.4,0.12 0.84,-0.16 1.26,-0.8 0.29,0.33 0.67,0.9 -0.01,-0.4 -0.04,-0.24 0.18,-0.5l0.47 0.15c0.81,0.14 0.83,0.25 1.05,1.16 0.36,-0.1 0.18,-0.21 0.75,-0.26 0.13,0.24 0.32,0.55 0.35,0.95 0.14,1.71 0.41,-0.41 0.59,3.69 0.8,0.46 0.73,0.68 1.08,1.78 0.28,0.88 0.8,0.84 0.99,1.99 0.98,-0.02 0.93,0.17 1.62,0.38 1.12,0.35 1.4,-1.3 3.08,-0.22l1.25 0.89c0.67,0.4 0.54,0.56 1.58,0.33 1.07,-0.24 0.72,0.31 1.78,-0.12 1.61,-0.66 2.43,0.59 3.28,0.69 1.09,0.13 0.57,-0.11 1.69,0.3 0.29,0.1 1.5,0.2 1.89,0.21 2.54,0.07 2.06,0.69 3.01,1.33 0.85,0.58 0.46,0.39 1.58,0.59 0.71,0.12 0.89,0.26 1.84,0.27 0.66,0 1.44,-0.29 1.83,-0.17 1.13,0.33 1.45,0.02 1.73,0.18l0.27 0.34c0.17,0.22 0.32,0.15 0.59,0.85 0.85,-0.61 1.53,-0.14 2.05,-1.07 0.07,-0.28 -0.38,-1.21 -0.45,-1.64 -0.08,-0.5 -0.26,-0.57 -0,-1.03 0.78,-1.39 0.19,-1.02 1.73,-1.73 0.88,-0.4 0.36,-0.78 1.66,-0.61l0.58 0.14c0.49,0.03 0.81,0.14 1.31,0.01 0.54,-0.13 0.67,-0.61 1.28,-0.32 1.51,-2.15 0.73,-2.22 1.84,-2.34 -0.11,-0.47 -0.22,-0.17 -0.01,-0.6 0.38,0.02 1.54,0.18 1.82,0.36l0.73 0.34c0.34,0.17 0.3,0.27 0.42,0.63l0.24 -0.6c0.13,-0.22 0.28,-0.31 0.62,-0.35 0.6,-0.06 0.95,0.17 1.78,0.1 1.48,-0.13 1.53,-0.74 2.92,-0.15l2.1 1.59c0.5,0.62 1.47,1.1 2.55,1.02 0.53,-0.58 -0.02,-0.6 0.98,-0.91 0.5,-0.15 0.96,-0.32 1.32,-0.58 0.33,-0.23 1.16,-1.61 2.4,-1.62 0.36,-0 0.2,0.12 0.59,0.16 0.34,0.03 0.25,-0.05 0.77,-0.03 1.29,0.05 0.35,-0.19 1.32,-0.44 1.52,-0.39 2.4,0.04 3.62,0.11l0.39 -1.14c-0.57,0.02 -0.83,-0.02 -1.35,-0.05 -0.76,-0.04 -0.65,0.11 -1.2,0.17 -0.14,-1.14 1.38,-0.79 2.13,-0.73 -0.21,-0.18 -0.75,-0.43 -0.04,-0.66 0.75,-0.24 0.18,0.22 0.75,0.52 0.34,-0.81 0.17,-1.19 0.72,-2.14 0.37,-0.64 1.24,-1.2 1.27,-1.45 -0.88,-0.01 -0.99,0.43 -1.53,0.34 -0.19,-0.71 0.74,-0.93 -1.11,-0.52 -0.24,0.05 -0.99,-0.43 -1.3,-0.54 -0.38,-0.14 -0.54,-0.4 -0.2,-0.68l0.17 -0.09c-0.34,-0.31 -0.59,-0.92 -0.56,-1.38 0.73,-0.03 1.09,1.45 2.26,1.29 0.69,-0.09 0.62,-0.07 1.03,0.26 0.23,-0.27 0.28,-0.45 0.62,-0.64l-0.42 -0.57c-0.22,-0.34 -0.36,-0.16 -0.52,-0.5 0.34,-0.38 0.32,-0.05 0.79,-0.36 -0.19,-0.47 -0.33,-0.37 -0.2,-0.91 0.74,-0.13 0.43,-0.01 0.81,0.54 0.31,-0.3 0.41,-0.69 0.83,-0.79 0.37,0.53 -0.23,0.69 0.17,1.37 0.36,-0.21 -0.03,-0.11 0.3,-0.55 0.73,0.28 0.37,0.3 1.38,-0.07 0.02,-0.01 0.24,-0.09 0.24,-0.1l0.25 -0.01c0.02,0 0.06,0.01 0.08,0.02 0.21,0.7 -1.14,0.37 -1.32,1.87 -0.06,0.52 -0.1,0.14 0.08,0.47 0.34,-0.4 0.13,-0.23 0.38,-0.73 0.33,-0.65 0.93,-0.61 1.21,-1.18l0.4 -0.74c-0.71,0.1 -1.24,-0.22 -1.62,-0.5 -0.12,-0.91 -0.33,-1.46 -0.41,-2.35 -0.43,0.13 -0.67,0.23 -1.32,-0.19 -0.02,-0.02 -0.05,-0.04 -0.07,-0.05 -0.23,-0.17 -0.71,-0.75 -1.17,-0.33 -0.3,0.51 -0.07,0.88 -0.73,1.41 -0.73,-0.08 -1.13,-0.47 -1.24,-1.21 0.47,-0.84 0.26,-0.02 0.4,-1.17l0.16 -1.44c0.37,-0.27 0.43,-0.24 0.64,-0.72 -0.26,-0.22 -0.35,-0.17 -0.59,-0.33 -0.69,-0.46 -0.22,-0.57 -1.05,-0.26 -0.65,0.24 -0.14,0.07 -0.53,-0.04 -0.47,-0.12 -0.92,0.12 -1.38,-0.08 -0.7,-0.31 0.05,-0.3 -1.17,-0.2 -0.68,0.06 -0.99,0.18 -1.36,-0.37 -0.24,0.31 -0.12,0.41 -0.59,0.53 -0.53,0.14 -0.7,-0.08 -1.14,-0.04 -0.51,0.04 -0.32,0.22 -1.07,0.06 -0.5,-0.1 -0.7,-0.15 -0.88,-0.5 -0.04,-0.07 -0.24,-1.51 -0.21,-1.6 0.25,-0.66 0.24,0.22 0.43,-0.57 0.15,-0.6 -0.14,-0.04 -0.17,-0.75 0.52,-0.33 0.67,-0.55 0.8,-1.22 -0.44,-0.29 -0.54,-0.22 -0.74,-0.69 -0.35,-0.81 0.02,-0.26 -0.55,-0.86 -0.1,-0.8 0.22,-1.18 -0.45,-1.59 -0.54,-0.33 -0.72,-0.43 -1.1,-0.93 -0.34,-0.46 -0.61,-1 -1.05,-1.44 -1.17,-1.17 -0.52,-0.69 -0.24,-1.47 0.09,-0.24 0.08,-0.59 0.11,-0.86 0.1,-0.92 -0.14,-0.7 -0.51,-1.31 -0.34,-0.56 -0.21,-1.02 -0.46,-1.58 -0.33,-0.74 0.08,-0.82 0.24,-1.54 0.34,-1.5 -0.58,-2.74 -1.26,-3.72 -0.36,-0.52 0.11,-0.12 -0.65,-0.42l-1.48 -0.54c-0.17,-0.41 -0.12,-0.36 -0.15,-0.91 -0.94,-0.27 -0.43,-0.29 -0.75,-0.85l-2.5 0.47c-0.35,-0.01 -0.33,-0.05 -0.58,-0.09 -0.6,-0.09 -0.22,-0 -0.56,0.07 -0.54,0.12 -0.67,-0.19 -1.12,-0.44 -0.85,0.29 0.11,0.7 -2.3,0.2 -1.64,-0.34 -1.25,0.48 -2.6,0.29 -0.56,-0.57 -0.57,-1.48 -1.51,-1.78 -0.89,-0.29 -1.75,-0.36 -2.67,-0.68 -1.01,-0.35 -1.28,-0.75 -2.14,-1.18 -1.38,-0.69 -1.64,0.2 -2.72,0.19 -0.73,-0 -0.79,-0.27 -1.26,-0.37 -0.7,-0.15 -0.53,0.42 -1.19,-0.25 -0.6,-0.61 -0.47,-0.23 -1.37,-0.28 -0.92,-0.06 -2.78,-2.13 -3.5,-0.9 -0.24,0.42 -0.14,0.87 -0.55,1.13 -0.61,0.39 -0.69,-0.15 -1.07,-0.45z"/>
 </g>
</svg>
