<?xml version="1.0" encoding="UTF-8"?>
<!DOCTYPE svg PUBLIC "-//W3C//DTD SVG 1.1//EN" "http://www.w3.org/Graphics/SVG/1.1/DTD/svg11.dtd">
<!-- Creator: CorelDRAW 2019 (64 Bit) -->
<svg xmlns="http://www.w3.org/2000/svg" xml:space="preserve" width="9.7368mm" height="9.7368mm" version="1.1" style="shape-rendering:geometricPrecision; text-rendering:geometricPrecision; image-rendering:optimizeQuality; fill-rule:evenodd; clip-rule:evenodd"
viewBox="0 0 308.9 308.9"
 xmlns:xlink="http://www.w3.org/1999/xlink"
 xmlns:xodm="http://www.corel.com/coreldraw/odm/2003">
 <defs>
  <style type="text/css">
   <![CDATA[
    .fil0 {fill:#2B49A0}
    .fil1 {fill:white}
   ]]>
  </style>
 </defs>
 <g id="Camada_x0020_1">
  <metadata id="CorelCorpID_0Corel-Layer"/>
  <circle class="fil0" cx="154.45" cy="154.45" r="154.45"/>
  <path class="fil1" d="M154.66 129.55c-2.94,-0.08 -1.81,-0.86 -3.22,-2.21 -1.53,3.43 -2.38,1.72 -3.82,2.81 -0.41,0.31 0.45,1.15 -3.19,-0.05 -0.05,-2.82 -0.23,-4.11 -1.66,-5.86 -1.83,0.5 -1.85,0.74 -2.6,2.2 -1.93,-0.48 -0.28,-0.72 -2.01,-0.37 -2.73,0.55 0.1,2 -6.29,0.14l-0.15 -2.34c-1.71,0.04 -2.26,-0.5 -2.8,-1.75 -0.04,-0.1 -0.08,-0.22 -0.12,-0.31l-0.43 -0.93c-4.22,-0.02 -0.45,0.92 -6.39,1.7l-0.84 2.42c-2.71,-0.99 -3.81,3.65 -6.17,5.95 -0.82,-0.51 -0.34,-0.74 -1.73,-1.13 -1.17,0.76 -1.32,1.03 -2.88,1.18 -2.02,-4.12 -0.64,-5.04 -5.42,-6.74 -2.01,-0.72 -2.57,-0.96 -3.72,-2.14 -1.64,-1.69 -1.39,-2.59 -2.41,-3.85 -0.61,-0.76 -6.99,-3.09 -8.36,-3.78 -2.76,-1.39 -3.67,-4.33 -7.35,-4.89 -3.54,-0.54 -7.99,-1.13 -11.44,-0.12 -3.21,0.94 -4.98,2.82 -9.37,2.43 -1.53,-0.14 -3,-0.87 -4.73,-1.01 -3.32,-0.27 -16.33,-0.6 -17.75,1.09 -1.28,2.86 0.54,5.7 1.86,7.66 2.66,3.97 -0.42,4.33 -0.65,7.42 2.56,1.97 5.2,1.28 5.5,5.62 0.49,6.95 -1.91,11.11 -7.45,14.95 -2.73,1.89 -1.22,0.51 -2.83,3.06 -1.18,1.86 -1.6,0.22 -2.41,3.45 -1.76,-0.21 -1.42,-0.62 -2.86,-0.4 -0.3,1.76 -0.4,2.35 -1.19,3.46 -2.27,-0.35 -3.52,-1.22 -5.11,0.38 -0.03,0.03 -0.67,0.88 -0.71,0.95 -0.47,0.76 -0.82,2.04 -1.21,2.52 -1.62,2.01 -2.53,-0.77 -4.32,2.79 -2.24,4.45 -4.48,3.28 -7.97,5.88 4.04,2.13 4.77,-0.9 9.38,-0.45 3.27,0.32 1.24,1.27 2.31,2.95 0.62,0.99 2.86,-0.09 4.32,-0.06 1.43,2.73 -0.21,2.19 2.74,2.43 3.51,0.29 1.11,6.22 1.95,9.1 0.66,2.27 1.58,0.25 1.48,4.66 0.82,0.94 2.11,1.52 2.9,1.97 2.41,1.35 5.02,0.29 4.46,6.8 -0.17,2 -1.41,2.81 -2.33,4.22 1.03,0.9 2.71,2.04 4.46,2.17 1.87,0.15 3.4,-0.49 4.35,-1.97 0.95,-1.48 -0.6,-0.6 1.59,-1.35 1.8,-0.62 0.93,0.14 2.37,-1 2.97,-2.34 1.08,-0.71 4.63,-0.84 1.11,-2.64 1.82,-12.12 4.2,-13.32 3.79,-0.69 2.51,0.82 5.44,1.41 1.91,-0.54 2.06,-1.43 3.95,-2.09 2.67,-0.93 2.23,0.05 4.02,-1.85 4.71,-5.01 1.08,-3.76 1.8,-8.3 1.34,-0.9 8.45,-1.1 9.28,-2.6 0.33,-2.1 -0.89,-3.62 -0.09,-4.92 0.8,-0.69 3.71,-0.83 5.88,-2.09 4.07,-2.36 6.72,-4.83 11.48,-2.47 1.87,0.93 1.69,3.39 3.28,4.96 0.53,0.53 2.18,0.64 2.9,0.98 3.69,1.74 5.62,0.77 8.24,4.24 2.21,-0.02 3.86,-0.87 5.33,-0.72 2.5,0.24 2.73,1.28 4.24,2.14 2.58,1.47 1.88,0.23 2.94,3.32 0.66,1.94 0.76,3.29 2.61,3.71 0.92,-1.19 0.49,-11.25 7.08,-5.36 -0.43,2.83 -0.83,2.03 -1.84,4.17 2.81,6.12 5.62,2.53 8.09,1.61l1.6 1.19c-0.17,3.23 -2.29,3 -0.47,6.52 1.14,2.21 1.19,5.05 2.64,7.12 3.1,-1.21 3.12,-3 5,-5.16 1.93,-2.22 4.71,-0.82 6.93,-3.57 1.48,-1.83 3.75,-3.37 5.29,-5.16 2.12,-2.46 -0.44,-5.67 3.74,-6.68 2.42,1.41 2.13,3.23 3.6,5.51 3.45,0.53 2.2,-2.2 6.87,-1.74 0.99,0.5 0.85,1.98 2.23,2.73 4.74,2.56 4.84,2.75 9.05,7.28 1.37,1.48 3.83,3.85 6.31,4.6 1.44,0.43 3.17,0.47 4.39,1.06 1.83,0.89 1.49,1.66 3.15,2.35 3.44,-4 0.27,-3.96 9.63,-3.36 7.22,0.47 4.04,2.14 10.18,-1.61 2.66,-1.62 2,-0.93 5.3,-1.4 1.55,-0.22 3.46,-1.64 4.38,-2.75 2.04,-2.46 -0.12,-1.64 3.47,-3.63 3.16,-1.75 3.19,-0.98 3.05,-4.08 2.66,-0.75 2.98,-3.24 5.76,-3.06 3.36,0.22 6.95,-2.27 8.75,-0.54 0.54,0.52 -0.03,0.09 0.67,0.64 0.36,0.28 1.3,0.72 1.73,0.79 1.73,0.29 2.44,-0.42 3.62,-1.17 2.05,-1.3 5.42,-2.3 8.11,-2.47 1.33,2.42 3.41,2.21 6.15,2.33 2.08,0.09 6.01,0.73 8.09,1.16 0.19,-1.74 0.4,-3.75 1.27,-5.08 1.95,-3 0.69,-1.92 1.77,-4.91l3.84 -9.17c0.61,-1.69 1.15,-2.91 1.74,-4.54 0.72,-2 0.24,-3.64 0.98,-5.74 0.89,-2.55 2.7,-5.35 0.97,-8.24l-0.81 -1.16c2.22,0.42 1.54,0.6 3.11,1.62l0.33 -0.66c0.14,-0.34 0.28,-0.71 0.37,-1.01 0.61,-1.92 1.71,-4.1 1.02,-6.1 -0.14,-0.23 -0.52,-0.58 -0.55,-0.63 -0.03,-0.04 -0.09,-0.15 -0.11,-0.2 -0.75,-1.49 -0.64,-1.56 -2.15,-2.54 -0.35,-2.14 0.14,-2.45 -0.71,-4.31l1.87 -1.02 -0.76 -3.4 2.6 1.95c0.91,-1.75 0.84,-2.24 -0.73,-3.65 -1.23,-1.09 -1.77,-0.95 -3.7,-0.95l0 -1.24c-4.22,-1.44 -1.84,-0.46 -4.12,-3.35 -1.19,-1.51 -2.35,-2.4 -5.09,-2.36 -6.33,0.08 -5.92,-3.26 -10.74,2.83 -2.24,-0.12 -2.4,-0.84 -5.18,-0.44 -0.76,1.3 -1.25,4.6 -1.68,6.29 -0.94,3.63 -1.7,2.2 -4.17,3.81 -3,1.96 -2.55,0.44 -6.05,1.92 -1.06,0.45 -3.32,1.56 -4.49,1l-1.47 -1.17c0.81,3.07 1.3,0.83 1.84,3.23 -1.24,0.68 -1.22,0.21 -1.87,0.5 -0.84,0.37 -0.83,0.65 -1.38,1.33 -2.62,-1.71 -3.26,-0.41 -6.28,-0.51 -1.22,-1.92 0.34,-1.04 -1.26,-2.39 -2.07,0.99 -3.27,4.37 -5.03,0.66 -1.6,0.86 -1.72,1.7 -3.79,1.3 -2.19,-0.42 -2.8,-0.24 -4.97,-0.03 -0.05,1.67 0.7,2.15 -0.44,3.33 -0.99,1.01 -2.44,0.84 -4.18,0.96l-5.87 3.54c0.29,1.93 1.97,2.67 0.68,4.59 -0.73,1.09 -2.34,1.29 -3.47,2.82 -2.99,4.07 -4.21,1.54 -8.59,4.39 -3.67,2.4 -9.59,-2.79 -10.22,-6.73 -0.65,-4.02 -0.26,-2.47 -0.1,-5.84 -2.9,-0.86 -1.79,-1.33 -4.55,-0.18 -3.13,1.3 -6.47,1.01 -3.3,-1.6 1.6,-1.32 0.87,-0.22 2.24,-2.42 0.59,-0.95 1.09,-2.19 1.61,-2.99 0.88,-1.34 1.61,-1.19 2.73,-1.76 0.17,-3.53 -3.49,-6.24 -1.26,-9.36 0.68,-0.95 7.19,-2.73 8.86,-3.31 -0.13,-1.74 -0.69,-2.31 -1.01,-4.65 -2.43,-0.14 -4.99,-1.63 -6.72,-2.97 -2.37,-1.83 -2.63,-3.14 -6.76,-1.37 -2.36,1.02 -0.61,1.22 -2.13,2.5 -2.25,1.89 -1.61,-0.78 -3.7,0.41 -0.89,0.5 -2.85,4.47 -4.48,5.62 -2.01,1.41 -4.72,1.69 -6.56,3.06 -2.63,1.97 -0.39,2.61 -5.34,4.29 -3.87,1.31 -2.35,2.98 -4.91,4.78 -1.51,1.07 -2.02,0.03 -3.45,-0.14 -2.52,-0.3 -1.9,1.05 -2.12,2.86z"/>
 </g>
</svg>
