<?xml version="1.0" encoding="UTF-8"?>
<!DOCTYPE svg PUBLIC "-//W3C//DTD SVG 1.1//EN" "http://www.w3.org/Graphics/SVG/1.1/DTD/svg11.dtd">
<!-- Creator: CorelDRAW 2019 (64 Bit) -->
<svg xmlns="http://www.w3.org/2000/svg" xml:space="preserve" width="9.7368mm" height="9.7368mm" version="1.1" style="shape-rendering:geometricPrecision; text-rendering:geometricPrecision; image-rendering:optimizeQuality; fill-rule:evenodd; clip-rule:evenodd"
viewBox="0 0 125.23 125.23"
 xmlns:xlink="http://www.w3.org/1999/xlink"
 xmlns:xodm="http://www.corel.com/coreldraw/odm/2003">
 <defs>
  <style type="text/css">
   <![CDATA[
    .fil0 {fill:#2B49A0}
    .fil1 {fill:white}
   ]]>
  </style>
 </defs>
 <g id="Camada_x0020_1">
  <metadata id="CorelCorpID_0Corel-Layer"/>
  <circle class="fil0" cx="62.61" cy="62.61" r="62.61"/>
  <path class="fil1" d="M79.71 11.71l0.75 0.26c-0.01,0.29 -0.38,1.23 -0.54,1.51 -0.04,0.07 -0.34,0.45 -0.46,0.59 -0.27,0.31 -0.32,0.22 -0.56,0.47l-0.59 0.92c-0.55,0.56 -0.58,0.98 -1.66,0.99 -0,0.65 -1.37,2.32 -1.72,2.45 -0.37,0.14 -1.19,0.13 -1.78,0.29 -1.54,0.41 -1.01,0.15 -1.68,-0.13 -0.36,0.29 -0.43,0.64 -0.75,1.06 -0.3,0.4 -0.65,0.54 -0.95,0.9 -1.02,1.2 0.38,2.11 -0.98,2.49 0.27,1.52 -1.01,1.75 -1.64,2.73 -0.26,0.41 -0.27,0.97 -0.7,1.49 -0.39,0.47 -1.03,0.41 -1.18,1.13 -0.1,0.49 0.15,1.41 0.46,1.67 0.61,0.52 0.69,-0.21 1.12,1.08 0.21,0.63 0.41,1.01 0.03,1.72 -0.19,0.35 -0.73,0.96 -1.13,1.18 0.47,1.12 0.17,0.59 -0.02,1.48 0.82,0.51 0.47,0.44 0.82,1.25 0.23,0.51 0.24,0.06 0.39,0.63 0.2,0.75 0.33,1.72 0.67,2.46 0.59,1.27 0.09,0.67 -0.06,1.55 -0.13,0.76 0.14,1.12 -0.51,1.55 -0.85,0.57 -0.5,0.03 -1.08,1 -0.32,0.54 -0.43,0.46 -0.83,1.25 -0.42,0.83 -0.46,0.77 -1.14,1.04 0.5,2.54 -0.31,1.28 0.03,2.73 0.24,1.01 -0.05,0.6 0.01,1.28 0.06,0.74 0.55,0.39 0.49,1.27 -0.05,0.75 -0.17,0.64 0.56,1.01 0.54,0.27 0.27,0.53 0.87,0.97 1.31,0.95 0.81,0.39 1.12,1.58 0.11,0.44 0.16,0.01 0.26,0.67 -1.04,0.76 -0.16,1.06 -0.52,1.85 -0.24,0.54 -0.07,0.65 -0.28,1.11l-0.34 1.05c-0.54,1.76 -1.19,1.26 -2.47,1.55 -0.75,0.17 -0.5,-0.03 -1.1,-0.24 -0.51,0.15 -0.5,0.3 -0.96,0.48 -0.4,0.15 -0.78,0.03 -1.17,0.21 -0.68,0.32 -0.78,0.98 -1.92,-0.04l-0.6 -0.44c-0.33,-0.3 -0.65,-0.38 -1.09,-0.63 -0.56,-0.32 -1.07,-0.38 -1.86,-0.2 -0.5,0.11 -0.94,0.47 -1.48,0.61 -0.72,0.2 -0.57,-0.05 -1.12,0.05 -0.93,0.15 -0.48,0.58 -1.03,1.01 -0.53,0.42 -0.77,0.31 -1.1,0.96 -0.13,0.25 -0.31,0.57 -0.58,0.83 -0.4,0.39 -0.52,0.17 -0.73,0.65 -0.23,0.52 -0.02,0.62 -0.45,0.94 -0.31,0.24 -1.21,0.29 -1.69,0.5 -0.96,0.4 -0.7,0.55 -1.29,1.03 -0.3,0.25 -0.35,0.16 -0.59,0.45 -0.26,0.32 -0.15,0.45 -0.5,0.66 -0.38,0.22 -0.43,0.01 -0.69,0.47 -0.24,0.43 -0.02,0.33 -0.38,0.72 -0.52,0.01 -0.21,0.02 -0.5,-0.11 -0.31,-0.14 0.13,-0.09 -0.35,-0.18 -0.1,-0.02 -0.59,-0.01 -0.93,-0.06 -1.22,1.59 -2.38,1.37 -3.99,2.01 -0.75,0.3 -1.04,0.18 -1.73,0.35l-2.45 1.58c-0.34,0.43 -0.66,2.57 -0.87,3.17 -0.46,1.31 -0.01,2.86 -1.03,3.93 -0.7,0.74 -0.3,1.14 -1.06,2.06 -0.53,0.64 -0.3,0.68 -0.39,1.57 -0.04,0.43 -0.13,0.49 -0.25,0.78 -0.01,0.03 -0.02,0.06 -0.03,0.08 -0.01,0.03 -0.02,0.06 -0.03,0.08 -0.18,0.46 -0.75,1.51 -1.06,1.73l-1.09 0.99c-0.26,0.45 0.02,0.34 -0.35,0.9 -0.5,0.77 -0.02,1.09 0.23,1.92 0.12,0.41 0.06,0.78 0.11,1.25 0.07,0.72 0.23,0.38 0.33,1.03 0.06,0.42 -0.05,0.84 0.01,1.25 0.11,0.88 0.86,0.63 1.24,1.39 0.43,0.86 0,1.25 -0.28,1.83 -0.13,0.26 -0.21,2.04 -0.15,2.43 0.08,0.55 0.27,0.37 0.03,0.91 -0.65,1.49 0.41,2.58 -0.77,3.04 0.03,0.99 0.07,0.77 -0.41,1.44 -0.34,0.48 -0.61,1.38 0.08,1.5 0.18,0.03 0.36,0.01 0.55,0 0.4,-0.01 0.82,0.06 1.2,-0.02 0.36,-1.07 -0.2,-1.29 1.18,-1.46 1.09,-0.14 1.46,0.08 1.88,0.74 0.31,0.49 0.07,0.54 0.19,0.99 0.16,0.59 1.48,0.76 1.45,2.72l-0.49 0.3c0.06,1.61 0.53,1.41 1.14,2.36 0.28,0.43 0.26,0.76 0.72,1.01 0.46,0.25 0.77,0.39 1.28,0.57 0.51,0.17 0.62,0.37 1.13,0.6 0.46,0.21 0.89,0.31 1.25,0.49 1.09,0.56 1.12,0.05 1.97,-0.3 0.31,-0.13 0.42,-0.05 0.74,-0.16 0.52,-0.41 0.29,-0.94 0.8,-1.3 0.64,-0.45 0.87,-0.04 1.34,-0.74 0.34,-0.5 0.06,-0.19 0.54,-0.49 0.82,-0.51 0.19,-0.46 1.4,-0.73 0.37,-0.08 0.43,-0.17 0.79,-0.34 1.73,-0.78 1.66,0.74 3.1,0.34 1.5,-0.42 1.13,-1.47 1.83,-2.42 0.48,-0.02 0.8,0.15 1.53,0.11 0.15,-0.57 0.02,-0.52 0.36,-0.9 0.59,-0.66 0.65,-1.59 1.62,-2.59 -0.2,-1.8 0.69,-0.67 0.79,-1.84 0.05,-0.52 -0.22,-0.73 -0.1,-1.22 0.13,-0.53 0.31,-0.37 0.33,-1.12 -0.57,-0.18 -1.26,-0.32 -1.55,-0.89l-0.71 -1.83c-0.6,-1.88 0.78,-2.37 2.26,-2.63 0.72,-2.08 1.32,-0.96 2.01,-1.8 0.31,-0.37 0.11,-0.42 0.72,-0.57 1.03,0.35 0.91,1.24 1.62,2.15 0.04,0 1.87,-0.45 2.52,-0.38 0.33,0.03 0.53,0.23 1.13,0.33 0.6,0.1 0.83,-0.05 1.39,0.14 0.15,0.58 0.04,0.98 0.49,1.48 0.59,0.66 0.64,-0.16 1.16,0.86 0.18,-0.07 0.73,-0.12 0.88,-0.23 0.42,-0.32 -0.08,-0.48 0.53,-0.64 0.7,-0.18 0.44,0.26 0.85,0.14 0.23,-0.07 0.32,-0.39 0.56,-0.56 0.69,-0.49 1.03,0.4 1.69,-0.38 0.48,-0.57 0.35,-0.84 1.13,-1.19 0.79,-0.36 0.48,-0.98 1.2,-1.07 0.34,-0.04 0.41,0.11 0.99,0.02 0.41,-0.06 1.65,-0.2 1.94,-0.37 0.32,-0.19 0.11,-0.33 0.71,-0.33 0.28,-0 0.77,0.08 0.98,0.09 0.06,0 0.42,-0.03 0.46,-0.04 0.71,-0.16 0.37,-0.4 0.75,-0.98 0.23,-0.35 0.45,-0.3 0.77,-0.49 0.69,-1.24 -0.48,-1.57 1.57,-1.68 0.71,-0.96 0.19,-0.45 1.21,-0.86 0.81,-0.33 0.56,-0.67 0.96,-1.24 0.38,-0.53 0.6,-0.51 0.88,-1.2 0.35,-0.86 1.85,-0.95 2.71,-1.55 0.67,-0.47 0.24,-0.93 0.9,-1.29 1.02,-0.55 0.22,-0.2 1.05,-1.15 0.21,-0.24 0.31,-0.3 0.74,-0.27 0.28,0.02 0.62,0.21 0.79,0.07 0.2,-0.25 0.19,-0.63 0.38,-0.98 0.6,-0.02 0.72,0.34 1.17,-0.11 0.41,-0.4 0.25,-0.77 0.63,-1.1l0.82 -0.91c0.85,-1.1 1.7,-0.82 1.71,-3.45 0,-1.48 -0.59,-1.26 -1.61,-1.81 -0.06,-1.04 0.48,-0.98 0.46,-1.65 -0.03,-0.75 -0.62,-0.7 -0.76,-1.3 -0.41,-1.75 1.26,-1.38 1.97,-2.15 0.2,-0.5 -0.1,-0.34 0.27,-0.9 0.35,-0.52 0.21,-0.03 0.1,-0.78 -0.14,-1.03 1.03,-2.49 1.22,-3.55 0.07,-0.37 0.05,-0.81 0.12,-1.13 0.12,-0.63 0.29,-0.24 0.32,-0.91 -0.93,-0.56 -0.52,-0.54 -0.9,-0.84 -0.5,-0.29 -1.29,-0.19 -1.89,-0.42 -0.48,-0.18 -1.23,-0.46 -1.48,-0.95 -0.35,-0.72 -0.06,-1.05 -0.55,-1.74 -0.37,-0.52 -0.45,-1.29 -0.28,-2.07l-0.37 -0.51c-0.27,-0.74 -0.32,-1.57 -0.42,-2.37 -0.11,-0.91 -0.37,-0.65 -0.51,-1.22 -0.16,-0.68 0.25,-0.6 -0.05,-1.57 -0.55,-1.81 -0.32,-3.92 -0.54,-4.64 -0.25,-0.79 -0.1,-0.86 0.22,-1.36 -0.13,-0.53 -0.43,-0.51 -0.31,-1.2 0.25,-1.32 0.48,-1.38 -0.48,-2.43 -0.35,-0.38 -0.59,-0.43 -1.01,-0.6 -0.38,-0.15 -0.4,-0.93 -0.81,-1.26 -0.93,-0.77 -1.4,-1.48 -1.51,-2.69 -0.08,-0.84 -0.45,-0.73 0.42,-1.28 0.02,-0.92 -0.26,-1.14 -0.13,-1.91 0.16,-0.9 0.48,-0.8 0.65,-1.61 0.14,-0.7 0.34,-1.08 0.46,-1.62 0.2,-0.94 -0.37,-0.45 0.2,-1.79 -0.3,-0.44 -0.49,-0.18 -0.52,-0.69 -0.02,-0.43 0.27,-0.43 0.33,-0.89 -1.52,-0.44 -0.98,-1 -1.47,-2.22 -0.21,-0.51 -0.27,-0.32 -0.57,-0.7 0.06,-0.66 0.38,-0.53 0.37,-1.27 -0.48,-0.22 -0.91,-0.21 -1.11,-0.64 -0.16,-0.34 -0.23,-1.14 -0.11,-1.48 0.74,-2.12 -0.46,-1.56 -0.79,-2.23 -0.18,-1.55 0.67,-1.64 0.98,-2.43 0.25,-0.63 0.16,-0.74 0.6,-1.14 0.57,-0.53 0.44,-0.46 0.4,-1.43 -0.79,-0.47 -0.58,-0.64 -0.89,-0.82 -0.14,-0.08 -0.33,-0.09 -0.48,-0.12l-0.1 0.15c-0.24,0.28 0.15,0.19 -0.47,0.33 -0.23,-0.19 -0.06,-0.02 -0.21,-0.26 -0.17,-0.29 0.03,0.07 -0.07,-0.15 -0.01,-0.02 -0.03,-0.06 -0.03,-0.07 -0.01,-0.01 -0.02,-0.05 -0.03,-0.07 -0.72,0.25 -1.54,0.01 -2.25,-0.21 -0.39,-0.12 -0.72,-0.06 -0.71,-0.47l0.05 -0.27c0.01,-0.02 0.02,-0.06 0.03,-0.09 -0.29,-0.09 -0.6,-0.2 -0.84,-0.34 -0.42,-0.25 -0.33,-0.37 -0.67,-0.6 -0.59,0.17 -0.4,0.12 -0.59,0.65 -0.24,0.71 -0.2,0.23 -0.07,1.04z"/>
 </g>
</svg>
