<?xml version="1.0" encoding="UTF-8"?>
<!DOCTYPE svg PUBLIC "-//W3C//DTD SVG 1.1//EN" "http://www.w3.org/Graphics/SVG/1.1/DTD/svg11.dtd">
<!-- Creator: CorelDRAW 2019 (64 Bit) -->
<svg xmlns="http://www.w3.org/2000/svg" xml:space="preserve" width="9.7368mm" height="9.7368mm" version="1.1" style="shape-rendering:geometricPrecision; text-rendering:geometricPrecision; image-rendering:optimizeQuality; fill-rule:evenodd; clip-rule:evenodd"
viewBox="0 0 117.77 117.77"
 xmlns:xlink="http://www.w3.org/1999/xlink"
 xmlns:xodm="http://www.corel.com/coreldraw/odm/2003">
 <defs>
  <style type="text/css">
   <![CDATA[
    .fil1 {fill:#FEFEFE}
    .fil0 {fill:#2B49A0}
   ]]>
  </style>
 </defs>
 <g id="Camada_x0020_1">
  <metadata id="CorelCorpID_0Corel-Layer"/>
  <circle class="fil0" cx="58.88" cy="58.88" r="58.88"/>
  <path class="fil1" d="M33.84 34.94c-1.23,0.25 -1,-0.08 -1.47,1.01 -0.27,0.62 -0.6,0.89 -0.9,1.58 -0.91,2.15 -0.63,4.05 -0.71,4.23 -0.5,0.64 -0.93,0.56 -1.51,0.99 -0.67,0.49 -0.37,1.17 -0.52,1.97 -0.14,0.7 -0.63,0.99 -0.89,1.57 -0.65,1.46 -0.24,1.34 -2.35,2.6 -1.45,0.86 -0.61,1.71 -2.17,2.78 -0.81,0.56 -0.63,0.68 -0.67,1.95 0.22,0.2 0.13,0.09 0.32,0.22 0.76,0.52 -0.46,-0.35 0.17,0.11 0.17,0.13 0.11,0.05 0.24,0.19 -0.15,0.7 -0.51,0.92 -0.85,1.42 -0.45,0.65 -0.42,0.79 -0.74,1.48 -2.43,5.23 -1.66,2.06 -3.32,3.85 -0.98,1.05 -0.3,1.22 -0.74,2 -0.55,0.98 -1.86,1.06 -2.87,0.75 -0.68,-0.21 -0.22,-0.19 -0.63,-0.74 -1.06,-0.02 -2,1.07 -2.41,1.89 -0.21,0.43 -0.17,0.74 -0.33,1.11 -0.23,0.54 -0.42,0.34 -0.79,0.65 -0.65,0.55 0.19,1.14 -0.96,1.9 -0.33,0.22 -0.59,0.44 -0.91,0.64 0.02,0.56 0.16,0.47 0.12,0.82 -0.05,0.41 -0.17,0.16 -0.33,0.66 0.77,1.45 -0.19,0.96 -0.25,1.94 0.58,0.37 1.29,0.31 1.89,-0.14 0.68,-0.52 0.42,-1.35 1.27,-1.36 -0.04,0.56 -0.89,0.97 0.33,1.51 0.63,0.28 1.7,0.19 2.14,0.6 0.55,0.52 0.15,1.1 1.23,1.37 1.23,0.31 0.99,0.37 1.85,0.85 1.22,-0.44 0.21,-0.96 2.21,-0.21 0.69,0.26 0.86,0.06 1.41,0.18 0.73,0.16 0.18,0.47 0.94,0.76 0.76,-0.44 1.01,-1.99 1.96,-2.07 0.41,0.52 0.13,0.71 0.9,0.72 0.47,-1.19 -0.11,-1.12 1.14,-1.74 0.76,-0.38 1.64,0.54 2.17,-0.29 0.27,-0.42 -0.01,-0.63 0.48,-0.95 0.45,-0.3 0.5,-0.03 0.87,-0.56 0.56,-0.81 0.62,-1.38 0.99,-1.99l0.72 0.21c0.6,-1.07 0.17,-1.59 1.09,-2.58 0.84,-0.9 2.14,0.28 3.14,-0.12 0.36,-0.14 0.89,-0.42 1.27,-0.57 0.91,-0.35 0.51,0.24 1.42,-0.26 0.74,-0.41 0.77,-0.08 1.56,-0.28 0.68,-0.17 0.48,-0.48 0.85,-1.09 0.59,-0.09 0.87,0.16 1.36,0.04 0.6,-0.15 0.31,-0.45 1,-0.67 0.89,-0.29 0.42,-0.01 1.13,-0.57 0.53,-0.42 0.7,-0.24 1.44,-0.27 0.14,-0.24 0.35,-0.62 0.53,-0.88 2.72,-0.12 2.96,3.72 1.83,4.69 -0.48,0.41 -0.5,0.26 -1.14,0.43 -0.92,0.24 -0.87,1.1 -1.22,1.89 -0.54,0.3 -0.53,-0.04 -1.09,0.22 -0.75,0.35 -1.56,1.57 -1.95,2.35 -0.69,1.37 0.15,1.47 -0.1,2.25 -0.38,1.2 0.18,1.14 -0.51,2.34 -2.2,0.39 -2.44,-0.81 -1.93,2.72 0.21,1.47 0.19,0.84 -0.18,2.25 0.92,-0.05 1.62,-0.21 2.62,-0.17 1.52,0.07 1.64,-0.3 2.61,-0.25 0.2,0.29 0.01,0.23 0.2,0.72 0.44,0.1 0.28,0.04 0.56,0.21 0.21,1.29 0.09,3.96 2.44,2.55 0.59,-0.35 1.18,-1.33 1.61,-1.51 0.39,-0.16 1.05,-0.13 1.49,-0.21 1.28,-0.24 1.36,-1.21 2.04,-1.21 1.15,-0 0.26,1.46 1.05,2.21 0.59,-0.13 0.44,-0.51 1.47,-0.87 2.11,-0.74 1.49,-0.97 3.1,0.34 0.78,0.63 0.57,0.52 0.68,1.84l0.92 -0.04c-0.16,1.48 -0.83,1.98 -0.86,2.51 -0.04,0.76 0.87,1.64 1.7,1.53l0.31 -1.33c1.38,-0.38 1.56,0.1 2.46,0.14 0.49,-0.51 0.38,-0.98 0.92,-1.63 0.72,-0.89 0.25,-0.68 1.36,-1.38 0.46,-0.29 1.01,-1.06 0.7,-1.83 -0.29,-0.74 -1.28,-1.01 -1.42,-1.35 -0.05,-0.64 0.31,-1 0.44,-1.69 0.55,-2.92 1.87,-0.37 2.55,-0.92 0.29,-0.24 -0.01,-1.44 -0.06,-1.74 -1.15,-0.48 -0.6,0.02 -0.9,-1.18 -2.28,-1.03 -1.08,-2.06 -0.58,-3.72l0.21 -0.64c0.01,-0.03 0.03,-0.08 0.05,-0.11l1.57 0.06c0.33,-0.37 0.51,-0.83 0.75,-1.31 0.52,-1 0.74,-0.42 1.33,-0.2 1.15,-0.71 2.66,-0.75 2.37,1.02 -0.16,1 -0.33,0.24 -0.57,1.04 0.31,0.58 0.46,0.53 1.19,0.65l0.07 0.87c0.65,0.09 3.2,-0.22 3.94,-0.36 1.9,-0.38 1.02,0 2.27,0.66 1.64,0.86 -0.01,1.51 4.17,1.25 1.4,-0.09 2.95,-0.06 4.1,-0.51 1.37,-0.54 2,-0.93 3.38,-0.12 1.38,0.81 2.33,0.21 4.01,0.55 1.84,0.37 2.14,0.02 3.36,1.2 1.11,1.07 2.82,-0.24 3.53,-0.31 1.76,2.53 2.25,-0.02 3.16,-0.2 0.72,-0.14 0.87,0.29 1.54,0.37 0.47,-0.23 0.3,-0.33 0.78,-0.52 1.26,-0.49 1.74,0.1 1.3,-2.34 -0.19,-1.05 -0.23,-1.24 -0.89,-1.71 -0.81,-0.58 -0.4,-0.94 -0.62,-2.01 -0.14,-0.67 -0.11,-1.55 -0.68,-1.9 -1.76,-1.11 -1,-2.63 -1.02,-3.91 -0.02,-0.91 -0.19,-0.58 -0.33,-0.99 -0.17,-0.47 0.13,-0.37 -0.04,-1.01 -0.25,-0.98 -0.65,-1.11 -0.99,-1.62 -0.67,-1 -0.16,-1.39 -0.47,-2.15 -0.4,-0.98 -0.65,0.1 -0.56,-1.79 0.06,-1.3 -0.72,-0.98 -0.7,-1.94 0.01,-0.43 0.24,-0.77 0.2,-1.18 -0.06,-0.65 -0.27,-0.33 -0.48,-0.83 -0.31,-0.77 0.08,-2.2 -0.58,-3.32 -0.41,-0.7 -0.38,-1.53 -0.63,-1.98 -0.25,-0.45 -0.43,-0.18 -0.76,-0.67 -0.24,-0.36 -0.49,-1.41 -0.72,-1.89 -0.46,-0.95 -0.9,-0.03 -1.14,-1.46 -0.21,-1.26 -1.08,-2.98 -1.87,-3.35 -1.05,-0.49 -0.9,-0.21 -1.55,-1.06 -1.34,-1.76 -4.02,-1.34 -5.87,-1.96 -1.67,-0.56 -2.26,-0.76 -4.18,-1.01 -1.51,-0.2 -2.96,-1 -4.41,-0.84 -1.01,0.11 -3.4,1.31 -3.9,1.36 -1.22,0.13 -2.59,-0.35 -3.79,-0.19 -0.71,0.1 -0.27,0.23 -0.78,0.6 -0.72,-0.28 -0.8,-0.6 -1.8,-0.75 -1.05,-0.15 -1.49,0.14 -2.27,-0.45 -0.6,0.71 0.03,0.38 -1.73,0.56 -1.22,0.13 -1.26,-0.16 -2.17,-0.19 -0.28,0.4 -0,0.17 -0.25,0.59 -0.47,-0.12 -0.67,-0.33 -1.31,-0.35 -0.63,-0.02 -1.02,0.18 -1.63,-0.05 -0.39,-0.15 -0.6,-0.38 -1.14,-0.57 -0.37,-0.13 -1.11,-0.26 -1.38,-0.44 -0.12,-0.08 -1.57,-1.72 -1.62,-1.78 -1.44,-1.98 -0.99,-0.56 -2.26,-1.26 -0.31,-0.17 -1.05,-0.9 -2.61,-0.15 -1.22,0.59 -1.58,-0.46 -2.64,-0.38 -1.1,0.09 -0.46,0.96 -2.28,-0.42 -0.58,-0.44 -1.15,-1.21 -1.52,-2 -0.48,0 -10.57,2.36 -10.87,2.68 -0.14,0.15 -1.04,2.97 -1.16,3.41z"/>
 </g>
</svg>
