<?xml version="1.0" encoding="UTF-8"?>
<!DOCTYPE svg PUBLIC "-//W3C//DTD SVG 1.1//EN" "http://www.w3.org/Graphics/SVG/1.1/DTD/svg11.dtd">
<!-- Creator: CorelDRAW 2019 (64 Bit) -->
<svg xmlns="http://www.w3.org/2000/svg" xml:space="preserve" width="9.7368mm" height="9.7368mm" version="1.1" style="shape-rendering:geometricPrecision; text-rendering:geometricPrecision; image-rendering:optimizeQuality; fill-rule:evenodd; clip-rule:evenodd"
viewBox="0 0 2296.97 2296.97"
 xmlns:xlink="http://www.w3.org/1999/xlink"
 xmlns:xodm="http://www.corel.com/coreldraw/odm/2003">
 <defs>
  <style type="text/css">
   <![CDATA[
    .fil1 {fill:#FEFEFE}
    .fil0 {fill:#2B49A0}
   ]]>
  </style>
 </defs>
 <g id="Camada_x0020_1">
  <metadata id="CorelCorpID_0Corel-Layer"/>
  <circle class="fil0" cx="1148.49" cy="1148.49" r="1148.47"/>
  <path class="fil1" d="M1204.56 314.01l-8.12 9.84c-11.68,-5.71 -16.54,0.75 -24.16,5.38l3.77 -18.85c-8.23,-3.26 -21.8,-9.81 -28.24,-9.88 -5.5,6.23 -3.73,6.75 -8.59,12.05 -13.35,0.33 -22.22,-13.66 -20.36,16.11 -14.51,-3.44 -18.52,-2.95 -28.87,2.08 -2.55,-9.11 -0.19,-5.85 -6.25,-11.44l-17.06 6.28 -9.08 -6.09c-7.29,-2.26 -6.25,-1.39 -12.43,1.39 -9.55,-8.45 0.61,-6.77 -13.49,-10.31 -9.25,6.51 -2.12,1.18 -8.12,10.52 -12.43,-6.82 -9.58,-2.59 -17.53,4.67 -8.89,8.12 -5.87,5.26 -12.15,15.07 -17.46,27.39 -20.85,6.96 -29.75,2.26 -11.8,5.17 -15.19,33.03 -29.7,47.82 -11.84,-8.66 -2.76,-5.59 -15.07,-4.32 -7.12,0.75 -13.02,-1.27 -25.24,0.5 -5.31,13.09 6.61,12.95 -6.56,17.67 -16.82,6.06 -4.79,-5.28 -23.92,-6.91l-6.35 8.96c-10.64,11.35 -8.56,-2.45 -17.41,16.58l-13.85 1.98c-4.95,-5 -3.44,-11.84 -13.64,-7.2 -7.41,3.37 -7.62,10.99 -9.15,21.28 -10.05,4.53 -12.08,1.32 -14.25,12.31 -1.7,8.54 0.99,16.84 -3.4,23.92 -8.92,14.39 -26.04,5 -37.51,8.07 -0.33,9.04 1.93,10.66 5.02,16.02 -11.11,2.15 -12.79,5.52 -14.65,6.04 -6.42,1.84 -4.81,-1.98 -18.38,-0.85 -12.72,18.94 -3.4,13.14 -29.68,16.16 -5.64,12.05 -11.84,13.92 -14.56,25.48 -3.37,14.41 -10.59,16.04 -27.11,16.58l-8.42 12.83 -15.83 -2.41c-3.96,5.94 -10.71,16.47 -15.83,22.08 -7.86,8.61 -15.95,7.01 -25.17,14.6 1.13,26.63 26.66,10.57 23.78,32.67 -2.19,16.87 -15.73,-8.82 -42.3,-2.36 -16.11,3.94 -10.66,14.79 -11.51,29.61 -10.17,6.7 -19.18,3.7 -27.48,13.49 -4.27,15 2.85,12.17 -7.38,24.44 -5.99,7.17 -8.35,8.73 -14.58,17.91 -21.21,31.28 -13.66,10.19 -41.38,25.95 -7.38,21.49 4.48,29.13 -14.44,39.59 -19.58,10.83 -9.65,18.75 -18.09,35.93 -16.32,11.82 -25.43,3.8 -44.44,25.93 -18.38,21.42 -0.87,31.64 -22.72,50.13 -12.29,10.4 -8.99,3.14 -15.99,19.27 -10.9,25.01 -26.42,26 -49.75,60.72 -6.23,9.27 -25.08,34.47 -34.51,37.89 -20.41,7.43 -39.07,-1.53 -41.97,32.18 -3.7,42.65 -12.95,17.15 -27.48,44.87 -11.7,22.32 -20.69,22.27 -42.58,29.96 1.39,8.92 8.75,25.81 17.17,30.08 5.94,3 12.31,0.97 18.92,1.16 13.99,0.4 4.1,0.97 15.66,6.94 16.42,-3.23 5.02,-7.64 20.43,-3.92 53.27,12.86 29.46,-26.85 54.94,-44.4l56.78 -4.32c11.42,1.72 9.48,7.69 16.63,15.07 6.42,6.61 14.06,8.09 21.77,13.28 15.81,10.62 2.12,10.59 12.03,20.34 7.27,7.15 9.01,3.52 18.61,16.56 5.94,8.02 10.05,9.55 17.58,14.93 10.92,7.81 7.12,8.47 16.11,18.92 6.94,8.04 18.85,15.22 27.46,21.16 14.86,10.26 24.02,18.26 31.33,36.16 3.44,8.42 -1.23,5.69 6.23,12.76 9.98,9.51 34.44,11.56 28.73,36.68 -3.28,14.34 -8.89,41.28 -4.51,58.27 27.39,8.19 44.02,-0.61 60.84,-15.15 6.72,-5.78 3.49,-4.44 8.45,-10.52 8.73,-10.73 3.11,-3.61 14.01,-7.5 14.81,-5.31 8.28,-12.43 11.16,-29.23 17.69,1.79 45.98,34.87 56.62,48.62 9.2,11.94 3.04,18.12 10.64,27.27 10.05,12.13 6.02,-0.12 14.04,20.85 4.29,11.28 8.52,11.94 18.4,16.91 15.59,7.86 27.2,33.05 39.66,4.58 2.45,2.26 2.12,1.91 4.62,4.79 1.39,1.58 2.67,3.23 3.85,4.72l19.86 17.93c32.96,24.56 18.47,15.38 72.75,21.96 5.85,15.29 7.12,7.69 15.99,16.04 11.16,10.52 12.55,34.14 25.38,44.94 12.43,10.45 73.2,70.75 82.66,70.49 15.5,-0.45 -3.77,-3.33 13.78,-4.18 18.94,20.31 25.48,8.56 34.63,21.47 5.87,8.3 3.63,11.04 12.69,16.99 5.8,3.82 12.86,5.07 19.42,9.51 2.5,17.81 -1.82,14.44 7.93,27.95 12.9,17.91 3.87,35.57 18.45,51.73 7.88,8.75 9.88,15.73 16.14,21.68 6.35,6.04 13.21,7.71 19.77,15.29 14.46,16.63 22.2,18.66 46.4,26.14 11.8,3.66 15.05,8.85 24.46,13.21 10.85,-6.39 26.23,-7.12 36.07,-14.72 14.77,-11.37 2.76,-21.3 19.79,-34.21 13.21,-7.01 47.42,10.31 46.97,-38.05l-16.75 -6.72c4.95,-8.92 19.13,-33.14 29.54,-37.25 -34.63,69.83 27.6,40.95 16.99,107.1 -3.3,20.62 -17.93,30.9 -24.7,48.71 -7.69,20.22 -7.17,41.35 -34.98,41.05 -9.22,-2.31 -24.77,-21.51 -25.74,-29.98 -0.99,-8.61 4.18,-4.84 -1.2,-15.97 -12.79,0.8 -13.19,7.57 -20.19,17.15 -11.91,-2.1 -1.6,-4.91 -18.07,-4.44 -7.05,32.46 -9.79,68.51 -32.04,82.54 -13,-9.08 3.09,-7.34 -13.49,-9.74 -7.6,7.2 -3.94,4.81 -8.16,14.06 -6.72,14.74 -24.82,13.31 -26.63,45.86 -1.25,22.55 12.76,41.99 6.96,64.02 -3.4,12.95 -0.47,4.95 -14.3,9.6 -3.14,11.47 -12.46,32.93 -8.96,44.28 3.73,12.08 7.71,7.83 17.91,10.59 9.67,2.64 4.95,2.93 12.03,13.8 21.77,2.45 28.57,-13.21 39.82,-23.85 11.7,-11.06 20.48,-19.11 32.89,-31.82 12.13,-12.41 20.62,-20.24 33.43,-31.49 34.75,-30.5 69.5,-60.51 90.61,-106.61 14.01,-30.6 29.06,-59.64 35.9,-96.41 6.42,-34.63 32.25,-113.99 56.83,-137.56l23.59 -17.03c7.1,-4.29 10.12,-4.2 15.31,-11.58 60.51,-86.01 53.88,-49.23 142.02,-119.98 6.28,-5.02 10.47,-10.03 16.94,-15.43 6.7,-5.59 9.93,-7.86 17.88,-14.53 12.6,-10.57 22.69,-18.42 34.87,-29.94 20.22,-19.08 45.01,-45.51 61.88,-70.51l28.36 -36.38c20.31,-20.78 62.44,-91.6 78.98,-118.26 49.35,-79.74 54.71,-170.42 93.56,-233.22 8.92,-14.41 14.01,-26.19 22.69,-42.2 8.16,-15.05 15.85,-25.93 23.59,-41.21 10.19,-20.12 51.03,-42.32 10.43,-59.07 -20.41,-8.4 -22.91,-34.14 -50.93,-19.2 -10.19,5.43 -19.96,6.65 -28.24,11.63 2.01,16.42 7.36,7.53 13.68,22.43 -7.15,-4.25 -16.21,-6.72 -22.41,-11.16 0.83,-31.42 -0.61,-29.51 27.41,-32.2l16.82 -34.89c9.7,-20.81 4.79,-24.51 3.68,-46.5 -1.42,-28.21 18.16,-29.3 30.31,-46.19 4.13,-5.73 4.72,-9.91 10.17,-16.75 23.14,3 23.57,-5.57 17.01,-25.38l-13.16 -19.06c-15.55,5.1 -8.68,10.43 -20.03,1.01 -4.06,-3.35 1.79,-4.84 -9.51,-5.92 -15.99,-1.53 -26.63,3 -36.78,5.59 -12.55,3.23 -12.55,-2.83 -20.12,-8.33 -6.53,1.58 -6.79,3.09 -10.8,7.74 -19.84,-12.79 -85,-13.47 -100.35,-24.44 -6.13,-4.39 -10.36,-12.31 -14.08,-18.35l-15.43 -16.8c-8.82,-8.47 -4.13,-12.81 -9.72,-22.91 -5.64,-10.17 -12.81,-7.27 -21.4,-12.57 -4.88,-6.3 -2.22,-30.55 -21.82,-41.38 -10.95,-6.04 -9.44,1.91 -17.27,-12.55 -23.73,-43.97 -28.59,-26.35 -51.71,-42.82 -12.95,-9.22 -14.7,-15.71 -24.18,-24.75 -4.91,-4.67 -3.11,-4.08 -6.7,-9.51 -13.64,-1.51 -12.01,5.54 -23.57,-11.02 -5.8,-8.35 -14.18,-9.06 -29.37,-19.2l-14.06 -5.52c-7.31,-1.13 -10.64,1.77 -17.1,2.08 -22.93,1.13 -10.17,1.72 -22.2,7.5 -5.52,-8.89 0.99,-4.2 -6.75,-9.06 -6.82,-4.29 -6.09,-1.09 -12.34,-6.56 -15.17,-13.26 -2.97,-20.74 -25.6,-31.56 -0.64,-0.31 -1.27,-0.66 -1.96,-0.92l-15.5 -1.7c-5.66,-10.73 -5.97,-8.56 -17.29,-13.54 -6.11,-2.71 2.55,-0.97 -7.01,-2.85 -6.2,5.05 -6.42,7.29 -13.38,10.38 2.67,-5.61 8.21,-13.87 -3.21,-16.63 -16.44,-4.01 -15.38,14.01 -28.19,4.2l-20.05 -11.72 -8.14 9.37c-34.42,-7.71 -21.63,7.76 -54.31,-3.8 -7.31,-2.57 -5.05,-1.51 -11.54,-5.19 -13.47,-7.67 -19.75,-25.95 -30.67,-5.66 -6.23,-5.99 -11.61,-6.56 -17.76,-13.52 -12.13,-13.73 6.42,-10.5 -6.2,-18.33 -10.33,-6.42 -14.58,4.2 -17.08,10.14 -6.84,16.23 -4.06,10.24 -16.37,5.12zm464.31 862.24c11.18,-2.17 12.05,-5.57 23.83,-3.16 2.31,31.05 -13.97,19.53 -28.85,21.49 -39.59,70.98 12.48,115.88 -28.21,105.78 -3.73,-11.75 6.84,-30.36 -7.01,-41.92 -14.23,13.21 5.76,49.19 -1.11,66.88l-22.36 1.51c-13.47,34.8 5.07,36.24 4.79,56.74 -23.54,10.8 -45.53,-2.36 -47.51,27.13 -0.87,12.81 2.81,8.73 0.47,20.1 -92.69,9.77 -14.13,9.34 -68.13,15.52 -4.22,7.27 -0.92,5.71 -4.41,11.47 -3.56,5.83 -5.05,4.86 -10.07,9.08 -2.83,26.35 5.31,42.32 -2.67,64.8 -4.36,2.15 -5.5,1.86 -5.92,2.08 -12.93,6.3 -4.67,6.51 -16.99,13.07 -11.82,6.35 -16.63,4.44 -27.27,12.81 0.31,13.07 7.74,16.73 -5.92,27.01 3.63,1.75 5.05,1.6 8.09,3.68l7.24 6.16c7.24,5.71 10.12,4.74 10.83,17.06 -11.75,5.52 -12.76,-0.09 -25.95,10.38l-0.68 13.09c0.24,0.19 5.21,3.59 6.09,4.13l7.01 3.85c9.11,-10.8 4.03,-12.93 22.72,-13 7.24,10.64 -0.9,5.8 4.29,14.2 4.51,-12.01 -1.06,-11.42 -2.19,-22.67l9.74 -10.17c-7.9,-13.33 -21.33,-17.22 -16.84,-33.88 23.02,-25.81 28.4,18.26 60.58,5.9 4.2,-14.6 -15.22,-17.36 21.73,-17.88 28.8,-0.4 43.55,-41.26 59.64,-59.66 13.14,-15 3.59,-14.41 15.92,-24.46 11.16,3.7 5.97,20.97 31.52,1.58 44.63,-33.85 19.51,-84.81 29.61,-116 10.05,-0.26 12.81,2.15 19.32,1.46 7.97,-0.83 6.46,-3.96 19.37,-3.4 1.56,-10.24 5.26,-14.6 6.82,-23.05 2.83,-15.43 -2.64,-8.61 -3.4,-22.74 13.33,-2.41 11.82,3 22.69,-3.82 6.23,-3.89 7.55,-8.56 16.8,-12.83 17.22,-7.97 21.99,-7.1 27.6,-29.04 12.97,-50.86 -12.81,-89.36 -5.94,-98.07 7.93,-6.39 16.94,-2.62 21.89,6.02 6.79,11.82 -6.68,17.88 10.95,24.11 0,-0.02 10.43,-45.36 8.63,-51.26 -0.17,-0.59 -10.69,-16.44 -20.64,-20.24 -2.71,13.49 7.5,13.85 -4.25,25.67 -11.16,8.21 -12.22,0.9 -22.98,4.53 -13.21,4.46 5.24,8.49 -20.26,6.63 -9.34,-0.68 -13.78,-4.53 -15.52,5.36 -2.93,16.61 5.66,10.07 1.04,25.45 -8.63,0.07 -18.26,-8.33 -33.83,-17.72 -3.04,-20 2.36,-13.28 4.25,-26.99 -34.18,-14.93 -5.4,0.85 -27.39,-6.51 -8.4,-2.81 -6.2,-5.02 -9.86,-9.41 -7.97,-9.6 -0.68,-1.79 -13.52,-8.37 -0.02,-7.57 1.44,-8.87 1.23,-11.13 -0.75,-8.59 0.57,0.71 -3.33,-7.97 -6.39,-14.39 1.18,-8.07 -2.97,-18.02l-2.45 10.07c-6.56,42.23 0.35,22.13 5.54,37.23 4.13,11.96 -12.39,12.24 6.79,12.53 14.65,0.21 11.58,-1.42 11.44,18.85z"/>
 </g>
</svg>
