<?xml version="1.0" encoding="UTF-8"?>
<!DOCTYPE svg PUBLIC "-//W3C//DTD SVG 1.1//EN" "http://www.w3.org/Graphics/SVG/1.1/DTD/svg11.dtd">
<!-- Creator: CorelDRAW 2019 (64 Bit) -->
<svg xmlns="http://www.w3.org/2000/svg" xml:space="preserve" width="9.7368mm" height="9.7368mm" version="1.1" style="shape-rendering:geometricPrecision; text-rendering:geometricPrecision; image-rendering:optimizeQuality; fill-rule:evenodd; clip-rule:evenodd"
viewBox="0 0 359.52 359.52"
 xmlns:xlink="http://www.w3.org/1999/xlink"
 xmlns:xodm="http://www.corel.com/coreldraw/odm/2003">
 <defs>
  <style type="text/css">
   <![CDATA[
    .fil1 {fill:#FEFEFE}
    .fil0 {fill:#2B49A0}
   ]]>
  </style>
 </defs>
 <g id="Camada_x0020_1">
  <metadata id="CorelCorpID_0Corel-Layer"/>
  <circle class="fil0" cx="179.76" cy="179.76" r="179.76"/>
  <path class="fil1" d="M290.94 230.18c8.54,0.99 4.19,1.65 6.9,1.76 6.53,0.27 0.38,-5.21 2.6,-8.03 1.33,-1.16 1.44,0.06 3.53,-1.47 1.88,-1.37 1.67,-0.76 3.79,-0.44 1.46,-2.36 -1.65,-0.44 2.16,-2.62 0.08,-0.05 0.18,-0.09 0.26,-0.15l0.88 -0.93c0.56,-0.33 1.85,0.48 3.02,-0.27 1.03,-0.66 0.14,-1.4 0.38,-3.13 4.86,-0.77 2.24,-1.28 5.03,-2.99 2.08,-0.54 1.54,2.44 6.43,1.22 -0.61,-0.45 -0.72,-0.82 -1.12,-1.16l-0.71 -0.49c-1.06,-0.71 -1.14,-1.21 -2.1,-2.21 -1.04,-1.08 -0.55,0.02 -1.51,-1.41 0.56,-3.28 1.84,-1.97 2.25,-4.3 0.24,-1.36 0.35,-4.28 0.45,-5.71 0.75,-0.53 0.86,-0.44 1.46,-0.86 1.69,-1.18 2.74,-1.37 4.77,-2.26 1.08,-0.47 1.62,-1.34 3.05,-1.58 1.21,-0.2 0.95,0.1 2.14,-0.22 0.88,-0.23 0.88,-0.52 1.63,-0.75 1.74,-0.53 2.3,1.2 6.82,-1.02 2.22,-1.09 1.07,-0.9 1.53,-3.17 0.32,-1.61 0.82,-1.31 2.23,-2.02l-0.89 -2.58c-0.03,-0.06 -0.11,-0.12 -0.13,-0.26 -0.02,-0.14 -0.08,-0.18 -0.13,-0.26 -2.85,0.01 -4.91,-0.23 -7.69,0.48 -7.29,1.84 -7.37,-0.41 -10.51,-4.19 -1.27,-1.54 -1.46,-3.98 -4.04,-3.8 -1.39,0.1 -1.62,1 -2.99,1.4 -4.3,1.25 -6.5,-0.09 -11.58,4.48 -2.99,2.69 -3.56,2.73 -8.3,3.7l-1.01 -2.01c-0.79,0.63 -1.3,1.54 -2.47,1.84 -0.77,0.19 -4.97,-0.28 -6.75,0.2 -0.71,0.19 -1.4,0.95 -2.74,1.33l1.26 0.64c2.74,1.68 0.11,3.99 -1.06,6.02 -1.24,0.18 -1.5,-0.14 -1.94,-0.09 -0.49,0.06 -0.88,0.7 -1.55,0.74 -1.75,-0.58 -1.34,-1.51 -3.36,-0.88 -1.05,0.33 -0.83,0.91 -2.54,1.47 -3.16,1.03 -4.55,1.3 -5.82,-0.89 -2.04,0.64 -3.19,1.51 -5.76,0.77 -2.82,-0.82 -1.94,-2.64 -2.02,-5.35 -1.84,-0.69 -4.05,-1.85 -4.2,-3.89 0.9,-0.91 1.23,-0.99 2.79,-1.39 -0.26,-1.01 -0.28,-1.33 -0.48,-2.25 -0.44,-2.01 -1.9,-1.88 -3.74,-2.94 -2.68,-1.54 0.3,-1.19 -2.46,-2.2 -3.01,-1.11 -2.16,-0.85 -3.39,-3.3 -0.88,-1.74 -2.86,-2.81 0.65,-7.35 0.87,-1.13 1.65,-1.16 1.52,-2.12 -1.22,-1.78 -1.5,0.02 -3.24,-1.93 0.18,-1.63 1.61,-3.01 2.69,-3.91 -0.37,-0.75 -1.17,-2.22 -1.27,-3.19 -0.61,-6.08 0.16,-3 1.23,-6.27 0.37,-1.12 0.28,-1.66 0.74,-2.72 0.9,-1.45 1.85,0.17 3,-3.64 0.58,-1.93 1.15,-3.39 0.51,-5.51 -1.3,-0.55 -1.68,-0.14 -2.84,-0.6 -0.94,-0.37 -0.86,-0.89 -1.89,-1.24 -1.34,-0.45 -0.23,0.42 -2.13,-0.31 -0.76,-0.3 -1.2,-0.81 -2.14,-0.97 -1.89,-0.32 -2.52,1.2 -4.66,1.69 -5.8,1.34 -4.72,-2.12 -5.27,-3.88 -0.23,-0.72 -0.67,-1.56 -1.02,-2.52 -1.28,-3.55 -0.59,-2.02 -2.65,-4.37 -1.31,-1.49 -1.45,-3.46 -1.82,-5.64 -0.52,-3.08 -0.41,-2.36 -2.75,-4.16 -0.2,-2.33 0.74,-4.19 1.8,-5.63 1.08,-1.46 0.41,-0.97 1.09,-2.45 0.61,-1.33 0.72,-0.72 1.66,-1.74 0.38,-5.93 -2.7,-4.96 -5.52,-7.28 -1.72,-1.42 -1.1,-2.14 -0.86,-4.56 0.1,-1.02 0,-1.91 0.32,-2.89 0.78,-2.41 2.62,-2.63 -0.14,-5.55 -3.67,-3.88 -5.83,-1.79 -6.27,-6.31 -0.1,-1.01 -2.37,-0.19 -3.36,0.16 -2.16,0.77 -0.35,0.83 -2.44,1.94 -3.93,0.13 -1,-3.88 -8.98,-2.05 -0.3,3.04 0.35,5.56 -3.63,5.03l-1.01 -2.38c-0.25,1.91 -0.38,2.02 -1.78,3.03 -0.93,0.67 -1.52,1.15 -3.03,0.61 -3.09,-1.12 -3.16,-1.96 -4.28,-4.74 -0.42,0.69 0.07,1.45 0.21,2.13 0.92,4.35 -3.55,1.2 -6.06,1.28 -2.58,0.07 -3.24,0.8 -5.87,0.77 -3.59,-0.04 -2.33,1.45 -5.3,1.08 -1.71,-0.22 -4.45,-0.63 -5.94,0.2 -3.27,2.41 0.07,8.91 -1.61,10.59 -2.58,1.16 -4.7,-0.49 -4.8,-3.54 -0.1,-2.95 1.04,-6.16 -1.11,-7.58 -1.58,0.41 -1.23,0.64 -1.97,2.45 -1.17,2.87 -4.45,6.15 -6.57,1.93 -1.36,-2.72 -3.72,-6.04 -2.44,-9.37 0.64,-1.64 0.69,-0.79 1.95,-1.88 -3.52,-0.82 -2.46,0.87 -6.75,-0.65 -2.53,-0.89 -3.75,-1.97 -6.39,-1.52 -4.37,0.74 -10.08,1.09 -14.71,-0.1 -1.51,-0.39 -1.72,-0.95 -3.05,-1.27 -3.18,-0.76 -7.91,0.6 -10.68,-1.01 -2.04,-1.18 -1.54,-3.78 -5.21,-2.94 -2.22,0.51 -2.26,2.54 -3.97,3.95 -5.18,4.27 -12.09,2.88 -14.58,9.68 -3.6,9.83 -11,6.2 -13.15,10.65 -3.76,7.78 -7.35,7.59 -7.85,8.19 -0.65,1.96 -1.38,3.84 -1.43,5.84 -0.04,1.98 0.14,5.4 -0.14,7.11 -1.57,0.73 -3.59,1.28 -4.94,2.44 -1.35,1.95 1.54,2.49 -4.02,5.66 -0.39,4.66 2.8,6.08 -0.97,9.66 -1.66,1.58 -1.22,1.89 -2.39,3.85 -1.27,2.12 -2.03,1.31 -4.48,1.43 -2.16,3.81 -0.23,3.07 1.28,5.44 0.16,4.05 -3.23,3.18 -4.79,5.47 -0.85,1.26 -0.57,2.49 -1.44,3.66 -0.68,0.92 -1.86,1.28 -2.71,1.98 -1.23,1.01 -2.33,5.1 -3.06,7.09 -0.85,2.32 -5.65,5.92 -7.94,6.89 -1.95,0.82 -4.5,2.84 -6.44,3.76 -0.91,0.44 -2.77,0.75 -3.5,1.21 -1.53,0.97 -0.25,1.26 -2.57,2.5 -1.15,0.62 -2.74,0.89 -3.41,1.27 -1.33,0.75 -0.49,1.34 -2.46,2.64 -1.11,0.73 -1.66,1.01 -1.58,2.89 1.21,-0.53 1.83,-1.64 3.44,-2.24 2.03,-0.77 2.76,-0.2 4.46,0.26 6.6,1.81 8.65,-0.35 9.37,-0.54 2.12,-0.56 2.57,0.9 3.74,1.41 0.88,0.38 2.99,-0.17 4.6,0.11 3.83,0.68 2.02,-0.35 4.29,-0.28 1.45,0.04 2.91,1.11 4.02,1.54 1.94,-2.16 0.62,-5.26 5.46,-4.59 3.81,0.53 4.21,3.25 6.31,3.62 1.96,0.34 2.9,-0.71 4.59,0.49 2.1,1.48 -0.42,1.11 2.81,1.16 3.37,0.05 2.65,2.53 7.46,0.41 2.79,-1.23 5.61,-0.14 7.71,1.16 1.36,0.84 1.7,1.42 3.08,1.98 3.3,1.34 8.53,1.5 11.56,2.91 2.88,1.34 2.46,3.28 4.18,5.25 2.35,0.23 2.74,-1.45 7.23,-0.56 6.3,1.25 4.3,-0.42 6.45,-0.68 2.61,0.37 1.64,1.57 3.66,1.29 2.38,-0.32 1.58,0.08 3.81,0.15 3.09,0.1 5.8,-2.13 8.54,-1.71 1.28,2.36 -0.48,1.35 1.65,2.99 1.2,0.92 0.45,-0.24 1.03,1.3l0.35 1.23c0.02,-0.05 0.05,0.21 0.1,0.3 1.03,0.69 4.86,1.68 5.86,2.3l2.7 3.99c1.22,2.1 1.09,2.56 1.64,5.01 0.61,2.66 2.43,1.6 1.68,4.43 -0.85,3.2 -1.19,1.55 -0.4,4.96 -1.24,1.35 -1.78,1.11 -0.61,3.6 1.91,4.07 2.53,1.38 1.81,6.99 -0.32,2.51 -0.54,1.41 -1.34,3.2 1.49,0.62 2.77,1.75 3.43,3.18 1.13,2.47 2.28,3.95 4.67,5.42 2.73,1.69 1.28,5.31 3.92,8.66 1.29,1.64 2.42,0.82 1.76,3.4l-0.24 0.96c-0.56,2.2 -1.13,1.26 -1.37,3.29 -0.11,0.93 -0.14,1.73 -0.72,2.41l-0.82 0.71c0.86,1.98 0.51,1.5 0.59,4.04 2.1,0.55 1.8,0.89 4.25,0.49 2.2,-0.35 2.29,0.26 4.47,0.04 0.64,-1.25 -0.1,-0.89 0.88,-2.07 2.07,0.32 1.44,1.71 4.22,1.61 2.87,-0.1 2,-1.07 4.35,0.16 2.65,1.4 2.92,0.07 4.64,0.16 1.96,0.1 -0.37,0.54 1.68,0.31 3.67,-0.41 1.31,-0.21 3.96,1.4 0.75,0.46 1.55,0.65 2.1,0.96 0.14,2.27 -0.93,2.81 -2,3.86 -0,1.99 -0.1,4.24 -0.71,6.16 -0.46,1.44 -2.38,2.44 1.24,3.74 0.3,-0.28 0.6,-0.42 0.97,-1.17 1.16,-2.37 -0.06,-0.97 2.08,-3.68 2.03,0.17 3.06,0.97 4.29,1.78 0.98,0.64 3.56,0.39 4.1,0.96 2.29,2.45 -0.21,9.65 5.09,8.34 0.85,-0.21 5.03,1.11 6.72,-5.79 -5.96,2.05 -8.47,-2.09 -4.34,-3.22 3.69,-1.01 1.41,3.79 7.56,-2.55 9.25,-9.53 11.16,-8.98 21.2,-15.55l5.68 -4.91c1.38,-1.45 0.63,-1.03 2.81,-1.1 1.2,-6.9 3.99,-7.23 9.61,-10.28 2.29,-1.24 4.24,-2.58 6.43,-3.71l6.47 -3.41c-0.76,-1.97 -1.1,-0.88 -1.52,-2.71 1.49,-1.14 0.73,0.34 2.06,-0.93 0.66,-0.63 0.2,-0.73 0.94,-1.72 1.96,0.1 1.28,0.46 2.46,1.29 1.45,1.02 1.57,1.77 2.61,3.53 1.02,-0.29 1.51,-0.69 2.51,-0.08 0.47,-2 0.19,-1.56 1.09,-3.2l0.57 -1.88c0.35,-1.37 2.49,-1.32 3.61,-1.71 1.37,-0.47 2.43,-1.65 4.47,-2.21 2.17,-0.6 7.84,-0.55 9.25,0.67z"/>
 </g>
</svg>
