<?xml version="1.0" encoding="UTF-8"?>
<!DOCTYPE svg PUBLIC "-//W3C//DTD SVG 1.1//EN" "http://www.w3.org/Graphics/SVG/1.1/DTD/svg11.dtd">
<!-- Creator: CorelDRAW 2019 (64 Bit) -->
<svg xmlns="http://www.w3.org/2000/svg" xml:space="preserve" width="58.816mm" height="37.0619mm" version="1.1" style="shape-rendering:geometricPrecision; text-rendering:geometricPrecision; image-rendering:optimizeQuality; fill-rule:evenodd; clip-rule:evenodd"
viewBox="0 0 5602.56 3530.36"
 xmlns:xlink="http://www.w3.org/1999/xlink"
 xmlns:xodm="http://www.corel.com/coreldraw/odm/2003">
 <defs>
  <style type="text/css">
   <![CDATA[
    .fil0 {fill:#FEFEFE}
    .fil1 {fill:#0A4192}
    .fil2 {fill:#FEFEFE;fill-rule:nonzero}
   ]]>
  </style>
 </defs>
 <g id="Camada_x0020_1">
  <metadata id="CorelCorpID_0Corel-Layer"/>
  <g id="_2507864901728">
   <path class="fil0" d="M511.22 1368.46l510.42 0c280.76,0 510.45,229.7 510.45,510.43l0 0.01c0,280.72 -229.69,510.4 -510.45,510.4 -280.75,0 -510.42,-229.68 -510.42,-510.4l0 -510.44zm-511.22 450.93l0 0c0,187.83 22.68,311.53 77.29,445.75 70.32,172.81 202.3,322.15 349.59,433.15 24.07,18.14 52.68,36.96 79.01,52.65 85.6,50.96 183.14,91.23 282.05,112.98 162.87,35.86 301.99,34.61 463.91,2.5 133.94,-26.6 240.01,-79.12 351.66,-153.09 24.29,-16.12 49.59,-34.78 70.74,-53.64 97.03,-86.49 200.28,-187.91 259.45,-307.47 23.71,-47.98 41.15,-76.65 59.29,-130.92 11.31,-33.88 20.58,-62.09 29.67,-98.33 41.35,-164.32 39.64,-372.66 -10.53,-534.46l-32.3 -92.04c-6.87,-17.22 -12.74,-28.13 -19.31,-42.88 -50.47,-113.52 -86.24,-145.48 -147.89,-225.18l-60.09 -64.27c-14.02,-11.11 -19.92,-16.85 -32.52,-29.64 -11.16,-11.3 -21.13,-18.72 -33.04,-29.15 -167.89,-146.75 -408.19,-236.9 -633.58,-236.9l-530.35 0c0,-72.4 -4.74,-109.77 -28.75,-176.09 -4.07,-11.18 -11.93,-30.43 -17.58,-40.93 -99.57,-185.15 -264.96,-254.84 -476.72,-254.84l0 1422.81z"/>
   <path class="fil0" d="M3529.57 1907.17c0,168.47 62.89,366.48 139.66,485.79 54.63,84.84 96.35,135.33 168.45,208.28 12.18,12.31 21.09,17.07 33.02,29.19 23.95,24.28 74.54,62.76 103.62,82.91 25.8,17.89 48.71,31.96 76.16,48.19 145.36,85.95 334.16,129.52 503.24,129.52 222.5,0 398.27,-60.18 575.73,-177.72 34.61,-22.96 108.07,-83.23 138.43,-113.95 42.13,-42.61 79.48,-84.97 115.57,-133.11 38.84,-51.73 65.48,-96.96 95.65,-156.76 50.8,-100.61 95.1,-258.16 95.1,-409.66l0 -1031.4c-61.52,0 -105.63,2.36 -162.43,16.77 -22.32,5.68 -39.52,9.6 -59.66,17.17 -128.67,48.25 -231.29,145.97 -274.88,277.4 -32.33,97.36 -26.06,185.63 -26.06,288.47 0,63.56 2.86,437.66 -0.95,467.22 -12.89,99.33 -38.45,160.48 -84.63,229.94 -83.06,124.93 -220.09,224.56 -419.19,224.56 -98.98,0 -180.5,-29.59 -243.54,-67.34 -96.22,-57.62 -174.12,-151.37 -216.82,-255 -42.14,-102.29 -33.4,-176.78 -33.4,-281.17 0,-114.85 7.56,-448.17 -8.86,-539.79 -24.33,-135.79 -112.07,-258.18 -233.77,-318.53 -90.77,-45 -173.29,-59.71 -280.42,-59.71l0 1038.73z"/>
   <path class="fil0" d="M2139.7 1885.23c0,158.81 34.95,299.84 84.17,409.6 45.16,100.68 125.84,215.57 203.81,293.62l64.71 59.68c24.61,19.14 43.36,37.05 69.41,54.93 92.89,63.73 96.3,66.18 197.28,113.61 35.11,16.52 100.99,36.37 139.26,47.27 31.9,9.1 69.12,15.62 103.89,20.48 34.94,4.87 73.3,10.3 114.05,10.3l669.31 0c0,-140.83 -28.46,-268.1 -125.26,-364.85 -245.38,-245.2 -446.16,-49.76 -718.42,-184.99 -110.42,-54.86 -194.94,-152.22 -243.64,-264.77 -47.63,-110.11 -35.52,-235.01 -35.52,-359.45 0,-142.65 7.34,-315.55 -3.78,-449.79 -5.17,-62.64 -29.9,-127.23 -55.9,-170.88 -39.53,-66.36 -101.81,-133.64 -170.73,-169.43 -92.08,-47.83 -178.99,-65.78 -292.65,-65.78l0 1020.46z"/>
   <path class="fil1" d="M2816.34 2887.42c0.37,0.33 1.08,-1.62 1.08,-1.1 -0.05,0.05 -1.45,0.71 -1.08,1.1z"/>
   <path class="fil2" d="M256.45 3436.25l46.16 0 -113.82 -316.34 -46.6 0 -113.82 316.34 45.71 0 31.35 -90.97 119.19 0 31.82 90.97zm-90.52 -272.89c0,0 6.73,28.68 12.11,44.82l34.95 100.36 -95.89 0 35.41 -100.36c5.36,-16.14 12.54,-44.82 12.54,-44.82l0.9 0zm155.95 245.1c0,0 30.47,33.17 86.03,33.17 49.73,0 82.01,-28.23 82.01,-65.88 0,-74.38 -116.51,-65.41 -116.51,-106.18 0,-19.72 18.37,-27.79 37.19,-27.79 35.84,0 56.01,20.17 56.01,20.17l17.47 -32.72c0,0 -23.29,-25.09 -73.03,-25.09 -45.26,0 -82,23.31 -82,64.53 0,73.94 116.51,65.41 116.51,107.09 0,18.37 -18.82,28.24 -37.65,28.24 -39.44,0 -64.97,-26.44 -64.97,-26.44l-21.05 30.91zm200.73 0c0,0 30.47,33.17 86.03,33.17 49.72,0 82,-28.23 82,-65.88 0,-74.38 -116.5,-65.41 -116.5,-106.18 0,-19.72 18.37,-27.79 37.19,-27.79 35.84,0 56.01,20.17 56.01,20.17l17.47 -32.72c0,0 -23.29,-25.09 -73.03,-25.09 -45.26,0 -82,23.31 -82,64.53 0,73.94 116.51,65.41 116.51,107.09 0,18.37 -18.82,28.24 -37.65,28.24 -39.44,0 -64.97,-26.44 -64.97,-26.44l-21.06 30.91zm218.66 -244.2l43.91 0 0 -44.36 -43.91 0 0 44.36zm0.45 271.98l43.47 0 0 -226.73 -43.47 0 0 226.73zm111.57 0l43.47 0 0 -106.2c0,-11.2 0.9,-21.51 3.58,-30.45 9.42,-32.73 37.19,-55.58 71.7,-55.58 36.28,0 43.02,25.11 43.02,56.92l0 135.32 43.47 0 0 -145.18c0,-57.81 -24.64,-86.93 -77.97,-86.93 -49.29,0 -76.19,32.27 -85.13,51.98l-0.9 0c0,0 0.9,-7.62 0.9,-16.57l0 -30.02 -42.13 0 0 226.73zm251.84 -63.63c0,45.27 38.08,69.01 77.06,69.01 54.23,0 72.59,-44.81 72.59,-44.81l0.89 0c0,0 -0.89,7.62 -0.89,17.93l0 21.5 40.33 0 0 -143.39c0,-57.34 -32.26,-88.72 -89.62,-88.72 -51.98,0 -84.69,26.89 -84.69,26.89l17.93 31.81c0,0 28.22,-21.96 63.17,-21.96 28.67,0 49.74,12.55 49.74,49.74l0 4.04 -9.87 0c-38.08,0 -136.65,3.13 -136.65,77.96zm43.9 -2.23c0,-40.78 59.14,-43.03 91.86,-43.03l11.2 0 0 7.17c0,33.61 -23.74,72.15 -60.48,72.15 -28.24,0 -42.58,-17.93 -42.58,-36.29zm219.11 -17.04c0,75.74 57.81,84.7 86.94,84.7 8.96,0 15.23,-0.9 15.23,-0.9l0 -38.54c0,0 -4.03,0.9 -10.3,0.9 -16.58,0 -48.4,-5.83 -48.4,-51.08l0 -100.82 54.67 0 0 -34.96 -54.67 0 0 -65.43 -42.12 0 0 65.43 -30.92 0 0 34.96 29.57 0 0 105.73zm147.88 1.35c0,60.05 26.43,86.93 77.51,86.93 44.36,0 73.94,-29.59 83.35,-51.99l0.89 0c0,0 -0.89,7.18 -0.89,16.58l0 30.02 42.11 0 0 -226.73 -43.46 0 0 106.19c0,44.81 -27.34,85.58 -73.48,85.58 -36.31,0 -42.58,-25.08 -42.58,-56.46l0 -135.31 -43.46 0 0 145.18zm271.09 81.55l43.46 0 0 -92.75c0,-13.89 1.35,-27.79 5.38,-40.77 10.31,-33.61 35.84,-53.33 63.63,-53.33 6.72,0 12.54,1.35 12.54,1.35l0 -43.03c0,0 -5.37,-0.9 -11.2,-0.9 -34.94,0 -61.38,25.99 -71.68,59.16l-0.9 0c0,0 0.9,-7.62 0.9,-17.04l0 -39.43 -42.12 0 0 226.73zm149.66 -63.63c0,45.27 38.09,69.01 77.06,69.01 54.23,0 72.6,-44.81 72.6,-44.81l0.89 0c0,0 -0.89,7.62 -0.89,17.93l0 21.5 40.32 0 0 -143.39c0,-57.34 -32.25,-88.72 -89.62,-88.72 -51.98,0 -84.68,26.89 -84.68,26.89l17.92 31.81c0,0 28.22,-21.96 63.18,-21.96 28.67,0 49.74,12.55 49.74,49.74l0 4.04 -9.87 0c-38.09,0 -136.66,3.13 -136.66,77.96zm43.91 -2.23c0,-40.78 59.14,-43.03 91.85,-43.03l11.2 0 0 7.17c0,33.61 -23.74,72.15 -60.48,72.15 -28.23,0 -42.57,-17.93 -42.57,-36.29zm311.42 -47.51c0,70.37 38.54,118.76 99.92,118.76 56.01,0 74.39,-42.12 74.39,-42.12l0.9 0c0,0 -0.45,6.27 -0.45,15.24l0 21.5 41.23 0 0 -316.34 -43.47 0 0 104.86c0,8.5 0.89,15.23 0.89,15.23l-0.89 0c0,0 -17.48,-35.85 -69.91,-35.85 -60.05,0 -102.61,46.61 -102.61,118.74zm44.36 0c0,-51.52 29.58,-81.09 65.41,-81.09 43.03,0 64.08,40.32 64.08,80.64 0,57.81 -31.81,81.57 -65.41,81.57 -37.64,0 -64.08,-31.82 -64.08,-81.12zm224.04 0c0,67.21 48.85,118.76 120.09,118.76 54.22,0 87.83,-32.27 87.83,-32.27l-17.93 -31.81c0,0 -28.21,26.44 -67.21,26.44 -40.32,0 -75.73,-25.11 -77.97,-74.83l165.35 0c0,0 1.33,-13 1.33,-18.82 0,-58.71 -34.04,-106.2 -98.12,-106.2 -64.53,0 -113.37,46.61 -113.37,118.74zm46.16 -26.43c6.27,-37.19 33.16,-57.79 66.32,-57.79 29.12,0 53.32,18.81 54.66,57.79l-120.97 0zm530.97 139.81l46.15 0 -113.82 -316.34 -46.59 0 -113.82 316.34 45.7 0 31.36 -90.97 119.19 0 31.82 90.97zm-90.52 -272.89c0,0 6.72,28.68 12.11,44.82l34.95 100.36 -95.89 0 35.41 -100.36c5.36,-16.14 12.54,-44.82 12.54,-44.82l0.9 0zm-20.16 -65.41l36.29 0 43.01 -56.91 -46.59 0 -32.71 56.91zm214.63 379.53l-14.34 34.05c21.95,11.2 50.19,18.82 77.53,18.82 57.34,0 114.26,-28.69 114.26,-103.5l0 -217.33 -41.67 0 0 21.06c0,4.03 0.45,7.16 0.45,7.16l-0.9 0c0,0 -16.56,-33.61 -71.24,-33.61 -62.74,0 -99.02,48.39 -99.02,113.37 0,65.41 38.08,116.05 101.27,116.05 32.71,0 53.76,-13 67.21,-35.41l0.89 0c0,0 -0.44,7.17 -0.44,14.34l0 16.59c0,46.15 -32.27,63.62 -71.7,63.62 -34.05,0 -62.29,-15.23 -62.29,-15.23zm74.83 -81.55c-40.78,0 -65.87,-32.27 -65.87,-79.32 0,-46.15 22.4,-74.82 61.85,-74.82 35.39,0 64.06,17.03 64.06,76.18 0,59.14 -28.67,77.97 -60.04,77.97zm167.59 -41.23c0,60.05 26.44,86.93 77.52,86.93 44.35,0 73.93,-29.59 83.35,-51.99l0.89 0c0,0 -0.89,7.18 -0.89,16.58l0 30.02 42.1 0 0 -226.73 -43.46 0 0 106.19c0,44.81 -27.34,85.58 -73.48,85.58 -36.31,0 -42.58,-25.08 -42.58,-56.46l0 -135.31 -43.46 0 0 145.18zm252.71 17.92c0,45.27 38.09,69.01 77.07,69.01 54.22,0 72.59,-44.81 72.59,-44.81l0.89 0c0,0 -0.89,7.62 -0.89,17.93l0 21.5 40.32 0 0 -143.39c0,-57.34 -32.25,-88.72 -89.62,-88.72 -51.97,0 -84.68,26.89 -84.68,26.89l17.92 31.81c0,0 28.22,-21.96 63.18,-21.96 28.67,0 49.74,12.55 49.74,49.74l0 4.04 -9.87 0c-38.09,0 -136.66,3.13 -136.66,77.96zm43.91 -2.23c0,-40.78 59.14,-43.03 91.85,-43.03l11.21 0 0 7.17c0,33.61 -23.75,72.15 -60.49,72.15 -28.23,0 -42.57,-17.93 -42.57,-36.29zm325.31 65.86l44.36 0 15.24 -199.4c1.34,-19.26 0.9,-47.49 0.9,-47.49l0.9 0c0,0 9.85,30.47 17.01,47.49l62.74 142.49 39.44 0 63.18 -142.49c7.62,-17.47 17.02,-46.6 17.02,-46.6l0.9 0c0,0 -0.9,27.34 0.45,46.6l15.69 199.4 43.91 0 -25.54 -316.34 -46.61 0 -72.58 171.16c-7.16,17.47 -15.69,42.56 -15.69,42.56l-0.9 0c0,0 -8.52,-25.09 -15.69,-42.56l-72.58 -171.16 -46.61 0 -25.54 316.34zm388.49 -271.98l43.91 0 0 -44.36 -43.91 0 0 44.36zm0.46 271.98l43.46 0 0 -226.73 -43.46 0 0 226.73zm111.57 0l43.46 0 0 -106.2c0,-11.2 0.9,-21.51 3.58,-30.45 9.42,-32.73 37.19,-55.58 71.7,-55.58 36.29,0 43.03,25.11 43.03,56.92l0 135.32 43.46 0 0 -145.18c0,-57.81 -24.64,-86.93 -77.97,-86.93 -49.29,0 -76.18,32.27 -85.13,51.98l-0.9 0c0,0 0.9,-7.62 0.9,-16.57l0 -30.02 -42.12 0 0 226.73zm254.51 -113.37c0,67.21 48.84,118.76 120.09,118.76 54.21,0 87.82,-32.27 87.82,-32.27l-17.92 -31.81c0,0 -28.22,26.44 -67.21,26.44 -40.33,0 -75.74,-25.11 -77.97,-74.83l165.34 0c0,0 1.33,-13 1.33,-18.82 0,-58.71 -34.03,-106.2 -98.11,-106.2 -64.54,0 -113.37,46.61 -113.37,118.74zm46.16 -26.43c6.27,-37.19 33.15,-57.79 66.31,-57.79 29.12,0 53.32,18.81 54.66,57.79l-120.97 0zm218.2 139.81l43.47 0 0 -92.75c0,-13.89 1.34,-27.79 5.38,-40.77 10.3,-33.61 35.84,-53.33 63.63,-53.33 6.72,0 12.54,1.35 12.54,1.35l0 -43.03c0,0 -5.37,-0.9 -11.2,-0.9 -34.94,0 -61.38,25.99 -71.69,59.16l-0.9 0c0,0 0.9,-7.62 0.9,-17.04l0 -39.43 -42.12 0 0 226.73zm149.67 -63.63c0,45.27 38.09,69.01 77.06,69.01 54.23,0 72.59,-44.81 72.59,-44.81l0.89 0c0,0 -0.89,7.62 -0.89,17.93l0 21.5 40.33 0 0 -143.39c0,-57.34 -32.26,-88.72 -89.62,-88.72 -51.98,0 -84.68,26.89 -84.68,26.89l17.92 31.81c0,0 28.22,-21.96 63.17,-21.96 28.67,0 49.74,12.55 49.74,49.74l0 4.04 -9.87 0c-38.08,0 -136.65,3.13 -136.65,77.96zm43.9 -2.23c0,-40.78 59.14,-43.03 91.86,-43.03l11.2 0 0 7.17c0,33.61 -23.74,72.15 -60.48,72.15 -28.24,0 -42.58,-17.93 -42.58,-36.29zm208.37 4.03c0,56.9 36.29,63.63 60.94,63.63 7.62,0 14.34,-0.9 14.34,-0.9l0 -38.54c0,0 -3.58,0.45 -7.62,0.45 -13.43,0 -24.19,-4.93 -24.19,-32.25l0 -246.9 -43.47 0 0 254.51z"/>
   <path class="fil2" d="M4574.85 0c46,46.41 92,92.81 138,139.23 -10.43,7.73 -17.56,1.66 -24.69,-6.24 9.89,21.33 39.33,34.13 26.42,64.24 -8.6,3.27 -15.36,-0.77 -22.02,-5.43 -38.81,-52.62 -87,-92.72 -149.64,-114.54 -11.59,-4.03 -28.18,-9.35 -17.41,-28.86 13.73,-16.12 27.45,-32.25 41.18,-48.39 2.71,0 5.45,0 8.16,0z"/>
   <path class="fil2" d="M5082.44 644.3c14.65,58.62 11.91,118.35 2.97,176.58 -20.65,134.66 -90.38,241.49 -194.71,327.95 -73.17,60.64 -155.5,96.43 -249.31,111.23 -66.75,10.53 -132.62,11.48 -198.22,-1.62 -45.63,-9.12 -91.91,-19.06 -130.61,-48.14 -2.46,-10.13 -11.53,-13.62 -18.71,-19.28 -11.65,-9.16 -15.68,-18.75 1.71,-26.56 44.5,12.2 78.71,45.94 125.38,55.42 175.46,35.62 333.67,7.02 469.8,-115.86 56.29,-50.82 101.24,-109.12 130.61,-179.27 36.55,-87.24 41.84,-175.39 11.34,-265.6 -5.17,-15.32 -15.91,-33.4 3.53,-47.96 31.59,12.41 29.89,43.5 34.66,68.29 6,31.24 10.23,63.61 5.87,95.95 3.91,-31.45 -2.41,-62.52 -3.95,-93.75 -0.69,-13.82 -2.39,-27.16 9.65,-37.37z"/>
   <path class="fil2" d="M4912.08 342.24c84.6,71.14 146.09,156.26 162.34,268.7 2.73,8.92 8.1,21.02 -2.17,25.28 -12.91,5.35 -12.83,-9.59 -16.53,-17.2 -32.72,-67.32 -72.16,-129.92 -126.74,-182.04 -17.05,-16.26 -28.35,-36.16 -35.04,-58.77 0.15,-14.95 -6.75,-33.53 18.13,-35.96z"/>
   <path class="fil2" d="M4280.28 301.41c26.69,-51.41 71.84,-85.6 114.2,-122.4 44.78,-17.65 89.4,-35.13 139.41,-25.92 17.72,3.26 34.21,6.58 43.1,24.4 1.26,4.22 0.76,8.25 -1.44,12.06 -9.68,7.36 -20.38,5.08 -31.15,3.44 -85.15,-13.07 -148.48,24.51 -203.03,85.43 -36.54,40.83 -65.42,85.62 -83.96,137.18 -4.17,11.58 -11.23,21.57 -20.79,29.63 -7.09,4.82 -14.24,9.44 -23.15,4.2 1.84,-58.55 29.04,-105.68 66.8,-148.03z"/>
   <path class="fil2" d="M4288.7 1169.08c-3.86,20.58 33.3,17.41 23.86,41.21 -31.76,-19.81 -67.82,-33.47 -91.96,-64.2 -40.99,-55.71 -77.03,-113.8 -99.89,-179.94 -9,-26.05 -12.27,-52.48 -17.62,-78.87 -4.12,-20.3 -14.3,-37.89 -27.83,-53.55 -2.33,-3.4 -4.08,-7.07 -5.47,-10.94 -2.63,-10.44 -2.65,-20.52 4.28,-29.59 18.85,-5.32 22.89,13.4 33.96,20.78 20.41,19.48 31.2,43.29 35.05,71.33 12.97,94.11 55.96,174.09 117.56,245.03 10.5,12.09 25.1,21.22 28.06,38.75z"/>
   <path class="fil2" d="M4901.89 384.24c29.28,43.45 72.49,76.3 100.09,119.38 25.39,39.65 57.45,77.79 70.25,126.61 0.73,-6.43 1.46,-12.86 2.2,-19.3 10.11,9.34 6.81,21.89 8.02,33.36 0,46.6 0,93.21 0,139.8 -6.38,-50.03 -18.97,-97.76 -32.78,-145.4 -3.19,-11.06 -5.94,-20.55 -16.96,-25.56 -36.69,-62.37 -79.96,-119.61 -132.06,-170.02 -5.83,-5.65 -7.55,-14.07 -8.56,-22.23 -0.63,-13.26 -1.33,-26.55 9.8,-36.64z"/>
   <path class="fil2" d="M4076.16 825.72c27.79,13.95 35.24,41.79 39.18,67.65 12.47,81.93 44.79,154.16 94.65,219.81 5.96,7.84 24.45,16.7 10.61,32.9 -37.93,-30.56 -74.93,-61.95 -96.24,-107.39 -25.13,-57.04 -38.02,-117.35 -48.19,-178.43 -1.92,-11.62 -9.35,-22.99 -0.01,-34.54z"/>
   <path class="fil2" d="M4280.28 301.41c-22.49,49.09 -51.49,95.32 -65.16,148.27 13.81,26.13 2,51.41 -2.53,76.9 -14.43,-6.06 -27.92,7.75 -42.43,2.14 -19.87,-51.9 9.55,-97.09 19.65,-144.9 27.45,-30.44 51.69,-64.4 90.47,-82.41z"/>
   <path class="fil2" d="M4076.16 825.72c26.36,63.09 17.74,136.08 55.48,196.09 3.84,6.11 -1.08,12.81 -7.28,16.88 -52.1,-66.59 -80.77,-141.69 -82.5,-226.61 -1.45,-3.75 -1.54,-7.5 -0.11,-11.27 22,-6.25 23.39,15.99 34.42,24.91z"/>
   <path class="fil2" d="M4435.12 138.83c10.62,-16.89 22.63,-32.42 41.25,-41.34 71.48,-10.17 123.62,27.69 173.56,70.43 8.41,7.2 13.95,16.73 8.6,28.79 -7.09,6.91 -15.76,8.1 -25.07,7.05 -9.12,-1.62 -16.91,-6.02 -24.16,-11.55 -35.12,-33.3 -77.18,-45.7 -124.96,-42.87 -16.97,1.01 -35.14,3.74 -49.22,-10.5z"/>
   <path class="fil2" d="M4713.83 196.22c0.29,-26.47 -26.78,-39.18 -33.18,-64.19 14,-8.42 20.81,10.94 32.2,7.2 15.01,12.14 32.49,21.91 39.65,41.55 9.07,38.34 32.64,71.08 42.27,109.27 3.26,15.01 4.68,29.84 -4.28,43.64 -9.18,7.33 -15.9,1.54 -22.63,-4.23 -24.17,-36.98 -28.4,-83.52 -56.64,-118.71 -3.51,-4.38 -1.25,-10.18 2.61,-14.53z"/>
   <path class="fil2" d="M4656.61 196.22c-33.86,-54.71 -88.03,-76.39 -147.03,-89.68 -11.25,-2.53 -24.51,2.88 -33.22,-9.05 8.73,-13.17 18.34,-25.5 32.75,-33.04 10.4,6.24 17.84,17.88 30.51,19.63 66.26,9.14 107.68,53.77 146.92,101.71 4.32,5.29 9.46,9.77 14.5,14.36 7.55,13.49 22.04,24.45 15.71,43 -24.76,9.56 -31.99,-13.4 -45.67,-24.48 -5.22,-7.2 -11.42,-13.82 -14.48,-22.45z"/>
   <path class="fil2" d="M4697.47 204.4c-16.73,-9.79 -27.41,-25.78 -40.81,-39.03 -32.34,-31.93 -62.86,-66.73 -114.24,-69.32 -15.93,-0.8 -36.58,-6.08 -33.3,-31.62 2.33,-8.54 7.95,-13.74 16.39,-16.05 7.32,25.99 33.18,24.01 51.24,32.16 51.87,23.4 92.35,58.34 120.77,107.48 4.52,5.46 5.22,10.93 -0.05,16.37z"/>
   <path class="fil2" d="M4435.12 138.83c47.56,1.17 96.02,-6.15 141,17.54 15.5,8.16 31.62,14.57 39.64,31.66 -16.35,10.88 -28.7,1.75 -40.9,-8.15 -41.66,-26.17 -85.22,-21.92 -129.72,-8.91 -16.39,4.79 -31.15,22.2 -50.66,8.06 10.92,-16.07 24.01,-29.93 40.65,-40.2z"/>
   <path class="fil2" d="M4044.58 678.48c0.58,-16.57 -7.02,-34.32 6.97,-48.99 21.44,-10.1 27.87,6.01 34.75,20.37 7.43,15.49 8.09,33.68 18.71,47.95 12.37,31.13 34.31,57.72 43.38,90.48 -0.03,4.09 -0.77,8.02 -2.13,11.88 -2.85,5.65 -7.17,9.7 -13.05,11.99 -4.04,0.49 -7.75,-0.5 -11.15,-2.65 -32.92,-39.46 -46.55,-90.36 -77.47,-131.03z"/>
   <path class="fil2" d="M4133.04 456.74c-0.37,-11.7 4.59,-19.91 15.79,-24.02 19.64,1.9 18.08,16.56 17.35,29.89 -2.52,45.95 4.75,91.66 3.28,137.56 0.24,15.5 1.05,31.1 -8.89,44.55 -4.52,3.48 -9.17,3.67 -14,0.63 -31.81,-60.9 -32.98,-124.01 -13.53,-188.61z"/>
   <path class="fil2" d="M4157.93 604.96c-0.01,-44.83 0.26,-89.65 -0.19,-134.45 -0.12,-13.04 4.31,-27.63 -8.91,-37.79 4.72,-23.79 23.64,-35.68 40.97,-48.9 12.79,18.08 3.49,38.59 -2.99,52.37 -14.76,31.47 -11.77,63.14 -12.54,95.23 14.38,15.99 11.19,34.42 7.43,52.96 -4.82,10.41 -8.39,22.36 -23.78,20.58z"/>
   <path class="fil2" d="M4044.58 678.48c6.11,-2.47 12.21,-5.82 16.57,2.89 21.29,42.66 42.71,85.28 64.09,127.9 -6.58,6.78 -14.14,7.64 -22.45,3.71 -21.43,-23.93 -38.83,-50.32 -50.56,-86.41 1.12,18.68 2.03,32.29 1.77,45.95 -0.54,10.58 -0.8,21.21 -9.26,29.22 -0.96,3.45 -1.91,6.9 -2.88,10.34 -14.41,-44.85 -6.12,-89.24 2.71,-133.61z"/>
   <path class="fil2" d="M4787.32 286.16c-13.08,-34.63 -45.16,-63 -34.83,-105.38 16.53,18.8 44.1,26.95 51.96,54.08 11.74,28.1 22.15,56.38 12.82,87.56 -10.65,12.46 -16.05,3.54 -20.09,-5.64 -4.31,-9.8 -3.21,-21.47 -9.87,-30.62z"/>
   <path class="fil2" d="M4133.04 456.74c0.61,63.49 -3.78,127.42 16.71,189.16 8.22,10.25 9.82,20.92 2,32.19 -15.29,5.56 -20.5,-5.36 -26.05,-15.81 -12.72,-53.78 -21.44,-108.16 -23.99,-163.45 8.62,-15.38 10.22,-35.99 31.33,-42.08z"/>
   <path class="fil2" d="M4811.98 327.03c3.13,-31.19 -13.97,-60.73 -7.53,-92.18 15.03,9.35 31.01,17.68 38.14,35.5 -0.35,31.34 14.57,59.89 16.63,90.83 1.29,7.86 0.95,15.44 -3.93,22.21 -18.03,7.09 -22.5,-11.29 -33.39,-17.72 -9.9,-11.18 -13.01,-24.12 -9.93,-38.65z"/>
   <path class="fil2" d="M4101.71 498.83c7.01,1.31 15.03,4.52 14.16,11.81 -6.24,52.02 16.44,100.54 17.5,151.59 -20.7,0.73 -21.57,-19.38 -31.62,-29.9 -17.1,-31.64 -11.15,-67.1 -16.56,-100.69 -4.17,-15.81 12.64,-21.07 16.51,-32.82z"/>
   <path class="fil2" d="M4852.77 359.7c-0.56,-30.1 -34.05,-56.47 -10.17,-89.35 12.23,14.89 33.78,20.43 40.81,40.55 -2.85,24.37 12.54,49.74 -4.15,73.34 -22.77,6.88 -18.22,-15.74 -26.48,-24.54z"/>
   <path class="fil2" d="M4100.68 703.08c-17.53,-6.59 -14.08,-23.79 -19.18,-36.89 -5.9,-15.14 -5.33,-36.51 -29.95,-36.7 3.39,-13.71 6.78,-27.41 10.17,-41.11 4.09,-8.53 8.67,-17.79 19.71,-16.33 7.12,0.94 11.08,8.96 9.96,15.44 -4.91,28.56 16.57,50.09 19.4,76.47 0.36,14 1.7,28.27 -10.12,39.12z"/>
   <path class="fil2" d="M4877.36 384.22c9.71,-23.79 -16.92,-50.61 6.05,-73.32 10.8,9.31 23.51,16.86 28.67,31.34 -16.02,10.94 -8.25,27.64 -10.19,42 -0.02,13.63 -0.03,27.27 -0.05,40.92 -9.07,4.24 -14.62,-1.12 -19.95,-7.22 -5.72,-10.67 -6.83,-21.97 -4.53,-33.72z"/>
   <path class="fil2" d="M4100.7 662.19c-4.39,-23.65 -18.31,-44.11 -17.29,-70.26 1.18,-30.82 -14.05,-2.99 -21.7,-3.55 7.84,-18.92 15.67,-37.84 23.49,-56.73 17.16,16.42 12.64,38.77 14.98,58.82 1.57,13.52 1.56,26.94 8.7,39.05 5.56,9.87 7.28,20.13 3.02,30.96 -3.21,3.93 -6.96,4.52 -11.2,1.71z"/>
   <path class="fil2" d="M4697.47 204.4c0.02,-5.47 0.03,-10.92 0.05,-16.37 5.43,2.72 10.87,5.46 16.32,8.19 28.91,39.29 45.8,83.88 57.26,130.82 4.49,5.14 5.16,10.64 1.5,16.53 -18.97,3.58 -22.43,-13.28 -31.03,-23.43 -6.8,-25.84 -34.19,-44.1 -27.76,-74.86 -5.43,-13.63 -10.88,-27.24 -16.33,-40.87z"/>
   <path class="fil2" d="M4885.52 416.95c5.45,2.73 10.89,5.46 16.32,8.21 16.47,24.22 35.45,46.08 57.34,65.72 36.88,33.09 59.07,75.46 73.53,122.26 8.51,53.34 33.56,104.1 31.97,158.53 -3.56,122.69 -53.41,226.87 -137.86,314.52 -70.2,72.86 -154.9,127.97 -253.18,146.09 -125.96,23.26 -254.37,28.41 -366.32,-56.13 -5.09,-3.85 -12.36,-4.77 -18.61,-7.08 -87.77,-74.82 -138.8,-169.99 -155.1,-283.66 -3.84,-26.81 -16.64,-47.82 -32.9,-67.84 -2.52,-1.84 -3.34,-3.67 -2.51,-5.49 0.85,-1.81 1.69,-2.73 2.53,-2.73 8.18,-0.03 16.35,-0.06 24.51,-0.1 2.66,0.04 5.31,0.05 7.96,0.04 24.19,15.23 34.68,38.96 34.48,65.68 -0.62,86.39 44.78,152.05 94.89,215.5 118.38,149.92 341.32,154.55 493.42,79.98 136.88,-67.12 235.87,-171.57 267.6,-324.55 26.37,-127.15 -8.58,-242.36 -92.86,-341.82 -9.98,-17.24 -24.51,-30.7 -37.42,-45.55 -10.4,-11.94 -21.11,-24.78 -7.8,-41.59z"/>
   <path class="fil2" d="M4231.48 441.49c10.54,-21.76 21.23,-43.44 31.63,-65.28 32.3,-67.93 77.69,-124.13 141.91,-165.08 53.62,-34.17 110.15,-37.96 169.81,-23.1 12.67,5.19 23.84,11.15 14.63,27.85 -7.36,5.03 -15.64,6.12 -24.27,5.75 -126.29,-29.94 -209.89,41.06 -273.88,157.14 -17.54,31.81 -16.3,71.64 -44.06,98.65 -6.86,2.12 -13.12,1.24 -18.64,-3.6 -6.82,-11.48 -3.76,-22.07 2.86,-32.34z"/>
   <path class="fil2" d="M4591.25 212.53c-5.47,-8.16 -10.93,-16.34 -16.41,-24.5 0.02,-2.71 0.02,-5.45 0.02,-8.16 13.65,2.71 27.27,5.43 40.9,8.15 5.43,2.74 10.87,5.5 16.28,8.22 26.23,24.27 60.48,43.75 52.66,88.32 -2.64,3.13 -6.01,5.06 -10.05,5.78 -33.73,-19.54 -57.57,-49.74 -83.4,-77.81z"/>
   <path class="fil2" d="M4231.48 441.49c0.02,10.9 0.03,21.79 0.05,32.71 23.03,40.93 3.2,80.24 -4.52,120.04 -11.2,9.75 -17.79,1.24 -24.69,-6.22 -7.7,-19.61 -10.67,-38.86 4.46,-56.69 -2.88,-27.79 4.05,-54.6 8.33,-81.66 5.45,-2.73 10.9,-5.45 16.36,-8.18z"/>
   <path class="fil2" d="M4100.73 809.36c-0.01,2.73 -0.01,5.49 -0.03,8.22 -8.18,-8.16 -16.36,-16.34 -24.54,-24.48 -15.21,-2.43 -22.71,-15.08 -32.64,-24.49 1.71,-16.72 -4.02,-34.11 4.94,-53.71 26.14,28.64 36.8,62.95 52.27,94.47z"/>
   <path class="fil2" d="M4043.52 768.61c16.65,0.47 25.44,11.41 32.64,24.49 0,10.88 0,21.75 0,32.63 -17.32,0.95 -17.93,-19.98 -31.44,-23.98 -0.38,-11.04 -0.8,-22.1 -1.2,-33.14z"/>
   <path class="fil2" d="M4206.78 531.34c0.1,19.11 0.17,38.2 0.26,57.32 14.24,21.43 12.73,44.9 9.01,68.67 -1.22,4.53 -3.39,8.62 -6.43,12.2 -28.46,-11.43 -39.29,-36.15 -35.39,-80.84 0.02,-19.1 0.04,-38.19 0.05,-57.27 10.82,-5.1 21.6,-28.42 32.5,-0.08z"/>
   <path class="fil2" d="M4681.24 286.07c3.16,-40.65 -39.2,-56.37 -49.18,-89.83 8.18,-0.01 16.37,-0.01 24.56,-0.03 10.59,0.29 16.06,5.73 16.36,16.33 18.9,33.74 57.04,57.62 52.79,103.2 -2.04,3.57 -5.12,5.63 -9.22,6.15 -18.19,-5.59 -27.17,-20.3 -35.31,-35.83z"/>
   <path class="fil2" d="M4771.04 343.41c0.02,-5.47 0.04,-10.92 0.05,-16.36 5.42,2.71 10.85,5.44 16.27,8.15 30.68,16.02 26.78,48.04 34.65,74.67 0.56,15.7 2.46,31.62 -6.73,45.91 -22.22,7.99 -25.03,-12.1 -33.99,-23.41 -0.9,-29.91 -30.33,-56.61 -10.26,-88.96z"/>
   <path class="fil2" d="M4811.99 408.7c-6.55,-25.05 -10.39,-51.03 -24.63,-73.51 0,-16.35 -0.02,-32.69 -0.04,-49.04 15.82,9.03 11.54,30.2 24.66,40.87 13.08,7.1 3.16,25.57 16.18,32.7 8.47,19.36 19.37,38.52 4.5,59.64 -10.5,3.45 -15.86,-3.05 -20.67,-10.67z"/>
   <path class="fil2" d="M4722.04 318.8c-2.73,-41.71 -41.79,-66.65 -49.07,-106.26 13.61,10.92 27.21,21.81 40.82,32.73 7.6,25.99 33.39,43.87 32.79,73.53 5.61,7.55 7.15,15.44 2.06,23.93 -20,4.42 -28.04,-4.49 -26.6,-23.93z"/>
   <path class="fil2" d="M4934.56 498.58c68.08,64.84 97.72,147.32 106,238.25 13.06,143.47 -47.59,255.3 -148.92,352.28 -123.05,117.77 -267.65,156.27 -432.21,128.98 -128.67,-21.35 -209.87,-104.07 -268.24,-214.38 -21.71,-41.02 -40.15,-82.85 -33.38,-131.2 3.56,-25.49 -21.58,-40.1 -24.6,-63.21 2.86,-2.75 5.71,-5.5 8.54,-8.25 33.14,3.74 37.11,31.22 43.68,55.35 18.28,67.14 37.88,133.49 77.43,192.09 59.45,88.09 142.14,135.55 247.89,142.49 74.06,4.87 147.42,-0.12 215.5,-32.14 132.86,-62.49 241.48,-151.47 273.99,-301.91 29.93,-138.46 -12.04,-260 -114.15,-359.46 -10.85,-12.08 -21.23,-24.54 -29.03,-38.94 -1.76,-6.04 -1.34,-11.83 2.14,-17.21 36.44,4.18 51.87,36.04 75.36,57.25z"/>
   <path class="fil2" d="M4885.51 490.77c41.06,14.63 53.89,54.61 75.5,85.99 75.83,109.94 75.44,230.66 29.16,347.85 -32.75,82.93 -96.75,146.51 -173.92,196.8 -83.36,54.34 -171.01,81.7 -270.86,81.36 -143.84,-0.48 -247.29,-61.57 -315.02,-187.8 -26.6,-49.6 -40.94,-103.04 -54.89,-156.47 -6.15,-23.64 -15.27,-42.49 -33.74,-57.44 0.02,-2.65 0.05,-5.29 0.09,-7.93 7.34,-6.09 8.84,-17.83 19.77,-20.51 12.15,-1.29 18.17,6.56 23.4,15.62 19.46,28.06 30.52,58.65 37.24,92.67 15.23,77 50.79,144.73 105.73,201.57 49.36,70.98 122.24,89.89 202.89,92.37 213.93,6.57 352.91,-102.18 442.42,-287.13 9.56,-19.73 11.86,-41.86 18.9,-62.45 10.78,-38.43 5.47,-76.15 -4.91,-113.61 -1.44,-3.78 -2.49,-7.67 -3.31,-11.6 -3.43,-61.64 -41.34,-107.48 -71.52,-156.98 -10.19,-16.72 -29.98,-28.74 -26.94,-52.31z"/>
   <path class="fil2" d="M4157.97 776.63c-0.3,10.44 -5.58,16.05 -16.14,16.5 -10.01,-31.71 -35.65,-56.28 -41.15,-90.05 0,-13.63 0,-27.26 0.02,-40.89 2.71,0.02 5.45,0.02 8.18,0.02 6.04,-2.04 11.75,-0.08 12.95,5.64 7.35,34.96 30.59,63.33 39.9,97.42 0.34,4.31 -0.94,8.1 -3.77,11.36z"/>
   <path class="fil2" d="M4174.23 588.68c12.84,26.45 11.67,58.52 32.66,81.73 9.66,9.66 9.17,20.36 3.32,31.65 -13.39,11.34 -25.33,4.78 -37.19,-3 -12.35,-15.62 -22.23,-32 -15.16,-53.2 0.01,-13.63 0.03,-27.25 0.06,-40.9 5.44,-5.43 10.87,-10.85 16.3,-16.28z"/>
   <path class="fil2" d="M4157.87 645.86c5.48,16.36 10.95,32.71 16.44,49.07 23.59,18.28 34.02,43.66 38.92,72.05 -0.7,4.18 -2.52,7.8 -5.42,10.9 -33.76,-0.63 -40.23,-31.72 -57.18,-51.17 -7.47,-15.9 -14.86,-31.83 -0.99,-48.17 0.05,-10.88 0.08,-21.76 0.1,-32.65 2.71,0 5.42,-0.02 8.13,-0.02z"/>
   <path class="fil2" d="M4149.64 678.53c-2.71,17.28 5.51,32.71 8.24,49.07 7.62,13.62 12.46,27.23 -0.01,40.85 -22.99,-32.34 -37.46,-68.61 -48.99,-106.24 0,-10.9 0,-21.79 0,-32.69 8.16,10.9 16.33,21.81 24.49,32.71 5.43,5.43 10.85,10.88 16.27,16.31z"/>
   <path class="fil2" d="M4934.56 498.58c-28.3,-14.08 -48.29,-38.83 -73.38,-57.04 -15.22,-17.29 -12.28,-37.22 -8.33,-57.3 -0.04,-8.18 -0.05,-16.36 -0.07,-24.54 8.19,8.18 16.39,16.35 24.59,24.52 11.9,8.62 6.96,21.44 8.16,32.73 -3.02,20.16 11.05,31.06 22.89,43.57 10.62,11.23 25.88,19.6 26.15,38.05z"/>
   <path class="fil2" d="M4852.84 384.24c15.72,17.21 4.87,38.3 8.33,57.3 -0.05,5.4 -0.1,10.8 -0.12,16.18 -16.83,3.22 -21.3,-13 -31.64,-20.04 -4.7,-6.65 -8.18,-13.4 -1.08,-20.68 -0.07,-19.1 -0.11,-38.17 -0.16,-57.27 13.01,3.34 14.41,18.37 24.67,24.51z"/>
   <path class="fil2" d="M4746.46 343.43c0.05,-8.21 0.08,-16.42 0.12,-24.63 8.15,8.19 16.3,16.39 24.46,24.6 -4.29,31.78 23.94,57.62 16.43,89.97 4.47,5.32 5.14,10.93 1.25,16.88 -9.48,3.87 -15.78,-1.12 -21.57,-7.67 -7.83,-14.42 -12.84,-30.19 -21.14,-44.44 -7.31,-18.29 -15.04,-36.62 0.44,-54.71z"/>
   <path class="fil2" d="M4247.84 474.16c16.19,-72.38 47.65,-136.82 98.02,-191.91 60.35,-66.04 132.27,-93.78 220.83,-69.67 12.77,14.96 45.69,11.33 40.06,43.34 -16.37,9.61 -31.71,0.65 -47.39,-2.51 -5.77,-1.98 -11.14,-4.75 -16.38,-7.78 -82.95,-24.65 -142.05,16.62 -191.79,74.06 -39.2,45.28 -66.92,98.33 -77.48,158.72 -6.83,13.92 -2.27,37.32 -28.83,34.85 -7.3,-13.67 -6.51,-26.71 2.96,-39.1z"/>
   <path class="fil2" d="M4607.56 253.48c-6.05,-21.21 -38.9,-15.64 -40.87,-40.9 8.18,-0.02 16.37,-0.04 24.56,-0.05 35.83,15.01 57.18,46.06 81.69,73.6 8.81,8.83 17.14,17.81 10.52,31.75 -9.94,7.56 -19.11,1.97 -28.43,-1.54 -21.44,-16.69 -46.16,-30.94 -47.46,-62.86z"/>
   <path class="fil2" d="M4247.84 474.16c0,13.63 0.01,27.26 0.01,40.9 15.83,17.79 10.66,39.31 10.74,59.92 -2.31,15.82 -5.51,31.22 -21.38,39.75 -12.21,-0.11 -13.08,-9 -13.88,-17.96 -4.07,-41.3 13.48,-81.18 8.19,-122.58 5.43,-0.02 10.88,-0.02 16.32,-0.04z"/>
   <path class="fil2" d="M4681.1 318.83c-2.71,-10.9 -5.45,-21.79 -8.16,-32.69 2.77,-0.01 5.53,-0.03 8.3,-0.07 19.17,2.64 22.57,21.01 32.64,32.71 7.84,15.08 20.98,28.91 11.3,48.12 -4.87,5.27 -10.93,6.46 -17.73,5.17 -19.37,-12.49 -30.86,-28.91 -26.35,-53.25z"/>
   <path class="fil2" d="M4223.33 596.78c6.51,3.55 8,9.61 8.19,16.34 16.69,12.66 20.11,31.82 24.81,50.4 1.43,10.95 1,21.61 -5.59,31.15 -31.6,12.16 -33.91,-15.19 -43.7,-32.43 0,-24.53 0,-49.06 -0.01,-73.58 5.43,2.71 10.86,5.43 16.3,8.13z"/>
   <path class="fil2" d="M4207.04 662.23c14.23,10.11 20.95,29.54 40.73,32.7 14.64,4.49 18.34,18.12 24.81,29.48 4.19,8.92 7.51,18.04 5.89,28.17 -1.05,3.88 -2.96,7.25 -5.71,10.17 -5.44,2.98 -11.1,3.31 -16.93,1.42 -17.18,-11.7 -28.55,-30.14 -46.82,-40.65 -5.59,-6.33 -8.89,-12.91 -2.04,-20.48 -0.04,-10.88 -0.07,-21.76 -0.1,-32.63 0.05,-2.73 0.1,-5.45 0.15,-8.18z"/>
   <path class="fil2" d="M4722.04 367.89c-2.71,-16.36 -5.43,-32.74 -8.16,-49.1 2.73,0.03 5.45,0.03 8.16,0.03 5.32,10.99 13.43,19.22 24.41,24.62 -2.48,19.82 3.66,38.38 8.29,57.17 5.37,10.01 8.36,19.6 -4.78,26.24 -19.53,-14.8 -25.06,-36.25 -27.92,-58.96z"/>
   <path class="fil2" d="M4787.29 449.74c0.07,-5.45 0.11,-10.92 0.18,-16.36 12.92,3.41 14.25,18.36 24.39,24.51 6.86,5.28 8.4,12.98 9.71,20.83 2.31,43.71 42.99,58.61 65.59,87.06 2.36,2.86 4.43,5.94 6.36,9.11 9.4,15.74 19.06,31.29 32.11,44.46 8.26,9.07 15.06,18.95 18.01,31.07 3.15,20.09 6.4,40.51 12.6,59.53 32.72,100.19 1.06,187.79 -55.85,267.35 -37.44,52.35 -78.56,104.81 -147.36,121.18 -6.78,0.76 -13.77,1.42 -19.61,4.93 -71.6,43.19 -151,41.36 -229.17,34.25 -43.62,-3.97 -93.26,-8.86 -112.83,-61.99 25.11,-23.62 42.13,12.36 64.56,8.68 177.67,58.16 367.19,-35.16 439.17,-206.55 29.3,-69.76 14.06,-142.42 -15.15,-209.89 -15.46,-35.69 -36.54,-68.83 -65.49,-97.36 -33.32,-32.87 -52.59,-72.84 -27.24,-120.81z"/>
   <path class="fil2" d="M4885.63 580.48c-0.07,-2.7 -0.11,-5.39 -0.13,-8.12 -23.43,-30.81 -53.02,-56.6 -73.43,-89.88 -0.07,-8.2 -0.12,-16.39 -0.19,-24.6 0.05,-16.39 0.08,-32.79 0.12,-49.18 5.45,2.76 10.89,5.53 16.34,8.3 0.17,6.69 1.46,12.84 8.05,16.36 12.7,28.57 30.12,53.51 51.17,76.93 50.05,55.69 85.33,120 104.23,192.85l0 -0.02c6.81,10.06 3.74,20.95 2.69,31.68 -21.72,12.37 -28.81,-5.1 -34.3,-19.05 -9.07,-23.03 -19.11,-45.8 -25.52,-69.84 -5.5,-8.13 -10.98,-16.27 -16.48,-24.4 -10.2,-14.19 -14.62,-32.95 -32.54,-41.02z"/>
   <path class="fil2" d="M4991.78 703.13c-34.38,-63 -55.74,-133.83 -109.45,-185.2 -24.6,-23.55 -47.54,-47.17 -45.95,-84.58 13.03,3.27 14.36,18.37 24.67,24.37 12.92,7.48 23.79,16.49 24.46,33.04 41.46,48.66 72.17,104.23 102.15,160.17 8.75,16.32 2.64,34.77 4.12,52.19z"/>
   <path class="fil2" d="M4934.64 645.9c25.65,25.76 21.92,70.18 57.1,89.87 14.14,28.94 15.88,59.03 8.25,89.97 -33.49,146.66 -120.33,250.87 -253.63,317.73 -108.15,54.23 -220.19,55.12 -333.88,21.49 -41.09,-12.17 -67.96,-43.12 -91.05,-77.52 14.22,-8.19 30.26,-5.62 45.56,-7.74 28.85,5.52 45.28,31.97 73.03,41.21 110.53,36.82 214.76,23.85 314.78,-33.49 74.9,-24.24 118.56,-84.14 157.06,-145.86 32.9,-52.78 52.15,-113.24 46.4,-176.99 -3.6,-40.02 -23.66,-77.46 -23.62,-118.67z"/>
   <path class="fil2" d="M4362.27 1087.25c-13.6,4.05 -27.21,3.82 -40.84,0.19 -63.41,-57.86 -96.82,-132.75 -111.75,-214.56 -5.73,-31.46 -19.86,-54.9 -35.34,-79.81 18.24,-11.9 30.49,5.5 45.58,9.24 16.73,8.68 26.78,22.47 29.52,41 11.72,79.46 42.26,149.76 98.36,208.44 8.7,9.1 19.38,19.77 14.47,35.5z"/>
   <path class="fil2" d="M4215.18 809.33c-13.61,-5.42 -27.22,-10.85 -40.84,-16.26 -0.42,-10.52 -5.75,-16.13 -16.37,-16.44 -0.02,-2.73 -0.05,-5.45 -0.1,-8.18 0,-13.61 0.01,-27.22 0.01,-40.85 20.41,12.3 25.54,39.85 49.02,49.06 15.59,7.65 18.23,18.57 8.28,32.67z"/>
   <path class="fil2" d="M4999.99 825.74c4.98,-30.7 -8.13,-59.74 -8.23,-89.97 0,-10.89 0,-21.78 0.02,-32.66 18.82,39.8 24.68,80.45 8.21,122.63z"/>
   <path class="fil2" d="M4206.99 703.04c0.21,6.71 1.57,12.86 8.13,16.41 9.41,18.61 29.43,32.25 26.49,56.67 -2.7,3.11 -6.03,5.18 -9.98,6.32 -11.91,1.91 -18.81,-5.03 -24.62,-13.94 -10.9,-24.52 -21.78,-49.05 -32.68,-73.58 10.9,2.71 21.78,5.42 32.67,8.12z"/>
   <path class="fil2" d="M4207 768.5c8.15,2.73 16.3,5.49 24.45,8.22 28.27,15.65 39.69,39.25 45.59,71.71 14.47,79.59 43.16,153.48 110.93,205.24 5.41,4.15 9.74,9.52 7.02,17.35 24.53,44.47 68.97,54.12 112.41,56.17 77.8,3.63 157.37,10.03 227.59,-37.23 4.93,-3.32 13.13,-1.82 19.81,-2.55 -22.64,27.79 -55.77,37.89 -87.64,46.43 -101.98,27.31 -201.58,30.77 -289.73,-41.88 -3.8,-3.11 -10.07,-3.19 -15.17,-4.71 -41.04,-52.76 -88.33,-101.66 -106.43,-168.74 -6.29,-23.31 -12.67,-46.9 -15.44,-70.77 -2.14,-18.35 -9.77,-30.22 -25.22,-38.42 1.22,-11.89 -2.7,-22.48 -8.28,-32.67 0.04,-2.71 0.07,-5.43 0.1,-8.15z"/>
   <path class="fil2" d="M4787.29 449.74c-5.94,53.49 12.67,93.74 52.54,132.37 68.08,65.91 106.6,246.09 47.85,338.05 -92.7,145.1 -218.81,199.27 -382.24,192.02 -19.9,-0.89 -32.41,-21.26 -53.2,-16.69 -45.56,-32.79 -93.6,-60.34 -125.73,-111.25 -26.35,-41.7 -39.76,-85.36 -46.53,-131.53 -3.91,-26.52 -8.73,-49.79 -28.75,-68.26 -2.8,-8.9 -2.4,-17.17 4.8,-24.06 5.49,0 10.94,-0.01 16.41,-0.03 35.04,14.73 47.85,43.75 51.87,79.09 6.44,56.52 24.02,107.3 64.34,150.74 79.84,86.04 179.47,108.42 288.02,60.06 13.06,-5.63 25.86,-11.81 38.35,-18.68 157.56,-85.23 208.03,-246.25 103.14,-395.88 -14.67,-20.91 -29.49,-42.06 -49.02,-59.56 -22.15,-19.86 -17.03,-46.88 -14.56,-72.64 8.94,-19.74 -0.51,-44.43 16.49,-61.99 5.4,2.75 10.81,5.5 16.21,8.25z"/>
   <path class="fil2" d="M4771.08 441.49c-1.29,21.96 4.47,44.79 -8.18,65.34 -4.13,2.83 -7.9,2.41 -11.32,-1.22 -9.54,-15.26 -7.02,-33.5 -12.46,-49.78 -1.55,-11.22 -1.99,-22.17 7.46,-30.68 9.56,-5.9 7.86,-15.56 8.16,-24.54 12.95,10.62 16.85,24.88 16.34,40.88z"/>
   <path class="fil2" d="M4550.33 237.1c2.75,2.72 5.49,5.45 8.22,8.17 10.23,6.23 16.49,13.88 9.38,26.31 -4.95,4.31 -10.83,6.44 -17.18,7.49 -104.79,-5.29 -169.23,50.82 -212.7,139.38 -9.52,19.41 -15.01,40.86 -29.01,58.1 -6.78,5.78 -13.65,11.2 -22.99,4.86 -7.11,-9.6 -7.84,-20.37 -5.83,-31.62 21.21,-71.51 59.78,-130.8 119.16,-177.24 45.55,-35.64 95.12,-47.08 150.93,-35.44z"/>
   <path class="fil2" d="M4550.33 237.1c-120.98,-16.26 -220.18,84.16 -261.63,212.57 -8.21,8.13 -2.64,30.02 -24.48,24.51 29.62,-111.33 82.58,-204.42 200.23,-241.48 26.8,-8.44 58.03,-11.57 85.88,4.4z"/>
   <path class="fil2" d="M4264.22 474.18c8.14,-8.16 16.32,-16.33 24.48,-24.51 0.01,10.9 0.03,21.78 0.05,32.67 6.6,36.53 5.59,72.96 -1.75,109.26 -3.37,6.6 -8.93,9.75 -16.22,10.08 -13.4,-0.82 -16.4,-12.93 -22.92,-21.23 0,-21.79 0,-43.59 0,-65.38 11.1,-11.37 12.81,-26.48 16.36,-40.88z"/>
   <path class="fil2" d="M4566.71 269.78c-2.72,-8.16 -5.45,-16.35 -8.16,-24.51 16.34,2.72 32.67,5.48 49.02,8.21 16.36,19.06 32.72,38.12 49.09,57.16 13.12,12.6 20.64,26.78 12.88,45.31 -13.86,14.09 -20.9,-2.66 -30.78,-6.77 -4.49,-3.72 -8.25,-8.1 -11.29,-13.05 -8.1,-33.23 -42.73,-42.2 -60.76,-66.36z"/>
   <path class="fil2" d="M4664.86 359.66c2.86,-17.26 -5.61,-32.64 -8.2,-49.01 8.15,2.73 16.3,5.45 24.44,8.18 8.2,16.36 16.39,32.71 24.61,49.07 8.63,8.37 16.21,17.16 11.56,30.54 -2.15,3.25 -5.11,5.4 -8.92,6.32 -19.65,-1.19 -24.95,-19.9 -37.04,-30.34 -3.57,-4.3 -6.15,-9.04 -6.46,-14.76z"/>
   <path class="fil2" d="M4247.85 580.45c7.8,3.11 13.25,8.56 16.39,16.35 14.7,24.18 26.23,49.16 20.27,78.67 -18.38,12.72 -26.12,-4.13 -36.64,-13.24 -5.45,-16.36 -10.9,-32.74 -16.35,-49.11 10.61,-8.3 14.98,-19.74 16.33,-32.66z"/>
   <path class="fil2" d="M4713.79 400.64c-2.68,-10.91 -5.38,-21.82 -8.08,-32.74 5.43,0 10.88,-0.01 16.33,-0.01 14.88,16.21 24.49,34.68 24.54,57.26 0.02,10.88 0.02,21.77 0.02,32.63 -3.55,2.19 -7.28,2.52 -11.18,1.03 -15.27,-16.37 -26.2,-34.39 -21.62,-58.16z"/>
   <path class="fil2" d="M4247.87 662.23c14.21,-1.19 21.33,11.72 32.62,16.35 8.42,2.2 12.71,8.56 16.18,15.83 3.35,14.5 17.4,27.74 5.5,44.16 -16.38,9.34 -26.21,-4.02 -37.92,-10.93 -5.48,-10.9 -10.97,-21.79 -16.47,-32.71 0.03,-10.9 0.07,-21.8 0.1,-32.7z"/>
   <path class="fil2" d="M4681.14 1054.63c-65.46,44.59 -134,41.79 -203.41,11.71 -103.88,-45.02 -158.07,-125.14 -164.54,-237.81 -1.71,-30.02 -28.28,-44.79 -40.74,-68.17 0.03,-2.73 0.05,-5.47 0.08,-8.18 26.2,-7.93 40.07,19.01 62.46,22.02 29.91,23.79 20.53,57.53 22.53,88.4 -9.94,79.42 92.95,181.55 170.03,189.16 37.75,3.73 74.68,7.04 111.86,-3.45 14.21,-4 29.44,-6.26 41.74,6.32z"/>
   <path class="fil2" d="M4329.6 776.69c-26.28,8.72 -37.23,-18.29 -57.08,-24.52 -2.76,-8.17 -5.51,-16.35 -8.28,-24.53 13.6,2.71 27.2,5.43 40.78,8.13 1.83,0.36 3.65,0.75 5.48,1.09 13.14,7.72 24.2,17.35 29.69,32.15 -1.05,5.96 -2.88,10.88 -10.59,7.68z"/>
   <path class="fil2" d="M4256.03 760.39c0,8.15 -0.01,16.29 -0.01,24.43 -8.94,4.23 -13.32,-0.66 -16.36,-8.18 -5.93,-20.02 -27.74,-33.23 -24.55,-57.18 21.58,5.72 31.54,23.05 40.92,40.93z"/>
   <path class="fil2" d="M4239.66 776.64c5.45,2.73 10.9,5.45 16.36,8.18 25.33,9.37 32.02,28.56 33.14,54.19 4.29,97.96 51.36,171.78 132.14,225.23 12.63,8.38 23.62,17.88 30.94,31.24 -22.8,0.57 -35.43,-22.71 -57.25,-24.47 -80.68,-51.59 -113.54,-133.37 -128.14,-221.14 -5.23,-31.32 -26.19,-47.85 -35.41,-73.16 2.73,-0.02 5.48,-0.05 8.21,-0.09z"/>
   <path class="fil2" d="M4812.06 482.48c35.83,20.7 53.73,56.02 73.43,89.88 -29.57,-25.8 -69.09,-43.47 -73.43,-89.88z"/>
   <path class="fil2" d="M4885.63 580.48c24.73,2.66 28.38,22.04 32.54,41.02 -16.76,-8.98 -21.54,-27.46 -32.54,-41.02z"/>
   <path class="fil2" d="M4681.14 1054.63c-60.98,6.77 -121.07,20.41 -183.23,1.39 -71.84,-22 -156.31,-113.18 -151.95,-189.42 22.21,-2.77 24.81,15.95 32.01,29.39 12.47,23.32 17.77,51.22 42.91,66.35 36.44,20.04 57.92,59.46 102.95,70.35 37.42,9.06 70.77,9.27 107.18,-2.2 47.03,-14.84 92.44,-30.73 129.3,-65.32 57.6,-54.04 79.33,-118.18 57.64,-195.41 -2.19,-7.83 -3.74,-15.86 -4.13,-24.06 11.14,-23.41 -14.13,-46.14 -1.41,-69.62 6.2,-2.9 12.29,-2.58 18.34,0.53 53.28,87.56 57.98,182.48 -4.88,264.69 -30.13,39.43 -63.11,78.08 -112,97.03 -6.22,14.82 -18.76,17 -32.72,16.31z"/>
   <path class="fil2" d="M4713.86 1038.33c51.68,-39.5 101.56,-81.01 130.14,-141.37 35.67,-75.37 10.17,-147.05 -15.72,-218.37 -17.78,-23.75 -35.78,-47.01 -58.23,-67.03 -23.12,-20.62 -35.49,-47.59 -32.68,-79.84 1.77,-11.13 5.55,-20.86 17.41,-24.9 2.7,0.02 5.4,0.02 8.12,0.02 -15.5,56.03 33.63,80.76 59.14,114.51 79.05,104.53 90.39,256.32 -17.58,354.57 -27.2,24.75 -45.98,62.63 -90.6,62.42z"/>
   <path class="fil2" d="M4754.78 506.81c-2.75,8.21 -5.5,16.41 -8.23,24.6 -5.42,4.84 -11.32,4.89 -17.54,1.75 -4.61,-4.89 -6.83,-10.86 -8,-17.34 -0.84,-4.28 -1.17,-8.6 -1.21,-12.95 1.31,-17.02 -1.88,-35.96 18.57,-45.1 2.75,0 5.5,0 8.23,0 14.71,14.36 5.47,32.69 8.18,49.04z"/>
   <path class="fil2" d="M4305.04 474.2c25.07,-87.23 72.95,-155.19 157.42,-195.57 29.62,-14.14 58.76,-5.01 87.85,-8.82 11.37,9.17 30.47,12.61 25.39,34.09 -3.11,2.58 -6.68,4.27 -10.6,5.25 -6.04,0.89 -11.99,0.32 -17.87,-1.18 -45.06,-18.87 -81.52,4.45 -116.01,26.92 -45.54,29.66 -74.33,73.43 -90.65,125.36 -5.26,16.75 -11.48,33.3 -21.29,47.98 -4.55,6.81 -10.94,12.95 -18.97,2.95 -6.59,-13.38 -2.88,-25.44 4.72,-36.98z"/>
   <path class="fil2" d="M4305.04 474.2c0.03,13.61 0.06,27.24 0.08,40.86 12.55,12.91 10.83,29.2 10.8,45.09 -0.24,8.82 -1.4,17.5 -4.98,25.68 -6.76,10.52 -12.7,21.78 -23.52,29.06 -10.72,-2.75 -13.32,-8.67 -6.95,-18.03 3.74,-38.09 -8.16,-77.33 8.28,-114.52 5.43,-2.71 10.86,-5.43 16.3,-8.14z"/>
   <path class="fil2" d="M4574.85 302.46c-8.18,-10.88 -16.36,-21.77 -24.54,-32.64 5.46,-0.02 10.93,-0.02 16.39,-0.03 29.05,14.51 63.36,23.75 65.36,65.35 -25.63,0.59 -40.47,-17.71 -57.22,-32.67z"/>
   <path class="fil2" d="M4280.47 596.86c0.21,6.69 1.64,12.75 8.18,16.25 17.15,4.27 22.62,17.76 26,32.91 -3.71,18.06 21.22,33.68 4.64,52.9 -11.11,5.54 -21.26,4 -30.55,-4.02 -2.76,-5.45 -5.52,-10.88 -8.26,-16.33 0.87,-28.5 -20.45,-52.61 -16.24,-81.78 5.4,0.02 10.82,0.05 16.22,0.07z"/>
   <path class="fil2" d="M4574.85 302.46c24.74,0.98 38.31,21.47 57.22,32.67 2.72,2.73 5.46,5.47 8.19,8.19 6.22,6.63 8.51,14.79 9.35,23.54 -0.24,10.91 -1.57,21.33 -12.45,27.4 -16.64,-0.47 -22.47,-15.25 -32.55,-24.47 -8.31,-24.81 -37.09,-38.16 -37.93,-67.23 2.73,-0.02 5.45,-0.07 8.16,-0.1z"/>
   <path class="fil2" d="M4640.27 367.9c0,-8.18 0,-16.37 0,-24.58 12.67,-1.29 16.01,11.48 24.58,16.34 2.73,2.74 5.47,5.48 8.18,8.21 7.67,14.59 17.36,28.67 11.23,46.59 -14.48,10.92 -21.6,-1.38 -30.05,-9.5 -8.23,-10.97 -3.55,-26.84 -13.94,-37.06z"/>
   <path class="fil2" d="M4738.37 457.77c-9.74,15.19 -8.31,32.26 -8.26,49.1 -29.68,-1.07 -26.89,-26.73 -34.09,-44.89 -0.45,-21 -6.83,-42.97 9.66,-61.31 2.71,-0.02 5.42,-0.04 8.12,-0.04 8.2,19.05 16.38,38.09 24.58,57.13z"/>
   <path class="fil2" d="M4705.68 400.67c0,21.76 0,43.53 -0.01,65.3 -3.2,2.53 -6.63,2.88 -10.28,1.03 -9.69,-9.66 -14.76,-21.88 -19.06,-34.54 -0.9,-5.92 -0.06,-11.32 4.72,-15.5 -2.55,-16.39 -11.04,-31.81 -8.03,-49.09 16.05,5.78 20.72,22.92 32.65,32.81z"/>
   <path class="fil2" d="M4697.53 466c2.71,-0.01 5.41,-0.01 8.13,-0.03 9.32,12.94 5.59,33.67 24.44,40.9 0.03,2.71 0.03,5.43 0,8.14 -67.09,137.08 -186.48,203.1 -327.07,239.51 -34.74,8.99 -66.87,-4.18 -97.95,-18.75 0,0 -0.07,-0.01 -0.07,-0.01 -5.43,-13.62 -10.87,-27.24 -16.28,-40.87 10.88,-0.02 21.78,-0.02 32.67,-0.03 11.63,-10.96 25.12,-8.44 38.3,-4.58 34.24,10.03 67.89,4.32 99.8,-7.24 59.18,-21.42 112.13,-54.48 158.91,-96.52 22.44,-20.16 37.77,-45.9 48.59,-74.24 6.72,-17.61 12.03,-36.35 30.52,-46.28z"/>
   <path class="fil2" d="M4811.95 678.57c4.72,21.55 28.11,40.76 8.18,65.39 -4.14,1.33 -8.7,0.96 -10.94,-2.44 -41.48,-62.49 -77.11,-48.83 -129.46,-27.29 -77.91,32.06 -145.07,83.56 -219.65,121.66 -36.95,18.89 -40.99,54.47 -43.72,90.18 -0.99,13 6.66,27.03 -4.99,38.64 -24.48,-12.18 -29.7,-37.7 -39.94,-59.29 -6.8,-14.34 -9.23,-30.87 -25.46,-38.82 -2.3,-30.55 8.53,-63.48 -16.36,-89.92 2.71,-2.73 5.45,-5.45 8.16,-8.18 28.54,-17.21 62.21,-12.68 93.06,-22.24 107.34,-33.3 202.04,-83.07 266.53,-179.42 7.91,-11.81 13.95,-27.37 31.61,-29.44 14.82,-0.54 15.1,10.97 12.84,19.48 -8.21,31.1 9.05,46.07 32.2,61.43 20.56,13.62 45.68,27.49 37.96,60.27z"/>
   <path class="fil2" d="M4730.24 539.58c-40,56.12 -83.01,110.12 -142.7,146.09 -76.62,46.23 -156.86,84.42 -249.77,82.83 -13.94,-7.86 -24.88,-18.72 -32.67,-32.72 134.2,31.63 234.99,-38.24 334.26,-111.11 20.48,-15.02 36.16,-34.6 47.61,-59.22 8.9,-19.15 17.88,-43.15 43.15,-50.44 0.05,5.47 0.1,10.94 0.14,16.43 2.81,1.81 3.74,3.61 2.81,5.43 -0.94,1.8 -1.88,2.7 -2.83,2.7z"/>
   <path class="fil2" d="M4411.36 964.71c-16.28,-98.34 12.56,-129.38 83.67,-158.72 43.71,-18.05 80.43,-52.34 122.64,-74.98 41.14,-22.06 84.31,-46.78 131.18,-47.17 33.09,-0.29 58.39,26.94 71.28,60.13 54.66,132.58 -29.68,245.98 -167.95,293.38 -101.78,34.91 -174.68,-1.75 -240.82,-72.63z"/>
   <path class="fil2" d="M4730.24 539.58c-0.01,-2.71 0,-5.43 0.02,-8.13 5.43,-0.02 10.87,-0.02 16.3,-0.04 -2.73,38.88 18,65.88 46.22,88.16 19.61,15.48 35.17,32.4 35.51,59.01 -5.44,0 -10.89,0 -16.34,-0.01 -10.53,-31.01 -33.46,-51.89 -61.55,-64.49 -23.9,-10.72 -28.83,-23.46 -18.06,-45.54 4.78,-9.79 9.88,-20.14 -2.1,-28.97z"/>
   <path class="fil2" d="M4305.12 564.04c0,-16.33 0,-32.65 0,-48.98 26.19,-37.92 30.91,-85.14 56.64,-124.1 35.57,-53.8 85.94,-83.17 144.37,-102.06 15.83,-5.11 31.29,3.03 44.22,13.58 -9.84,12.18 -24.2,14.38 -38.19,17.4 -87.07,15.36 -145.84,84.44 -151.33,178.29 -3.7,13.47 -4.7,27.52 -8.89,40.88 -5.83,14 -13.15,26.63 -29.32,30.8 -6.7,0.7 -12.54,-1.25 -17.5,-5.82z"/>
   <path class="fil2" d="M4509.46 310.69c13.62,-2.73 27.25,-5.47 40.88,-8.2 5.45,0.02 10.9,0.05 16.35,0.07 14,21.56 41.39,34.71 40.88,65.32 -1.67,0.77 -3.35,1.52 -5.04,2.31 -21.04,-1.68 -37.65,-14.21 -55.86,-22.84 -11.62,-13 -36.69,-12.42 -37.22,-36.65z"/>
   <path class="fil2" d="M4305.12 564.04c5.43,0.02 10.87,0.04 16.3,0.05 20.6,12.62 29.52,38.03 55.31,46.11 40.32,12.63 76.45,7.53 112.92,-13.03 72.68,-40.97 132.15,-90.44 132.9,-183.22 0.07,-8.1 2.5,-16.09 9.56,-21.54 9.59,-5.88 7.88,-15.53 8.16,-24.51 14.87,6.19 17.1,18.7 16.36,32.69 22.45,33.9 4.63,65.03 -7.06,96.27 -40.02,106.91 -186.6,188.71 -285.28,159.41 -37.89,-11.25 -59.75,-33.59 -59.27,-67.74 0.03,-8.16 0.07,-16.34 0.1,-24.5z"/>
   <path class="fil2" d="M4305.02 588.54c19.58,68.69 111.55,74.75 171.31,51.81 81.17,-31.16 142.69,-82.42 172.36,-168.55 8.47,-24.62 5.05,-47.59 7.94,-71.2 8.14,5.45 16.3,10.92 24.42,16.37 0.04,5.44 0.07,10.89 0.1,16.34 2.24,73.41 -38.52,125.23 -89.95,168.92 -48.94,41.56 -105.93,71.76 -169.92,81.81 -43.08,6.78 -85.9,0.14 -116.19,-38.16 1.1,-14.24 -11.85,-21.4 -16.44,-32.75 -0.07,-11.88 -0.05,-23.69 16.37,-24.58z"/>
   <path class="fil2" d="M4305.09 645.86c83.36,54.37 159.29,23.21 234.81,-19.58 76.35,-43.25 119.77,-109.93 141.25,-192.99 10.64,8.31 14.98,19.77 16.38,32.7 -73.78,176.61 -182.57,242.82 -376.12,228.87 -4.4,-16.69 -22.63,-28.76 -16.33,-49.01z"/>
   <path class="fil2" d="M4632.1 392.41c16.16,125.77 -93.04,203.69 -183.56,233.61 -52.8,17.47 -105.47,-10.81 -127.13,-61.93 8.16,-8.17 16.35,-16.36 24.51,-24.54 33.11,46.17 68.05,56.32 121.96,36.48 79,-29.04 142.66,-92.46 136.03,-192.7 -0.37,-5.48 0.56,-10.72 3.65,-15.41 0,0 0.01,-0.03 0.01,-0.03 16.06,0.3 18.59,14.13 24.53,24.52z"/>
   <path class="fil2" d="M4813.41 844.01c-2.83,55.12 -32.92,92.16 -66.3,122.29 -58.65,52.94 -128.46,76.86 -208.98,55.42 -29.96,-7.99 -53.62,-22.55 -72.97,-47.46 -45.73,-58.79 -25.95,-113.97 44.14,-141.69 56.85,-22.49 109.89,-55.14 163.32,-85.59 52.18,-29.75 98.29,-25.96 122.72,19.71 12.75,23.81 13.09,54.28 18.07,77.32z"/>
   <path class="fil2" d="M4607.56 367.92c28.91,60.5 -19.71,155.61 -79.67,190.1 -42.88,24.68 -86.48,51.54 -141.58,32.65 -26.84,-9.19 -42.47,-21.7 -40.39,-51.1 1.96,-13.81 -5.43,-29.48 8.14,-40.95 3.08,-2.72 6.64,-3.97 10.71,-3.76 24.55,14.8 38.89,43.87 74.8,43.23 70.4,-1.23 133.63,-76.32 118.93,-145.11 -2.88,-13.4 -9.48,-25.45 -12.23,-38.81 0.09,-4.09 1.51,-7.65 4.1,-10.77 21.44,2.62 37.97,16.74 57.19,24.53z"/>
   <path class="fil2" d="M4362.29 498.66c-2.73,-0.02 -5.47,-0.04 -8.22,-0.05 -5.51,-89.93 70.15,-181.44 155.39,-187.93 10.23,15.16 33.78,13.66 40.91,32.7 -0.03,2.71 -0.03,5.43 -0.03,8.15 -87.13,0.26 -138.03,50.51 -171.6,124.52 -3.96,8.78 -8.47,16.88 -16.45,22.6z"/>
   <path class="fil2" d="M4707.36 776.72c61.56,-0.34 91.83,49.66 76.99,104.98 -17.31,64.51 -112.33,124.68 -169.53,124.39 -68.99,-0.37 -103.18,-16.98 -122.21,-61.97 -9.51,-22.52 -5.9,-38.68 13.07,-53.11 55.87,-42.46 119.61,-72.16 178.32,-110.04 8.26,-5.33 20.93,-3.88 23.37,-4.26z"/>
   <path class="fil2" d="M4362.29 498.66c17.36,-68.28 56.6,-118.07 121.79,-147.07 22.69,-10.09 44.16,-11.73 66.26,-0.06 40.37,51.08 22.85,127.2 -40.06,174.14 -52.29,38.97 -107.95,28.81 -147.99,-27.01z"/>
   <path class="fil2" d="M4618.86 973.07c-30.28,-4.09 -53.57,-14.22 -61.19,-39.82 -6.12,-20.56 15.77,-29.97 29.11,-38.8 27.26,-18.04 46.08,-49.24 85.68,-49.32 20.16,-0.05 40.48,-17.85 56.06,9.84 14.93,26.55 6.64,49.29 -9.26,70.88 -26,35.3 -69.34,32.59 -100.4,47.22z"/>
   <path class="fil2" d="M4525.82 423.04c-0.78,39.01 -29.21,67.66 -63,67.63 -23.03,-0.02 -40.6,-7.09 -42.5,-32.55 -1.82,-24 50.38,-73.14 77.86,-72.92 27.15,0.23 25.48,22.4 27.64,37.84z"/>
  </g>
 </g>
</svg>
