<?xml version="1.0" encoding="UTF-8"?>
<!DOCTYPE svg PUBLIC "-//W3C//DTD SVG 1.1//EN" "http://www.w3.org/Graphics/SVG/1.1/DTD/svg11.dtd">
<!-- Creator: CorelDRAW 2019 (64 Bit) -->
<svg xmlns="http://www.w3.org/2000/svg" xml:space="preserve" width="58.816mm" height="37.062mm" version="1.1" style="shape-rendering:geometricPrecision; text-rendering:geometricPrecision; image-rendering:optimizeQuality; fill-rule:evenodd; clip-rule:evenodd"
viewBox="0 0 5867.37 3697.24"
 xmlns:xlink="http://www.w3.org/1999/xlink"
 xmlns:xodm="http://www.corel.com/coreldraw/odm/2003">
 <defs>
  <style type="text/css">
   <![CDATA[
    .fil0 {fill:#0A4192}
    .fil1 {fill:#0A4092;fill-rule:nonzero}
    .fil39 {fill:#1774B9;fill-rule:nonzero}
    .fil8 {fill:#1B4FA1;fill-rule:nonzero}
    .fil6 {fill:#1C57A6;fill-rule:nonzero}
    .fil4 {fill:#1D4E9E;fill-rule:nonzero}
    .fil7 {fill:#1D56A5;fill-rule:nonzero}
    .fil10 {fill:#1E4999;fill-rule:nonzero}
    .fil26 {fill:#275AA9;fill-rule:nonzero}
    .fil29 {fill:#2866B0;fill-rule:nonzero}
    .fil3 {fill:#295BAA;fill-rule:nonzero}
    .fil45 {fill:#2C6CB4;fill-rule:nonzero}
    .fil33 {fill:#305AA9;fill-rule:nonzero}
    .fil58 {fill:#3391CF;fill-rule:nonzero}
    .fil40 {fill:#3486C6;fill-rule:nonzero}
    .fil46 {fill:#3778BC;fill-rule:nonzero}
    .fil19 {fill:#3863AE;fill-rule:nonzero}
    .fil77 {fill:#389AD4;fill-rule:nonzero}
    .fil57 {fill:#3985C5;fill-rule:nonzero}
    .fil24 {fill:#3A65AE;fill-rule:nonzero}
    .fil78 {fill:#3B9BD4;fill-rule:nonzero}
    .fil16 {fill:#416CB4;fill-rule:nonzero}
    .fil59 {fill:#4595D1;fill-rule:nonzero}
    .fil22 {fill:#4670B6;fill-rule:nonzero}
    .fil56 {fill:#4693CF;fill-rule:nonzero}
    .fil41 {fill:#4E7ABC;fill-rule:nonzero}
    .fil60 {fill:#4E93CF;fill-rule:nonzero}
    .fil37 {fill:#5182C2;fill-rule:nonzero}
    .fil25 {fill:#5273B6;fill-rule:nonzero}
    .fil62 {fill:#54A4D9;fill-rule:nonzero}
    .fil20 {fill:#557BBB;fill-rule:nonzero}
    .fil55 {fill:#55A9DC;fill-rule:nonzero}
    .fil44 {fill:#5783C2;fill-rule:nonzero}
    .fil27 {fill:#5A7BBB;fill-rule:nonzero}
    .fil36 {fill:#5D95CF;fill-rule:nonzero}
    .fil76 {fill:#5EAFE1;fill-rule:nonzero}
    .fil43 {fill:#6095CF;fill-rule:nonzero}
    .fil23 {fill:#6383C0;fill-rule:nonzero}
    .fil61 {fill:#65A5D9;fill-rule:nonzero}
    .fil12 {fill:#6788C4;fill-rule:nonzero}
    .fil63 {fill:#68B9E8;fill-rule:nonzero}
    .fil47 {fill:#6BA2D7;fill-rule:nonzero}
    .fil21 {fill:#6C89C5;fill-rule:nonzero}
    .fil73 {fill:#6EC4EE;fill-rule:nonzero}
    .fil28 {fill:#6F90CB;fill-rule:nonzero}
    .fil2 {fill:#7086C2;fill-rule:nonzero}
    .fil93 {fill:#70CAF1;fill-rule:nonzero}
    .fil75 {fill:#71B1E0;fill-rule:nonzero}
    .fil42 {fill:#729FD4;fill-rule:nonzero}
    .fil17 {fill:#7490CA;fill-rule:nonzero}
    .fil90 {fill:#74D0F4;fill-rule:nonzero}
    .fil64 {fill:#75B6E4;fill-rule:nonzero}
    .fil14 {fill:#768FC9;fill-rule:nonzero}
    .fil79 {fill:#77CDF2;fill-rule:nonzero}
    .fil74 {fill:#79CAF0;fill-rule:nonzero}
    .fil80 {fill:#7AC6EE;fill-rule:nonzero}
    .fil38 {fill:#7B9ED3;fill-rule:nonzero}
    .fil53 {fill:#7BB6E3;fill-rule:nonzero}
    .fil13 {fill:#7D94CC;fill-rule:nonzero}
    .fil18 {fill:#7F98CE;fill-rule:nonzero}
    .fil34 {fill:#7FA4D6;fill-rule:nonzero}
    .fil54 {fill:#7FB2E0;fill-rule:nonzero}
    .fil92 {fill:#7FD3F4;fill-rule:nonzero}
    .fil35 {fill:#80A4D6;fill-rule:nonzero}
    .fil91 {fill:#80D2F4;fill-rule:nonzero}
    .fil9 {fill:#85A0D2;fill-rule:nonzero}
    .fil71 {fill:#85BCE6;fill-rule:nonzero}
    .fil100 {fill:#85D5F4;fill-rule:nonzero}
    .fil11 {fill:#869ED0;fill-rule:nonzero}
    .fil72 {fill:#86C5EB;fill-rule:nonzero}
    .fil52 {fill:#88B6E1;fill-rule:nonzero}
    .fil89 {fill:#89D6F4;fill-rule:nonzero}
    .fil87 {fill:#8ACDEF;fill-rule:nonzero}
    .fil51 {fill:#8CB6E0;fill-rule:nonzero}
    .fil15 {fill:#90A4D4;fill-rule:nonzero}
    .fil31 {fill:#90AEDA;fill-rule:nonzero}
    .fil103 {fill:#90D8F4;fill-rule:nonzero}
    .fil70 {fill:#92C2E8;fill-rule:nonzero}
    .fil32 {fill:#93B0DC;fill-rule:nonzero}
    .fil69 {fill:#97C2E8;fill-rule:nonzero}
    .fil84 {fill:#97D2F0;fill-rule:nonzero}
    .fil88 {fill:#98CFEF;fill-rule:nonzero}
    .fil5 {fill:#99ABD8;fill-rule:nonzero}
    .fil105 {fill:#9ADAF4;fill-rule:nonzero}
    .fil49 {fill:#9CB8E0;fill-rule:nonzero}
    .fil50 {fill:#9CBAE2;fill-rule:nonzero}
    .fil98 {fill:#9CDBF6;fill-rule:nonzero}
    .fil30 {fill:#9FB2DB;fill-rule:nonzero}
    .fil67 {fill:#A4C4E7;fill-rule:nonzero}
    .fil68 {fill:#A5C5E8;fill-rule:nonzero}
    .fil86 {fill:#A5D6F2;fill-rule:nonzero}
    .fil97 {fill:#A5DDF7;fill-rule:nonzero}
    .fil48 {fill:#A7B8DF;fill-rule:nonzero}
    .fil66 {fill:#ABBDE1;fill-rule:nonzero}
    .fil82 {fill:#ACCCEA;fill-rule:nonzero}
    .fil96 {fill:#AEE0F6;fill-rule:nonzero}
    .fil83 {fill:#B0CBE8;fill-rule:nonzero}
    .fil65 {fill:#B2C4E5;fill-rule:nonzero}
    .fil85 {fill:#B3D9F2;fill-rule:nonzero}
    .fil99 {fill:#B6E2F8;fill-rule:nonzero}
    .fil81 {fill:#B8CCE8;fill-rule:nonzero}
    .fil101 {fill:#BCE5F9;fill-rule:nonzero}
    .fil95 {fill:#BEDCF2;fill-rule:nonzero}
    .fil94 {fill:#C0D7EE;fill-rule:nonzero}
    .fil102 {fill:#C5DDF2;fill-rule:nonzero}
    .fil104 {fill:#C9E8F9;fill-rule:nonzero}
    .fil106 {fill:#CDEAFB;fill-rule:nonzero}
   ]]>
  </style>
    <clipPath id="id0">
     <path d="M4231.07 3.4l1104.25 0 0 981.56c0,184.35 -150.84,335.2 -335.18,335.2l-433.93 0c-184.33,0 -335.15,-150.84 -335.15,-335.2l0 -981.56z"/>
    </clipPath>
 </defs>
 <g id="Camada_x0020_1">
  <metadata id="CorelCorpID_0Corel-Layer"/>
  <g id="_2473425615040">
   <g style="clip-path:url(#id0)">
    <image x="4209.73" y="3.23" width="1134.84" height="1330.59" xlink:href="logo-blu_Images\logo-blu_ImgID1.png"/>
   </g>
   <path class="fil0" d="M535.38 1433.16l534.54 0c294.03,0 534.57,240.56 534.57,534.55l0 0.01c0,293.99 -240.55,534.52 -534.57,534.52 -294.02,0 -534.54,-240.54 -534.54,-534.52l0 -534.56zm-535.38 472.25l0 0c0,196.7 23.75,326.26 80.94,466.82 73.64,180.98 211.87,337.37 366.11,453.62 25.21,18.99 55.17,38.71 82.74,55.14 89.64,53.37 191.79,95.54 295.38,118.32 170.57,37.56 316.26,36.24 485.84,2.61 140.27,-27.86 251.35,-82.86 368.29,-160.32 25.44,-16.88 51.93,-36.42 74.08,-56.17 101.61,-90.58 209.75,-196.79 271.71,-322 24.83,-50.25 43.1,-80.28 62.09,-137.11 11.84,-35.48 21.55,-65.02 31.07,-102.98 43.31,-172.08 41.51,-390.27 -11.02,-559.72l-33.83 -96.39c-7.19,-18.04 -13.34,-29.46 -20.22,-44.91 -52.85,-118.88 -90.32,-152.36 -154.88,-235.83l-62.93 -67.31c-14.68,-11.63 -20.86,-17.65 -34.06,-31.04 -11.69,-11.83 -22.13,-19.6 -34.61,-30.53 -175.82,-153.69 -427.48,-248.1 -663.53,-248.1l-555.41 0c0,-75.83 -4.97,-114.96 -30.11,-184.41 -4.26,-11.71 -12.49,-31.87 -18.42,-42.87 -104.28,-193.9 -277.49,-266.88 -499.25,-266.88l0 1490.06z"/>
   <path class="fil0" d="M3696.4 1997.33c0,176.43 65.86,383.8 146.27,508.76 57.21,88.85 100.91,141.73 176.41,218.12 12.76,12.89 22.09,17.88 34.58,30.57 25.08,25.43 78.06,65.73 108.52,86.83 27.02,18.73 51.02,33.47 79.76,50.47 152.23,90.01 349.95,135.64 527.02,135.64 233.02,0 417.1,-63.03 602.94,-186.12 36.24,-24.04 113.18,-87.17 144.97,-119.34 44.12,-44.62 83.24,-88.98 121.04,-139.4 40.67,-54.18 68.57,-101.54 100.17,-164.17 53.2,-105.36 99.6,-270.36 99.6,-429.02l0 -1080.15c-64.42,0 -110.62,2.47 -170.11,17.57 -23.37,5.95 -41.39,10.06 -62.48,17.98 -134.75,50.53 -242.22,152.87 -287.87,290.52 -33.86,101.96 -27.29,194.41 -27.29,302.11 0,66.57 2.99,458.35 -1,489.3 -13.5,104.03 -40.26,168.06 -88.64,240.81 -86.99,130.83 -230.49,235.17 -439.01,235.17 -103.66,0 -189.03,-30.98 -255.05,-70.52 -100.77,-60.34 -182.35,-158.53 -227.07,-267.05 -44.13,-107.12 -34.98,-185.13 -34.98,-294.46 0,-120.28 7.92,-469.35 -9.28,-565.31 -25.48,-142.21 -117.37,-270.38 -244.82,-333.58 -95.06,-47.13 -181.48,-62.53 -293.68,-62.53l0 1087.82z"/>
   <path class="fil0" d="M2240.84 1974.35c0,166.32 36.6,314.01 88.15,428.96 47.3,105.43 131.79,225.76 213.44,307.49l67.77 62.5c25.78,20.04 45.41,38.81 72.69,57.53 97.28,66.74 100.86,69.31 206.61,118.98 36.77,17.3 105.76,38.09 145.85,49.5 33.41,9.53 72.38,16.36 108.8,21.45 36.59,5.1 76.76,10.78 119.44,10.78l700.95 0c0,-147.48 -29.81,-280.77 -131.18,-382.09 -256.98,-256.79 -467.25,-52.11 -752.38,-193.73 -115.64,-57.45 -204.16,-159.41 -255.15,-277.29 -49.88,-115.31 -37.2,-246.11 -37.2,-376.44 0,-149.4 7.69,-330.47 -3.96,-471.05 -5.42,-65.6 -31.31,-133.25 -58.54,-178.96 -41.4,-69.5 -106.62,-139.96 -178.8,-177.44 -96.44,-50.09 -187.46,-68.89 -306.49,-68.89l0 1068.69z"/>
   <path class="fil0" d="M2949.46 3023.91c0.39,0.35 1.13,-1.7 1.13,-1.15 -0.05,0.05 -1.52,0.75 -1.13,1.15z"/>
   <path class="fil1" d="M268.57 3598.68l48.34 0 -119.2 -331.3 -48.8 0 -119.2 331.3 47.87 0 32.83 -95.27 124.83 0 33.33 95.27zm-94.8 -285.79c0,0 7.04,30.04 12.68,46.94l36.6 105.11 -100.43 0 37.08 -105.11c5.62,-16.9 13.13,-46.94 13.13,-46.94l0.94 0zm163.32 256.69c0,0 31.91,34.74 90.09,34.74 52.08,0 85.88,-29.57 85.88,-68.99 0,-77.89 -122.01,-68.5 -122.01,-111.2 0,-20.65 19.23,-29.1 38.95,-29.1 37.54,0 58.66,21.12 58.66,21.12l18.3 -34.27c0,0 -24.39,-26.28 -76.48,-26.28 -47.4,0 -85.87,24.41 -85.87,67.58 0,77.43 122.01,68.5 122.01,112.15 0,19.24 -19.71,29.58 -39.42,29.58 -41.3,0 -68.05,-27.69 -68.05,-27.69l-22.05 32.37zm210.22 0c0,0 31.91,34.74 90.1,34.74 52.07,0 85.87,-29.57 85.87,-68.99 0,-77.89 -122,-68.5 -122,-111.2 0,-20.65 19.23,-29.1 38.95,-29.1 37.53,0 58.66,21.12 58.66,21.12l18.3 -34.27c0,0 -24.39,-26.28 -76.48,-26.28 -47.4,0 -85.87,24.41 -85.87,67.58 0,77.43 122.01,68.5 122.01,112.15 0,19.24 -19.71,29.58 -39.42,29.58 -41.3,0 -68.05,-27.69 -68.05,-27.69l-22.06 32.37zm228.99 -255.74l45.99 0 0 -46.46 -45.99 0 0 46.46zm0.47 284.84l45.52 0 0 -237.44 -45.52 0 0 237.44zm116.85 0l45.52 0 0 -111.22c0,-11.73 0.94,-22.53 3.75,-31.89 9.87,-34.28 38.95,-58.21 75.09,-58.21 38,0 45.05,26.3 45.05,59.61l0 141.72 45.52 0 0 -152.04c0,-60.54 -25.81,-91.04 -81.65,-91.04 -51.62,0 -79.79,33.8 -89.15,54.44l-0.95 0c0,0 0.95,-7.98 0.95,-17.36l0 -31.44 -44.12 0 0 237.44zm263.74 -66.64c0,47.41 39.88,72.27 80.7,72.27 56.79,0 76.03,-46.93 76.03,-46.93l0.93 0c0,0 -0.93,7.98 -0.93,18.77l0 22.52 42.24 0 0 -150.17c0,-60.05 -33.79,-92.91 -93.85,-92.91 -54.44,0 -88.69,28.16 -88.69,28.16l18.77 33.31c0,0 29.56,-22.99 66.16,-22.99 30.03,0 52.09,13.15 52.09,52.09l0 4.23 -10.33 0c-39.88,0 -143.11,3.28 -143.11,81.64zm45.98 -2.33c0,-42.71 61.94,-45.06 96.2,-45.06l11.73 0 0 7.51c0,35.19 -24.86,75.56 -63.34,75.56 -29.58,0 -44.59,-18.77 -44.59,-38.01zm229.46 -17.85c0,79.32 60.54,88.7 91.05,88.7 9.39,0 15.95,-0.94 15.95,-0.94l0 -40.36c0,0 -4.22,0.94 -10.78,0.94 -17.37,0 -50.69,-6.11 -50.69,-53.49l0 -105.58 57.25 0 0 -36.61 -57.25 0 0 -68.52 -44.11 0 0 68.52 -32.38 0 0 36.61 30.96 0 0 110.73zm154.87 1.42c0,62.89 27.68,91.04 81.17,91.04 46.46,0 77.43,-30.98 87.29,-54.45l0.93 0c0,0 -0.93,7.52 -0.93,17.37l0 31.44 44.1 0 0 -237.44 -45.51 0 0 111.21c0,46.93 -28.63,89.62 -76.95,89.62 -38.03,0 -44.59,-26.27 -44.59,-59.13l0 -141.71 -45.51 0 0 152.04zm283.9 85.4l45.51 0 0 -97.13c0,-14.54 1.42,-29.1 5.64,-42.7 10.79,-35.19 37.54,-55.85 66.64,-55.85 7.03,0 13.13,1.42 13.13,1.42l0 -45.06c0,0 -5.63,-0.94 -11.73,-0.94 -36.59,0 -64.28,27.21 -75.07,61.96l-0.95 0c0,0 0.95,-7.98 0.95,-17.85l0 -41.29 -44.11 0 0 237.44zm156.73 -66.64c0,47.41 39.89,72.27 80.7,72.27 56.79,0 76.04,-46.93 76.04,-46.93l0.93 0c0,0 -0.93,7.98 -0.93,18.77l0 22.52 42.23 0 0 -150.17c0,-60.05 -33.78,-92.91 -93.85,-92.91 -54.44,0 -88.68,28.16 -88.68,28.16l18.76 33.31c0,0 29.56,-22.99 66.17,-22.99 30.03,0 52.09,13.15 52.09,52.09l0 4.23 -10.33 0c-39.89,0 -143.12,3.28 -143.12,81.64zm45.99 -2.33c0,-42.71 61.94,-45.06 96.19,-45.06l11.73 0 0 7.51c0,35.19 -24.86,75.56 -63.34,75.56 -29.57,0 -44.58,-18.77 -44.58,-38.01zm326.14 -49.76c0,73.69 40.36,124.37 104.65,124.37 58.66,0 77.9,-44.11 77.9,-44.11l0.94 0c0,0 -0.47,6.56 -0.47,15.96l0 22.52 43.18 0 0 -331.3 -45.52 0 0 109.81c0,8.9 0.93,15.95 0.93,15.95l-0.93 0c0,0 -18.31,-37.55 -73.21,-37.55 -62.89,0 -107.46,48.81 -107.46,124.35zm46.46 0c0,-53.96 30.97,-84.92 68.5,-84.92 45.06,0 67.11,42.23 67.11,84.46 0,60.54 -33.31,85.42 -68.5,85.42 -39.41,0 -67.11,-33.33 -67.11,-84.95zm234.63 0c0,70.39 51.16,124.37 125.77,124.37 56.78,0 91.98,-33.8 91.98,-33.8l-18.77 -33.31c0,0 -29.55,27.69 -70.39,27.69 -42.23,0 -79.31,-26.3 -81.65,-78.37l173.17 0c0,0 1.4,-13.62 1.4,-19.71 0,-61.48 -35.65,-111.22 -102.76,-111.22 -67.58,0 -118.73,48.81 -118.73,124.35zm48.34 -27.68c6.56,-38.95 34.73,-60.52 69.45,-60.52 30.5,0 55.84,19.7 57.24,60.52l-126.69 0zm556.07 146.42l48.33 0 -119.2 -331.3 -48.79 0 -119.2 331.3 47.86 0 32.84 -95.27 124.83 0 33.33 95.27zm-94.8 -285.79c0,0 7.03,30.04 12.68,46.94l36.6 105.11 -100.43 0 37.08 -105.11c5.62,-16.9 13.13,-46.94 13.13,-46.94l0.94 0zm-21.11 -68.5l38.01 0 45.04 -59.6 -48.79 0 -34.26 59.6zm224.78 397.47l-15.01 35.66c22.98,11.73 52.56,19.71 81.19,19.71 60.05,0 119.66,-30.05 119.66,-108.4l0 -227.6 -43.64 0 0 22.06c0,4.22 0.47,7.5 0.47,7.5l-0.95 0c0,0 -17.35,-35.19 -74.61,-35.19 -65.7,0 -103.7,50.68 -103.7,118.73 0,68.5 39.88,121.54 106.05,121.54 34.26,0 56.3,-13.62 70.39,-37.08l0.93 0c0,0 -0.46,7.51 -0.46,15.01l0 17.38c0,48.33 -33.8,66.63 -75.09,66.63 -35.66,0 -65.23,-15.95 -65.23,-15.95zm78.37 -85.4c-42.71,0 -68.98,-33.8 -68.98,-83.07 0,-48.33 23.46,-78.36 64.77,-78.36 37.06,0 67.09,17.84 67.09,79.78 0,61.94 -30.03,81.65 -62.88,81.65zm175.51 -43.18c0,62.89 27.69,91.04 81.18,91.04 46.45,0 77.42,-30.98 87.29,-54.45l0.93 0c0,0 -0.93,7.52 -0.93,17.37l0 31.44 44.09 0 0 -237.44 -45.51 0 0 111.21c0,46.93 -28.63,89.62 -76.95,89.62 -38.03,0 -44.59,-26.27 -44.59,-59.13l0 -141.71 -45.51 0 0 152.04zm264.66 18.76c0,47.41 39.89,72.27 80.71,72.27 56.78,0 76.03,-46.93 76.03,-46.93l0.93 0c0,0 -0.93,7.98 -0.93,18.77l0 22.52 42.23 0 0 -150.17c0,-60.05 -33.78,-92.91 -93.85,-92.91 -54.43,0 -88.68,28.16 -88.68,28.16l18.76 33.31c0,0 29.56,-22.99 66.17,-22.99 30.03,0 52.09,13.15 52.09,52.09l0 4.23 -10.33 0c-39.89,0 -143.12,3.28 -143.12,81.64zm45.99 -2.33c0,-42.71 61.94,-45.06 96.19,-45.06l11.74 0 0 7.51c0,35.19 -24.87,75.56 -63.35,75.56 -29.57,0 -44.58,-18.77 -44.58,-38.01zm340.68 68.97l46.46 0 15.96 -208.82c1.41,-20.17 0.94,-49.74 0.94,-49.74l0.95 0c0,0 10.31,31.91 17.82,49.74l65.7 149.23 41.3 0 66.17 -149.23c7.98,-18.3 17.83,-48.8 17.83,-48.8l0.94 0c0,0 -0.94,28.63 0.47,48.8l16.43 208.82 45.99 0 -26.75 -331.3 -48.81 0 -76.02 179.26c-7.5,18.3 -16.43,44.57 -16.43,44.57l-0.94 0c0,0 -8.92,-26.28 -16.43,-44.57l-76.02 -179.26 -48.81 0 -26.75 331.3zm406.85 -284.84l45.99 0 0 -46.46 -45.99 0 0 46.46zm0.48 284.84l45.51 0 0 -237.44 -45.51 0 0 237.44zm116.85 0l45.51 0 0 -111.22c0,-11.73 0.94,-22.53 3.75,-31.89 9.87,-34.28 38.95,-58.21 75.09,-58.21 38.01,0 45.06,26.3 45.06,59.61l0 141.72 45.51 0 0 -152.04c0,-60.54 -25.81,-91.04 -81.65,-91.04 -51.62,0 -79.78,33.8 -89.15,54.44l-0.95 0c0,0 0.95,-7.98 0.95,-17.36l0 -31.44 -44.11 0 0 237.44zm266.54 -118.73c0,70.39 51.15,124.37 125.77,124.37 56.77,0 91.97,-33.8 91.97,-33.8l-18.76 -33.31c0,0 -29.56,27.69 -70.39,27.69 -42.24,0 -79.32,-26.3 -81.65,-78.37l173.16 0c0,0 1.4,-13.62 1.4,-19.71 0,-61.48 -35.64,-111.22 -102.75,-111.22 -67.59,0 -118.73,48.81 -118.73,124.35zm48.34 -27.68c6.56,-38.95 34.72,-60.52 69.44,-60.52 30.5,0 55.84,19.7 57.24,60.52l-126.68 0zm228.52 146.42l45.52 0 0 -97.13c0,-14.54 1.41,-29.1 5.64,-42.7 10.78,-35.19 37.53,-55.85 66.64,-55.85 7.03,0 13.13,1.42 13.13,1.42l0 -45.06c0,0 -5.63,-0.94 -11.73,-0.94 -36.59,0 -64.28,27.21 -75.08,61.96l-0.94 0c0,0 0.94,-7.98 0.94,-17.85l0 -41.29 -44.11 0 0 237.44zm156.74 -66.64c0,47.41 39.89,72.27 80.7,72.27 56.79,0 76.03,-46.93 76.03,-46.93l0.93 0c0,0 -0.93,7.98 -0.93,18.77l0 22.52 42.24 0 0 -150.17c0,-60.05 -33.79,-92.91 -93.85,-92.91 -54.44,0 -88.68,28.16 -88.68,28.16l18.76 33.31c0,0 29.56,-22.99 66.16,-22.99 30.03,0 52.09,13.15 52.09,52.09l0 4.23 -10.33 0c-39.88,0 -143.11,3.28 -143.11,81.64zm45.98 -2.33c0,-42.71 61.94,-45.06 96.2,-45.06l11.73 0 0 7.51c0,35.19 -24.86,75.56 -63.34,75.56 -29.58,0 -44.59,-18.77 -44.59,-38.01zm218.22 4.22c0,59.59 38.01,66.64 63.82,66.64 7.98,0 15.01,-0.94 15.01,-0.94l0 -40.36c0,0 -3.75,0.47 -7.98,0.47 -14.07,0 -25.33,-5.17 -25.33,-33.78l0 -258.57 -45.52 0 0 266.54z"/>
   <path class="fil2" d="M4791.09 0.01c48.17,48.6 96.35,97.19 144.52,145.81 -10.92,8.1 -18.39,1.74 -25.86,-6.53 10.35,22.34 41.19,35.74 27.67,67.28 -9.01,3.42 -16.09,-0.81 -23.06,-5.69 -40.64,-55.11 -91.11,-97.1 -156.71,-119.96 -12.14,-4.22 -29.51,-9.8 -18.24,-30.23 14.38,-16.88 28.75,-33.78 43.13,-50.68 2.84,0 5.71,0 8.55,0z"/>
   <path class="fil3" d="M5322.68 674.76c15.34,61.39 12.47,123.94 3.11,184.92 -21.63,141.03 -94.65,252.91 -203.92,343.45 -76.62,63.51 -162.85,100.99 -261.1,116.49 -69.9,11.02 -138.89,12.02 -207.59,-1.7 -47.78,-9.55 -96.26,-19.96 -136.79,-50.42 -2.57,-10.6 -12.07,-14.27 -19.59,-20.19 -12.2,-9.6 -16.42,-19.63 1.79,-27.81 46.61,12.78 82.43,48.11 131.3,58.04 183.75,37.3 349.44,7.35 492.01,-121.34 58.95,-53.22 106.02,-114.27 136.79,-187.74 38.28,-91.36 43.81,-183.68 11.87,-278.16 -5.42,-16.04 -16.66,-34.98 3.7,-50.23 33.08,13 31.3,45.56 36.3,71.52 6.28,32.72 10.71,66.62 6.15,100.49 4.09,-32.94 -2.52,-65.47 -4.14,-98.18 -0.72,-14.47 -2.5,-28.44 10.11,-39.14z"/>
   <path class="fil4" d="M5144.26 358.43c88.6,74.5 153,163.64 170.02,281.4 2.86,9.34 8.48,22.02 -2.27,26.48 -13.52,5.61 -13.44,-10.05 -17.31,-18.02 -34.27,-70.5 -75.57,-136.06 -132.73,-190.65 -17.86,-17.03 -29.69,-37.87 -36.69,-61.55 0.16,-15.65 -7.07,-35.11 18.98,-37.66z"/>
   <path class="fil5" d="M4482.59 315.66c27.95,-53.84 75.24,-89.64 119.6,-128.19 46.9,-18.49 93.62,-36.79 146,-27.14 18.56,3.41 35.82,6.89 45.14,25.56 1.32,4.42 0.8,8.64 -1.51,12.63 -10.14,7.71 -21.35,5.32 -32.62,3.6 -89.17,-13.69 -155.49,25.67 -212.62,89.47 -38.27,42.76 -68.51,89.66 -87.93,143.66 -4.37,12.13 -11.76,22.59 -21.78,31.03 -7.42,5.05 -14.91,9.89 -24.24,4.4 1.93,-61.32 30.42,-110.67 69.96,-155.02z"/>
   <path class="fil6" d="M4491.41 1224.35c-4.04,21.55 34.88,18.24 24.99,43.16 -33.26,-20.75 -71.03,-35.06 -96.31,-67.24 -42.93,-58.34 -80.67,-119.18 -104.61,-188.44 -9.43,-27.28 -12.85,-54.96 -18.46,-82.6 -4.32,-21.26 -14.97,-39.68 -29.15,-56.08 -2.44,-3.56 -4.27,-7.4 -5.73,-11.46 -2.75,-10.93 -2.77,-21.49 4.48,-30.98 19.74,-5.57 23.97,14.04 35.56,21.77 21.38,20.4 32.67,45.34 36.71,74.7 13.59,98.56 58.61,182.32 123.11,256.61 10.99,12.66 26.29,22.23 29.39,40.58z"/>
   <path class="fil7" d="M5133.58 402.41c30.67,45.5 75.92,79.91 104.82,125.03 26.59,41.52 60.16,81.46 73.57,132.6 0.77,-6.73 1.53,-13.47 2.3,-20.21 10.58,9.78 7.13,22.92 8.4,34.94 0,48.8 0,97.61 0,146.41 -6.68,-52.39 -19.86,-102.38 -34.33,-152.27 -3.34,-11.58 -6.22,-21.52 -17.76,-26.77 -38.43,-65.32 -83.74,-125.27 -138.3,-178.06 -6.11,-5.92 -7.91,-14.73 -8.97,-23.28 -0.66,-13.89 -1.4,-27.8 10.27,-38.38z"/>
   <path class="fil8" d="M4268.83 864.76c29.1,14.61 36.91,43.76 41.03,70.85 13.06,85.8 46.91,161.45 99.12,230.2 6.24,8.21 25.61,17.49 11.11,34.46 -39.72,-32 -78.47,-64.88 -100.79,-112.47 -26.32,-59.74 -39.81,-122.89 -50.47,-186.87 -2.02,-12.17 -9.8,-24.07 -0.01,-36.17z"/>
   <path class="fil9" d="M4482.59 315.66c-23.55,51.41 -53.92,99.83 -68.24,155.27 14.46,27.36 2.09,53.84 -2.65,80.53 -15.11,-6.34 -29.24,8.12 -44.43,2.24 -20.81,-54.35 10.01,-101.68 20.58,-151.75 28.75,-31.88 54.13,-67.45 94.75,-86.3z"/>
   <path class="fil10" d="M4268.83 864.76c27.6,66.07 18.57,142.51 58.1,205.36 4.02,6.39 -1.13,13.42 -7.62,17.68 -54.56,-69.74 -84.58,-148.39 -86.4,-237.32 -1.52,-3.93 -1.62,-7.85 -0.12,-11.8 23.04,-6.54 24.49,16.75 36.04,26.09z"/>
   <path class="fil11" d="M4644.76 145.4c11.12,-17.69 23.7,-33.95 43.2,-43.3 74.86,-10.65 129.47,29 181.76,73.76 8.81,7.54 14.61,17.52 9.01,30.15 -7.42,7.23 -16.5,8.48 -26.26,7.38 -9.55,-1.7 -17.71,-6.3 -25.3,-12.1 -36.78,-34.88 -80.82,-47.86 -130.86,-44.9 -17.77,1.06 -36.8,3.92 -51.55,-10.99z"/>
   <path class="fil12" d="M4936.64 205.5c0.3,-27.72 -28.04,-41.03 -34.75,-67.23 14.66,-8.82 21.8,11.46 33.72,7.54 15.72,12.71 34.03,22.94 41.52,43.51 9.5,40.15 34.19,74.44 44.27,114.43 3.41,15.72 4.9,31.25 -4.48,45.7 -9.62,7.67 -16.65,1.62 -23.7,-4.43 -25.31,-38.73 -29.74,-87.47 -59.32,-124.32 -3.68,-4.59 -1.31,-10.66 2.73,-15.21z"/>
   <path class="fil13" d="M4876.72 205.5c-35.46,-57.29 -92.19,-80 -153.98,-93.92 -11.78,-2.65 -25.67,3.01 -34.79,-9.48 9.15,-13.8 19.2,-26.71 34.3,-34.61 10.89,6.53 18.68,18.72 31.95,20.56 69.39,9.58 112.77,56.31 153.87,106.52 4.53,5.54 9.91,10.24 15.18,15.04 7.91,14.13 23.08,25.61 16.45,45.03 -25.93,10.02 -33.5,-14.04 -47.82,-25.64 -5.47,-7.54 -11.96,-14.47 -15.16,-23.51z"/>
   <path class="fil14" d="M4919.5 214.07c-17.52,-10.26 -28.7,-26.99 -42.74,-40.87 -33.87,-33.44 -65.83,-69.88 -119.64,-72.59 -16.68,-0.84 -38.31,-6.36 -34.88,-33.11 2.44,-8.95 8.33,-14.39 17.17,-16.81 7.66,27.21 34.75,25.15 53.66,33.68 54.32,24.51 96.72,61.1 126.47,112.56 4.73,5.72 5.47,11.44 -0.05,17.15z"/>
   <path class="fil15" d="M4644.76 145.4c49.81,1.23 100.56,-6.44 147.66,18.37 16.23,8.55 33.11,15.26 41.51,33.16 -17.12,11.39 -30.06,1.84 -42.84,-8.54 -43.62,-27.4 -89.24,-22.95 -135.85,-9.33 -17.17,5.02 -32.62,23.25 -53.05,8.44 11.43,-16.83 25.15,-31.34 42.57,-42.1z"/>
   <path class="fil16" d="M4235.75 710.56c0.61,-17.36 -7.35,-35.94 7.3,-51.31 22.46,-10.57 29.19,6.29 36.39,21.33 7.78,16.22 8.47,35.27 19.59,50.22 12.96,32.6 35.93,60.44 45.43,94.76 -0.03,4.28 -0.81,8.4 -2.23,12.44 -2.98,5.92 -7.51,10.16 -13.67,12.56 -4.23,0.51 -8.12,-0.52 -11.68,-2.77 -34.48,-41.33 -48.75,-94.63 -81.13,-137.23z"/>
   <path class="fil17" d="M4328.4 478.34c-0.39,-12.25 4.81,-20.85 16.54,-25.16 20.57,1.99 18.93,17.35 18.17,31.3 -2.64,48.12 4.98,96 3.43,144.06 0.25,16.23 1.1,32.57 -9.31,46.66 -4.73,3.64 -9.61,3.84 -14.66,0.66 -33.31,-63.78 -34.54,-129.88 -14.17,-197.52z"/>
   <path class="fil18" d="M4354.46 633.56c-0.01,-46.95 0.27,-93.88 -0.2,-140.81 -0.13,-13.66 4.51,-28.94 -9.33,-39.57 4.94,-24.91 24.76,-37.37 42.91,-51.22 13.4,18.93 3.65,40.41 -3.13,54.85 -15.45,32.96 -12.33,66.12 -13.13,99.73 15.06,16.75 11.72,36.04 7.78,55.47 -5.05,10.9 -8.79,23.41 -24.9,21.56z"/>
   <path class="fil19" d="M4235.75 710.56c6.39,-2.58 12.79,-6.1 17.36,3.02 22.3,44.67 44.73,89.31 67.12,133.95 -6.89,7.1 -14.8,8 -23.51,3.89 -22.45,-25.06 -40.66,-52.7 -52.95,-90.49 1.18,19.56 2.12,33.82 1.86,48.12 -0.57,11.08 -0.84,22.22 -9.7,30.61 -1.01,3.61 -2.01,7.22 -3.01,10.82 -15.09,-46.97 -6.41,-93.45 2.84,-139.92z"/>
   <path class="fil20" d="M5013.6 299.69c-13.7,-36.27 -47.3,-65.98 -36.47,-110.36 17.31,19.69 46.19,28.22 54.42,56.63 12.29,29.43 23.19,59.05 13.43,91.7 -11.15,13.05 -16.81,3.71 -21.04,-5.91 -4.51,-10.27 -3.36,-22.49 -10.33,-32.06z"/>
   <path class="fil21" d="M4328.4 478.34c0.64,66.49 -3.96,133.45 17.5,198.1 8.61,10.73 10.29,21.91 2.09,33.71 -16.01,5.83 -21.47,-5.62 -27.28,-16.56 -13.32,-56.32 -22.46,-113.28 -25.12,-171.17 9.03,-16.11 10.7,-37.69 32.81,-44.07z"/>
   <path class="fil22" d="M5039.43 342.5c3.28,-32.66 -14.63,-63.6 -7.88,-96.54 15.74,9.8 32.47,18.52 39.94,37.18 -0.37,32.82 15.26,62.72 17.42,95.12 1.35,8.23 1,16.17 -4.12,23.26 -18.88,7.42 -23.56,-11.82 -34.97,-18.56 -10.36,-11.71 -13.63,-25.26 -10.39,-40.47z"/>
   <path class="fil23" d="M4295.59 522.41c7.34,1.38 15.74,4.74 14.83,12.37 -6.53,54.48 17.22,105.29 18.33,158.76 -21.68,0.77 -22.59,-20.3 -33.11,-31.31 -17.91,-33.14 -11.68,-70.27 -17.34,-105.44 -4.37,-16.56 13.24,-22.07 17.29,-34.37z"/>
   <path class="fil24" d="M5082.15 376.72c-0.59,-31.52 -35.66,-59.14 -10.65,-93.57 12.81,15.59 35.37,21.4 42.74,42.47 -2.98,25.52 13.13,52.09 -4.35,76.8 -23.84,7.2 -19.08,-16.48 -27.73,-25.7z"/>
   <path class="fil25" d="M4294.51 736.32c-18.36,-6.9 -14.74,-24.91 -20.09,-38.64 -6.18,-15.85 -5.59,-38.24 -31.36,-38.44 3.55,-14.36 7.1,-28.7 10.65,-43.06 4.28,-8.94 9.08,-18.63 20.64,-17.1 7.45,0.99 11.6,9.39 10.43,16.17 -5.14,29.91 17.36,52.46 20.32,80.09 0.38,14.66 1.78,29.61 -10.59,40.97z"/>
   <path class="fil26" d="M5107.9 402.39c10.17,-24.92 -17.72,-53 6.33,-76.78 11.31,9.75 24.62,17.66 30.03,32.82 -16.78,11.45 -8.64,28.95 -10.67,43.98 -0.02,14.28 -0.03,28.56 -0.05,42.86 -9.5,4.44 -15.31,-1.18 -20.89,-7.56 -5.99,-11.17 -7.15,-23 -4.75,-35.31z"/>
   <path class="fil27" d="M4294.53 693.5c-4.6,-24.77 -19.17,-46.2 -18.11,-73.58 1.24,-32.27 -14.71,-3.13 -22.72,-3.72 8.21,-19.81 16.41,-39.62 24.6,-59.42 17.97,17.2 13.24,40.6 15.69,61.6 1.65,14.16 1.64,28.21 9.11,40.9 5.83,10.33 7.62,21.08 3.16,32.42 -3.36,4.12 -7.29,4.73 -11.73,1.8z"/>
   <path class="fil28" d="M4919.5 214.07c0.02,-5.73 0.03,-11.43 0.05,-17.15 5.69,2.85 11.38,5.72 17.09,8.58 30.28,41.15 47.96,87.85 59.96,137.01 4.7,5.39 5.41,11.14 1.57,17.31 -19.87,3.75 -23.49,-13.91 -32.5,-24.54 -7.12,-27.06 -35.8,-46.19 -29.07,-78.4 -5.69,-14.28 -11.39,-28.53 -17.1,-42.81z"/>
   <path class="fil29" d="M5116.45 436.67c5.71,2.86 11.4,5.72 17.09,8.6 17.25,25.37 37.13,48.25 60.05,68.82 38.63,34.66 61.86,79.03 77,128.04 8.91,55.86 35.14,109.02 33.48,166.03 -3.73,128.49 -55.93,237.59 -144.38,329.39 -73.52,76.3 -162.23,134.02 -265.15,153 -131.91,24.36 -266.39,29.76 -383.64,-58.79 -5.33,-4.03 -12.95,-5 -19.49,-7.41 -91.92,-78.36 -145.36,-178.03 -162.43,-297.07 -4.02,-28.08 -17.43,-50.08 -34.46,-71.05 -2.64,-1.93 -3.5,-3.84 -2.62,-5.75 0.89,-1.9 1.77,-2.86 2.65,-2.86 8.57,-0.03 17.12,-0.06 25.67,-0.1 2.78,0.04 5.56,0.05 8.34,0.04 25.33,15.95 36.32,40.8 36.11,68.78 -0.65,90.47 46.9,159.23 99.38,225.68 123.98,157.01 357.45,161.86 516.75,83.76 143.35,-70.29 247.02,-179.68 280.25,-339.89 27.61,-133.16 -8.99,-253.81 -97.25,-357.97 -10.45,-18.06 -25.67,-32.15 -39.18,-47.7 -10.89,-12.5 -22.11,-25.95 -8.17,-43.55z"/>
   <path class="fil30" d="M4431.49 462.37c11.04,-22.78 22.24,-45.49 33.13,-68.36 33.83,-71.14 81.36,-129.99 148.62,-172.88 56.15,-35.78 115.36,-39.75 177.84,-24.19 13.27,5.44 24.97,11.68 15.32,29.17 -7.71,5.27 -16.38,6.41 -25.42,6.03 -132.26,-31.35 -219.81,43 -286.82,164.57 -18.37,33.31 -17.07,75.03 -46.14,103.31 -7.18,2.22 -13.74,1.3 -19.52,-3.77 -7.14,-12.02 -3.94,-23.11 2.99,-33.87z"/>
   <path class="fil31" d="M4808.26 222.59c-5.73,-8.55 -11.44,-17.11 -17.19,-25.66 0.02,-2.84 0.02,-5.71 0.02,-8.55 14.3,2.84 28.56,5.69 42.84,8.54 5.69,2.87 11.38,5.76 17.05,8.61 27.47,25.42 63.34,45.82 55.15,92.5 -2.76,3.28 -6.29,5.3 -10.52,6.06 -35.32,-20.46 -60.29,-52.09 -87.34,-81.49z"/>
   <path class="fil32" d="M4431.49 462.37c0.02,11.41 0.03,22.82 0.05,34.26 24.12,42.87 3.35,84.04 -4.73,125.72 -11.73,10.22 -18.63,1.3 -25.86,-6.51 -8.06,-20.54 -11.17,-40.7 4.67,-59.37 -3.01,-29.1 4.24,-57.18 8.73,-85.52 5.71,-2.86 11.41,-5.71 17.14,-8.57z"/>
   <path class="fil33" d="M4294.56 847.62c-0.01,2.86 -0.01,5.75 -0.03,8.61 -8.57,-8.55 -17.14,-17.11 -25.7,-25.64 -15.93,-2.54 -23.78,-15.79 -34.19,-25.65 1.79,-17.51 -4.21,-35.72 5.18,-56.25 27.37,30 38.54,65.93 54.74,98.93z"/>
   <path class="fil8" d="M4234.64 804.95c17.44,0.49 26.65,11.95 34.19,25.65 0,11.39 0,22.77 0,34.17 -18.14,1 -18.77,-20.92 -32.93,-25.11 -0.4,-11.56 -0.84,-23.14 -1.26,-34.71z"/>
   <path class="fil34" d="M4405.62 556.46c0.1,20.01 0.18,40 0.27,60.02 14.91,22.45 13.33,47.03 9.44,71.92 -1.28,4.75 -3.55,9.03 -6.73,12.78 -29.81,-11.97 -41.15,-37.86 -37.06,-84.66 0.02,-20 0.04,-39.99 0.05,-59.97 11.33,-5.34 22.63,-29.77 34.04,-0.08z"/>
   <path class="fil35" d="M4902.5 299.6c3.31,-42.57 -41.05,-59.04 -51.51,-94.07 8.57,-0.01 17.15,-0.01 25.72,-0.03 11.09,0.3 16.82,6.01 17.14,17.1 19.79,35.33 59.74,60.34 55.29,108.08 -2.13,3.74 -5.37,5.9 -9.66,6.44 -19.05,-5.86 -28.45,-21.26 -36.98,-37.52z"/>
   <path class="fil36" d="M4996.56 359.65c0.02,-5.73 0.04,-11.43 0.05,-17.14 5.68,2.84 11.36,5.7 17.04,8.54 32.13,16.78 28.04,50.31 36.29,78.2 0.59,16.44 2.57,33.12 -7.04,48.08 -23.27,8.37 -26.22,-12.67 -35.59,-24.52 -0.95,-31.32 -31.76,-59.29 -10.74,-93.16z"/>
   <path class="fil37" d="M5039.44 428.03c-6.86,-26.24 -10.88,-53.44 -25.8,-76.98 0,-17.12 -0.02,-34.24 -0.04,-51.36 16.57,9.46 12.09,31.62 25.83,42.81 13.7,7.43 3.31,26.78 16.95,34.25 8.87,20.27 20.28,40.34 4.71,62.46 -10.99,3.61 -16.61,-3.19 -21.65,-11.17z"/>
   <path class="fil38" d="M4945.24 333.88c-2.86,-43.68 -43.76,-69.8 -51.39,-111.28 14.26,11.43 28.49,22.84 42.75,34.28 7.96,27.21 34.97,45.95 34.34,77 5.88,7.91 7.49,16.17 2.15,25.06 -20.95,4.63 -29.37,-4.7 -27.85,-25.06z"/>
   <path class="fil39" d="M5167.8 522.15c71.3,67.91 102.34,154.29 111.01,249.52 13.68,150.26 -49.84,267.37 -155.96,368.94 -128.87,123.34 -280.3,163.65 -452.64,135.07 -134.75,-22.36 -219.79,-108.99 -280.92,-224.52 -22.73,-42.96 -42.05,-86.77 -34.96,-137.4 3.73,-26.7 -22.61,-42 -25.77,-66.2 2.99,-2.88 5.98,-5.76 8.95,-8.64 34.71,3.92 38.87,32.69 45.75,57.97 19.14,70.31 39.67,139.8 81.09,201.17 62.26,92.26 148.86,141.96 259.61,149.23 77.56,5.1 154.39,-0.13 225.68,-33.66 139.14,-65.44 252.9,-158.63 286.94,-316.18 31.34,-145.01 -12.61,-272.29 -119.55,-376.45 -11.36,-12.65 -22.24,-25.7 -30.41,-40.78 -1.85,-6.32 -1.41,-12.39 2.24,-18.03 38.16,4.38 54.32,37.74 78.92,59.95z"/>
   <path class="fil40" d="M5116.44 513.97c43.01,15.32 56.43,57.19 79.07,90.05 79.42,115.14 79.01,241.56 30.54,364.29 -34.3,86.85 -101.32,153.44 -182.14,206.1 -87.3,56.91 -179.1,85.56 -283.66,85.2 -150.63,-0.5 -258.98,-64.48 -329.91,-196.67 -27.86,-51.94 -42.88,-107.91 -57.48,-163.86 -6.44,-24.76 -15.99,-44.5 -35.33,-60.15 0.02,-2.77 0.05,-5.54 0.09,-8.3 7.69,-6.37 9.26,-18.67 20.7,-21.48 12.73,-1.35 19.02,6.87 24.51,16.36 20.38,29.39 31.96,61.42 39,97.05 15.95,80.64 53.19,151.57 110.73,211.1 51.69,74.33 128.02,94.14 212.48,96.74 224.05,6.88 369.59,-107.01 463.33,-300.7 10.02,-20.66 12.42,-43.84 19.79,-65.4 11.29,-40.24 5.73,-79.75 -5.14,-118.98 -1.51,-3.96 -2.6,-8.03 -3.46,-12.15 -3.59,-64.55 -43.3,-112.56 -74.9,-164.4 -10.67,-17.51 -31.39,-30.1 -28.21,-54.79z"/>
   <path class="fil41" d="M4354.5 813.35c-0.32,10.93 -5.85,16.81 -16.9,17.28 -10.48,-33.21 -37.34,-58.94 -43.1,-94.3 0,-14.28 0,-28.55 0.02,-42.83 2.84,0.02 5.71,0.02 8.57,0.02 6.32,-2.13 12.3,-0.08 13.57,5.91 7.7,36.61 32.03,66.32 41.79,102.02 0.36,4.51 -0.99,8.48 -3.95,11.9z"/>
   <path class="fil42" d="M4371.53 616.52c13.45,27.7 12.22,61.28 34.21,85.59 10.12,10.12 9.61,21.32 3.48,33.15 -14.03,11.87 -26.53,5.01 -38.95,-3.14 -12.93,-16.36 -23.28,-33.51 -15.87,-55.71 0.01,-14.28 0.03,-28.54 0.06,-42.84 5.7,-5.69 11.38,-11.36 17.07,-17.05z"/>
   <path class="fil43" d="M4354.4 676.4c5.74,17.14 11.47,34.26 17.22,51.39 24.7,19.14 35.62,45.72 40.76,75.46 -0.74,4.38 -2.64,8.17 -5.68,11.41 -35.35,-0.66 -42.13,-33.22 -59.88,-53.59 -7.82,-16.65 -15.56,-33.34 -1.04,-50.45 0.05,-11.39 0.08,-22.78 0.11,-34.2 2.83,0 5.68,-0.02 8.51,-0.02z"/>
   <path class="fil44" d="M4345.78 710.62c-2.84,18.1 5.77,34.26 8.63,51.39 7.98,14.27 13.05,28.52 -0.01,42.78 -24.07,-33.87 -39.23,-71.86 -51.31,-111.26 0,-11.41 0,-22.82 0,-34.24 8.55,11.41 17.1,22.84 25.65,34.26 5.69,5.69 11.36,11.39 17.04,17.08z"/>
   <path class="fil45" d="M5167.8 522.15c-29.64,-14.74 -50.58,-40.66 -76.85,-59.74 -15.94,-18.11 -12.86,-38.98 -8.73,-60 -0.04,-8.57 -0.05,-17.13 -0.07,-25.7 8.58,8.57 17.17,17.12 25.75,25.68 12.46,9.03 7.29,22.46 8.55,34.28 -3.16,21.11 11.57,32.53 23.97,45.63 11.12,11.76 27.1,20.53 27.38,39.85z"/>
   <path class="fil46" d="M5082.22 402.41c16.46,18.03 5.1,40.11 8.73,60 -0.05,5.66 -0.1,11.31 -0.13,16.95 -17.63,3.37 -22.31,-13.62 -33.14,-20.99 -4.92,-6.96 -8.57,-14.04 -1.13,-21.66 -0.07,-20 -0.12,-39.97 -0.17,-59.97 13.63,3.5 15.09,19.24 25.84,25.67z"/>
   <path class="fil47" d="M4970.81 359.68c0.05,-8.6 0.08,-17.2 0.13,-25.8 8.54,8.58 17.07,17.17 25.62,25.77 -4.49,33.28 25.07,60.34 17.21,94.22 4.68,5.58 5.39,11.44 1.31,17.68 -9.93,4.05 -16.53,-1.18 -22.59,-8.03 -8.2,-15.1 -13.45,-31.61 -22.14,-46.54 -7.65,-19.15 -15.75,-38.35 0.46,-57.3z"/>
   <path class="fil48" d="M4448.62 496.59c16.96,-75.81 49.9,-143.28 102.65,-200.98 63.21,-69.16 138.52,-98.21 231.27,-72.96 13.38,15.67 47.85,11.86 41.96,45.39 -17.15,10.07 -33.21,0.68 -49.63,-2.62 -6.05,-2.07 -11.67,-4.98 -17.16,-8.15 -86.87,-25.82 -148.76,17.41 -200.85,77.56 -41.05,47.42 -70.08,102.98 -81.14,166.22 -7.15,14.57 -2.37,39.09 -30.2,36.5 -7.64,-14.32 -6.81,-27.97 3.1,-40.95z"/>
   <path class="fil49" d="M4825.35 265.48c-6.33,-22.22 -40.74,-16.38 -42.81,-42.84 8.57,-0.02 17.15,-0.04 25.72,-0.05 37.52,15.72 59.88,48.23 85.55,77.08 9.23,9.25 17.95,18.65 11.01,33.25 -10.4,7.92 -20.01,2.06 -29.78,-1.62 -22.46,-17.48 -48.34,-32.4 -49.7,-65.83z"/>
   <path class="fil50" d="M4448.62 496.59c0,14.28 0.01,28.55 0.01,42.84 16.58,18.63 11.16,41.17 11.24,62.75 -2.41,16.57 -5.77,32.69 -22.39,41.63 -12.79,-0.12 -13.7,-9.43 -14.53,-18.8 -4.26,-43.26 14.12,-85.01 8.58,-128.37 5.69,-0.02 11.39,-0.02 17.09,-0.04z"/>
   <path class="fil51" d="M4902.36 333.91c-2.84,-11.41 -5.71,-22.82 -8.55,-34.24 2.9,-0.01 5.8,-0.03 8.69,-0.07 20.08,2.76 23.63,22.01 34.19,34.26 8.21,15.79 21.98,30.28 11.83,50.4 -5.1,5.52 -11.44,6.76 -18.56,5.42 -20.28,-13.08 -32.32,-30.28 -27.59,-55.76z"/>
   <path class="fil52" d="M4422.96 624.99c6.81,3.72 8.38,10.07 8.58,17.11 17.48,13.26 21.06,33.32 25.99,52.78 1.5,11.47 1.05,22.64 -5.86,32.62 -33.09,12.74 -35.51,-15.91 -45.77,-33.97 0,-25.69 0,-51.38 -0.01,-77.05 5.69,2.84 11.37,5.69 17.07,8.51z"/>
   <path class="fil53" d="M4405.9 693.54c14.9,10.58 21.94,30.93 42.66,34.25 15.33,4.7 19.2,18.97 25.99,30.88 4.39,9.34 7.86,18.89 6.17,29.5 -1.1,4.06 -3.1,7.59 -5.98,10.65 -5.7,3.12 -11.62,3.47 -17.73,1.49 -18,-12.25 -29.9,-31.56 -49.03,-42.57 -5.86,-6.63 -9.31,-13.52 -2.13,-21.45 -0.04,-11.39 -0.07,-22.78 -0.1,-34.18 0.05,-2.86 0.1,-5.71 0.16,-8.57z"/>
   <path class="fil54" d="M4945.24 385.29c-2.84,-17.14 -5.69,-34.29 -8.55,-51.43 2.86,0.03 5.71,0.03 8.55,0.03 5.57,11.51 14.07,20.13 25.57,25.79 -2.59,20.76 3.83,40.19 8.68,59.87 5.63,10.48 8.76,20.53 -5.01,27.48 -20.45,-15.5 -26.25,-37.97 -29.24,-61.75z"/>
   <path class="fil55" d="M5013.57 471.01c0.07,-5.71 0.12,-11.43 0.19,-17.14 13.53,3.57 14.92,19.22 25.55,25.67 7.18,5.53 8.8,13.6 10.17,21.82 2.42,45.78 45.02,61.38 68.69,91.18 2.47,2.99 4.64,6.22 6.66,9.54 9.85,16.48 19.96,32.77 33.63,46.56 8.65,9.5 15.77,19.84 18.86,32.54 3.3,21.04 6.7,42.43 13.2,62.34 34.27,104.93 1.11,196.66 -58.49,279.99 -39.2,54.83 -82.27,109.76 -154.33,126.91 -7.1,0.8 -14.43,1.49 -20.54,5.17 -74.99,45.23 -158.14,43.31 -240,35.87 -45.68,-4.16 -97.66,-9.28 -118.16,-64.92 26.3,-24.74 44.12,12.95 67.62,9.09 186.07,60.91 384.55,-36.82 459.92,-216.32 30.69,-73.05 14.72,-149.15 -15.86,-219.81 -16.19,-37.38 -38.27,-72.09 -68.58,-101.96 -34.9,-34.43 -55.08,-76.29 -28.53,-126.52z"/>
   <path class="fil56" d="M5116.55 607.93c-0.07,-2.82 -0.12,-5.65 -0.14,-8.5 -24.54,-32.26 -55.53,-59.28 -76.9,-94.13 -0.07,-8.59 -0.13,-17.17 -0.2,-25.76 0.05,-17.17 0.08,-34.34 0.13,-51.51 5.71,2.89 11.4,5.8 17.11,8.69 0.18,7 1.53,13.45 8.43,17.13 13.3,29.92 31.54,56.03 53.59,80.56 52.41,58.32 89.36,125.68 109.16,201.96l0 -0.02c7.13,10.53 3.92,21.94 2.81,33.18 -22.74,12.96 -30.17,-5.34 -35.92,-19.95 -9.5,-24.12 -20.01,-47.96 -26.73,-73.14 -5.76,-8.52 -11.5,-17.04 -17.26,-25.56 -10.68,-14.86 -15.31,-34.51 -34.08,-42.96z"/>
   <path class="fil57" d="M5227.73 736.37c-36,-65.98 -58.38,-140.16 -114.62,-193.95 -25.77,-24.66 -49.79,-49.4 -48.12,-88.58 13.65,3.42 15.03,19.24 25.84,25.52 13.53,7.83 24.91,17.27 25.62,34.61 43.42,50.96 75.58,109.16 106.98,167.74 9.17,17.09 2.76,36.41 4.31,54.66z"/>
   <path class="fil58" d="M5167.89 676.44c26.86,26.97 22.95,73.5 59.8,94.12 14.8,30.31 16.63,61.82 8.64,94.22 -35.07,153.59 -126.01,262.72 -265.62,332.74 -113.27,56.79 -230.6,57.73 -349.66,22.51 -43.04,-12.75 -71.17,-45.16 -95.35,-81.18 14.89,-8.58 31.69,-5.89 47.71,-8.11 30.22,5.79 47.42,33.48 76.48,43.16 115.75,38.56 224.91,24.98 329.66,-35.07 78.44,-25.39 124.17,-88.12 164.48,-152.75 34.46,-55.28 54.62,-118.59 48.59,-185.35 -3.77,-41.91 -24.78,-81.12 -24.74,-124.28z"/>
   <path class="fil59" d="M4568.46 1138.65c-14.25,4.24 -28.5,4 -42.77,0.2 -66.41,-60.59 -101.39,-139.02 -117.04,-224.71 -6.01,-32.95 -20.8,-57.49 -37.01,-83.58 19.1,-12.46 31.93,5.76 47.73,9.68 17.52,9.09 28.04,23.53 30.92,42.94 12.27,83.22 44.25,156.84 103.01,218.29 9.11,9.53 20.29,20.7 15.15,37.18z"/>
   <path class="fil60" d="M4414.42 847.59c-14.26,-5.68 -28.51,-11.36 -42.77,-17.03 -0.44,-11.01 -6.03,-16.89 -17.15,-17.22 -0.02,-2.86 -0.05,-5.71 -0.1,-8.57 0,-14.26 0.01,-28.51 0.01,-42.78 21.38,12.88 26.75,41.73 51.34,51.38 16.33,8.01 19.09,19.44 8.67,34.22z"/>
   <path class="fil57" d="M5236.32 864.78c5.22,-32.15 -8.52,-62.57 -8.62,-94.22 0,-11.4 0,-22.81 0.02,-34.21 19.71,41.68 25.85,84.26 8.6,128.43z"/>
   <path class="fil61" d="M4405.84 736.28c0.22,7.02 1.65,13.47 8.51,17.19 9.86,19.49 30.83,33.78 27.74,59.35 -2.82,3.25 -6.31,5.43 -10.45,6.61 -12.47,2.01 -19.7,-5.27 -25.79,-14.59 -11.41,-25.68 -22.81,-51.37 -34.23,-77.05 11.41,2.83 22.8,5.68 34.22,8.5z"/>
   <path class="fil62" d="M4405.85 804.84c8.54,2.86 17.07,5.75 25.61,8.61 29.61,16.39 41.57,41.1 47.74,75.1 15.15,83.35 45.2,160.73 116.18,214.94 5.67,4.35 10.2,9.97 7.35,18.17 25.69,46.57 72.22,56.68 117.72,58.83 81.48,3.8 164.81,10.5 238.35,-38.99 5.17,-3.48 13.75,-1.91 20.75,-2.67 -23.71,29.1 -58.41,39.68 -91.78,48.62 -106.8,28.6 -211.11,32.22 -303.42,-43.86 -3.98,-3.26 -10.54,-3.34 -15.89,-4.93 -42.98,-55.26 -92.51,-106.46 -111.46,-176.71 -6.58,-24.41 -13.27,-49.12 -16.17,-74.11 -2.24,-19.21 -10.24,-31.64 -26.42,-40.23 1.28,-12.45 -2.82,-23.54 -8.67,-34.22 0.04,-2.84 0.07,-5.69 0.1,-8.54z"/>
   <path class="fil63" d="M5013.57 471.01c-6.22,56.01 13.27,98.17 55.03,138.62 71.3,69.02 111.64,257.73 50.11,354.03 -97.08,151.96 -229.15,208.69 -400.31,201.09 -20.84,-0.93 -33.94,-22.27 -55.71,-17.48 -47.71,-34.34 -98.02,-63.2 -131.67,-116.51 -27.59,-43.67 -41.64,-89.39 -48.73,-137.75 -4.09,-27.77 -9.14,-52.14 -30.11,-71.49 -2.93,-9.32 -2.51,-17.98 5.03,-25.2 5.75,0 11.46,-0.01 17.19,-0.03 36.69,15.42 50.11,45.82 54.32,82.83 6.74,59.2 25.16,112.37 67.38,157.87 83.62,90.11 187.95,113.54 301.64,62.9 13.68,-5.9 27.08,-12.37 40.16,-19.56 165.01,-89.25 217.86,-257.89 108.02,-414.59 -15.36,-21.9 -30.89,-44.04 -51.34,-62.38 -23.19,-20.8 -17.84,-49.1 -15.24,-76.08 9.37,-20.67 -0.54,-46.53 17.27,-64.92 5.66,2.88 11.32,5.76 16.98,8.64z"/>
   <path class="fil64" d="M4996.6 462.37c-1.35,22.99 4.68,46.91 -8.57,68.42 -4.33,2.96 -8.27,2.52 -11.85,-1.28 -9.99,-15.98 -7.35,-35.08 -13.05,-52.13 -1.63,-11.75 -2.08,-23.21 7.81,-32.13 10.02,-6.18 8.23,-16.29 8.55,-25.7 13.57,11.12 17.65,26.06 17.11,42.82z"/>
   <path class="fil65" d="M4765.41 248.32c2.88,2.85 5.75,5.71 8.61,8.56 10.71,6.52 17.27,14.53 9.83,27.55 -5.19,4.51 -11.34,6.74 -18,7.84 -109.74,-5.54 -177.23,53.22 -222.75,145.97 -9.97,20.33 -15.72,42.8 -30.38,60.84 -7.1,6.06 -14.3,11.73 -24.07,5.09 -7.44,-10.06 -8.21,-21.33 -6.11,-33.11 22.22,-74.89 62.61,-136.98 124.8,-185.62 47.7,-37.33 99.62,-49.3 158.07,-37.12z"/>
   <path class="fil66" d="M4765.41 248.32c-126.7,-17.03 -230.59,88.14 -274,222.62 -8.6,8.52 -2.76,31.44 -25.64,25.67 31.02,-116.6 86.48,-214.08 209.69,-252.9 28.07,-8.84 60.77,-12.12 89.94,4.61z"/>
   <path class="fil67" d="M4465.77 496.61c8.53,-8.55 17.09,-17.1 25.64,-25.67 0.01,11.41 0.03,22.8 0.05,34.22 6.91,38.26 5.86,76.4 -1.84,114.42 -3.53,6.91 -9.35,10.22 -16.99,10.55 -14.04,-0.86 -17.18,-13.54 -24,-22.24 0,-22.82 0,-45.65 0,-68.47 11.62,-11.91 13.42,-27.73 17.14,-42.82z"/>
   <path class="fil68" d="M4782.56 282.54c-2.85,-8.55 -5.71,-17.12 -8.55,-25.67 17.11,2.85 34.22,5.74 51.34,8.6 17.13,19.96 34.27,39.92 51.42,59.86 13.74,13.2 21.62,28.04 13.49,47.45 -14.51,14.75 -21.89,-2.78 -32.23,-7.09 -4.7,-3.9 -8.64,-8.48 -11.82,-13.67 -8.48,-34.81 -44.75,-44.19 -63.64,-69.49z"/>
   <path class="fil69" d="M4885.36 376.67c2.99,-18.08 -5.88,-34.19 -8.59,-51.33 8.54,2.86 17.07,5.71 25.6,8.57 8.59,17.14 17.17,34.26 25.78,51.39 9.04,8.77 16.98,17.97 12.11,31.98 -2.25,3.4 -5.35,5.66 -9.34,6.61 -20.58,-1.25 -26.13,-20.84 -38.8,-31.77 -3.74,-4.5 -6.44,-9.47 -6.76,-15.45z"/>
   <path class="fil70" d="M4448.63 607.9c8.17,3.25 13.88,8.97 17.17,17.12 15.39,25.32 27.47,51.49 21.23,82.39 -19.25,13.32 -27.35,-4.33 -38.38,-13.87 -5.71,-17.14 -11.41,-34.29 -17.12,-51.44 11.11,-8.69 15.69,-20.67 17.1,-34.21z"/>
   <path class="fil71" d="M4936.6 419.58c-2.8,-11.42 -5.64,-22.85 -8.46,-34.29 5.69,0 11.39,-0.01 17.1,-0.01 15.58,16.98 25.65,36.32 25.7,59.96 0.02,11.39 0.02,22.79 0.02,34.17 -3.72,2.29 -7.62,2.64 -11.71,1.08 -15.99,-17.15 -27.44,-36.01 -22.65,-60.91z"/>
   <path class="fil72" d="M4448.65 693.54c14.88,-1.25 22.34,12.27 34.16,17.12 8.82,2.3 13.31,8.97 16.95,16.58 3.51,15.18 18.23,29.05 5.76,46.25 -17.16,9.78 -27.45,-4.21 -39.71,-11.44 -5.74,-11.41 -11.49,-22.82 -17.25,-34.26 0.03,-11.41 0.07,-22.83 0.1,-34.25z"/>
   <path class="fil73" d="M4902.4 1104.49c-68.55,46.7 -140.33,43.76 -213.02,12.26 -108.79,-47.15 -165.54,-131.05 -172.32,-249.05 -1.8,-31.43 -29.62,-46.91 -42.67,-71.4 0.03,-2.86 0.05,-5.73 0.08,-8.57 27.44,-8.31 41.97,19.91 65.41,23.06 31.32,24.91 21.5,60.25 23.59,92.58 -10.41,83.18 97.34,190.13 178.07,198.1 39.53,3.91 78.21,7.37 117.15,-3.61 14.88,-4.19 30.84,-6.55 43.71,6.62z"/>
   <path class="fil74" d="M4534.25 813.41c-27.52,9.13 -38.99,-19.15 -59.78,-25.68 -2.89,-8.56 -5.77,-17.12 -8.67,-25.69 14.25,2.84 28.48,5.69 42.71,8.52 1.92,0.38 3.82,0.79 5.74,1.14 13.76,8.08 25.35,18.17 31.09,33.67 -1.1,6.24 -3.01,11.39 -11.09,8.04z"/>
   <path class="fil75" d="M4457.2 796.34c0,8.54 -0.01,17.06 -0.01,25.59 -9.37,4.43 -13.95,-0.69 -17.14,-8.57 -6.21,-20.97 -29.05,-34.81 -25.71,-59.88 22.6,6 33.03,24.14 42.86,42.87z"/>
   <path class="fil76" d="M4440.06 813.36c5.71,2.86 11.41,5.71 17.14,8.57 26.53,9.82 33.53,29.91 34.71,56.75 4.49,102.59 53.79,179.9 138.38,235.88 13.23,8.78 24.74,18.72 32.4,32.72 -23.88,0.6 -37.1,-23.78 -59.95,-25.63 -84.5,-54.03 -118.91,-139.67 -134.19,-231.59 -5.48,-32.8 -27.42,-50.11 -37.08,-76.61 2.86,-0.02 5.74,-0.05 8.6,-0.09z"/>
   <path class="fil77" d="M5039.51 505.29c37.52,21.68 56.27,58.67 76.9,94.13 -30.96,-27.02 -72.35,-45.53 -76.9,-94.13z"/>
   <path class="fil78" d="M5116.55 607.93c25.9,2.78 29.72,23.08 34.08,42.96 -17.56,-9.41 -22.56,-28.76 -34.08,-42.96z"/>
   <path class="fil79" d="M4902.4 1104.49c-63.87,7.09 -126.79,21.38 -191.89,1.46 -75.24,-23.04 -163.69,-118.53 -159.13,-198.37 23.26,-2.9 25.99,16.7 33.52,30.78 13.06,24.42 18.61,53.64 44.94,69.48 38.16,20.99 60.65,62.27 107.82,73.67 39.18,9.49 74.11,9.71 112.25,-2.3 49.25,-15.54 96.81,-32.18 135.41,-68.4 60.32,-56.59 83.08,-123.77 60.36,-204.64 -2.29,-8.2 -3.92,-16.61 -4.33,-25.2 11.66,-24.52 -14.79,-48.32 -1.48,-72.91 6.49,-3.03 12.87,-2.7 19.2,0.56 55.79,91.7 60.72,191.11 -5.11,277.2 -31.55,41.29 -66.09,81.77 -117.3,101.61 -6.51,15.52 -19.64,17.81 -34.27,17.08z"/>
   <path class="fil73" d="M4936.67 1087.41c54.12,-41.37 106.36,-84.84 136.29,-148.05 37.36,-78.93 10.65,-154 -16.46,-228.7 -18.62,-24.87 -37.47,-49.23 -60.98,-70.2 -24.21,-21.6 -37.17,-49.84 -34.23,-83.62 1.86,-11.65 5.82,-21.85 18.24,-26.08 2.82,0.02 5.66,0.02 8.5,0.02 -16.23,58.68 35.21,84.57 61.94,119.92 82.79,109.47 94.66,268.44 -18.42,371.33 -28.48,25.92 -48.15,65.59 -94.88,65.37z"/>
   <path class="fil80" d="M4979.53 530.77c-2.88,8.6 -5.76,17.19 -8.62,25.77 -5.68,5.07 -11.85,5.12 -18.37,1.84 -4.83,-5.12 -7.15,-11.37 -8.38,-18.16 -0.88,-4.48 -1.23,-9.01 -1.27,-13.57 1.37,-17.83 -1.97,-37.66 19.44,-47.24 2.88,0 5.76,0 8.62,0 15.4,15.03 5.73,34.24 8.57,51.36z"/>
   <path class="fil81" d="M4508.53 496.63c26.26,-91.35 76.39,-162.53 164.86,-204.81 31.02,-14.8 61.54,-5.25 92.01,-9.24 11.91,9.61 31.91,13.21 26.59,35.7 -3.26,2.7 -6.99,4.47 -11.1,5.5 -6.32,0.93 -12.56,0.34 -18.71,-1.24 -47.19,-19.76 -85.37,4.66 -121.5,28.19 -47.69,31.06 -77.84,76.9 -94.93,131.28 -5.51,17.54 -12.02,34.88 -22.3,50.25 -4.77,7.13 -11.45,13.56 -19.86,3.09 -6.9,-14.02 -3.01,-26.65 4.95,-38.73z"/>
   <path class="fil82" d="M4508.53 496.63c0.03,14.26 0.06,28.53 0.08,42.79 13.15,13.52 11.34,30.58 11.31,47.23 -0.25,9.24 -1.47,18.33 -5.22,26.89 -7.08,11.01 -13.3,22.8 -24.63,30.44 -11.22,-2.88 -13.95,-9.08 -7.28,-18.88 3.92,-39.89 -8.55,-80.98 8.67,-119.93 5.69,-2.84 11.37,-5.69 17.07,-8.53z"/>
   <path class="fil83" d="M4791.09 316.76c-8.57,-11.39 -17.14,-22.79 -25.7,-34.19 5.72,-0.02 11.44,-0.02 17.17,-0.03 30.43,15.19 66.36,24.87 68.45,68.43 -26.84,0.62 -42.39,-18.55 -59.92,-34.22z"/>
   <path class="fil84" d="M4482.79 625.08c0.22,7 1.72,13.35 8.57,17.02 17.96,4.47 23.69,18.59 27.23,34.47 -3.89,18.91 22.23,35.27 4.86,55.4 -11.63,5.81 -22.27,4.19 -31.99,-4.21 -2.89,-5.71 -5.78,-11.39 -8.65,-17.1 0.91,-29.85 -21.42,-55.1 -17.01,-85.64 5.66,0.02 11.33,0.05 16.99,0.07z"/>
   <path class="fil85" d="M4791.09 316.76c25.91,1.03 40.12,22.49 59.92,34.22 2.85,2.86 5.72,5.73 8.58,8.58 6.51,6.94 8.91,15.49 9.8,24.65 -0.25,11.42 -1.65,22.34 -13.04,28.69 -17.43,-0.49 -23.53,-15.97 -34.09,-25.63 -8.7,-25.99 -38.85,-39.96 -39.72,-70.41 2.86,-0.02 5.71,-0.07 8.55,-0.1z"/>
   <path class="fil86" d="M4859.6 385.3c0,-8.57 0,-17.15 0,-25.74 13.27,-1.35 16.77,12.02 25.74,17.11 2.86,2.87 5.73,5.74 8.57,8.6 8.03,15.28 18.18,30.03 11.76,48.79 -15.16,11.43 -22.63,-1.45 -31.47,-9.95 -8.62,-11.49 -3.72,-28.11 -14.59,-38.82z"/>
   <path class="fil87" d="M4962.34 479.42c-10.2,15.91 -8.7,33.79 -8.65,51.43 -31.08,-1.12 -28.16,-27.99 -35.7,-47.02 -0.47,-22 -7.15,-45 10.12,-64.2 2.84,-0.02 5.68,-0.04 8.5,-0.04 8.59,19.95 17.16,39.89 25.74,59.83z"/>
   <path class="fil88" d="M4928.1 419.62c0,22.78 0,45.59 -0.01,68.38 -3.35,2.65 -6.94,3.01 -10.76,1.08 -10.15,-10.12 -15.46,-22.91 -19.96,-36.17 -0.94,-6.19 -0.06,-11.85 4.95,-16.23 -2.67,-17.17 -11.56,-33.31 -8.41,-51.42 16.81,6.06 21.7,24 34.2,34.36z"/>
   <path class="fil89" d="M4919.57 488.04c2.84,-0.01 5.67,-0.01 8.52,-0.03 9.76,13.55 5.86,35.26 25.6,42.84 0.03,2.84 0.03,5.69 0,8.53 -70.26,143.56 -195.3,212.7 -342.53,250.83 -36.38,9.42 -70.03,-4.38 -102.58,-19.63 0,0 -0.07,-0.01 -0.07,-0.01 -5.69,-14.27 -11.38,-28.53 -17.05,-42.81 11.39,-0.02 22.8,-0.02 34.22,-0.03 12.18,-11.48 26.31,-8.84 40.11,-4.8 35.86,10.5 71.1,4.53 104.52,-7.58 61.98,-22.44 117.43,-57.05 166.42,-101.08 23.5,-21.11 39.55,-48.07 50.89,-77.75 7.03,-18.45 12.6,-38.07 31.96,-48.47z"/>
   <path class="fil90" d="M5039.39 710.66c4.95,22.57 29.44,42.69 8.57,68.48 -4.34,1.4 -9.11,1.01 -11.46,-2.55 -43.44,-65.44 -80.75,-51.14 -135.58,-28.58 -81.59,33.58 -151.93,87.51 -230.03,127.41 -38.7,19.78 -42.93,57.04 -45.79,94.44 -1.04,13.62 6.97,28.31 -5.23,40.46 -25.64,-12.76 -31.1,-39.48 -41.83,-62.09 -7.12,-15.01 -9.67,-32.33 -26.67,-40.65 -2.4,-31.99 8.94,-66.48 -17.13,-94.17 2.84,-2.86 5.71,-5.71 8.55,-8.57 29.89,-18.03 65.15,-13.28 97.45,-23.29 112.42,-34.88 211.59,-87 279.12,-187.9 8.28,-12.37 14.6,-28.66 33.1,-30.84 15.52,-0.57 15.81,11.49 13.45,20.4 -8.6,32.57 9.48,48.24 33.72,64.33 21.53,14.27 47.83,28.79 39.75,63.12z"/>
   <path class="fil91" d="M4953.82 565.09c-41.89,58.78 -86.93,115.32 -149.45,153 -80.25,48.41 -164.27,88.41 -261.58,86.75 -14.59,-8.23 -26.06,-19.6 -34.22,-34.27 140.54,33.13 246.09,-40.04 350.06,-116.36 21.45,-15.73 37.87,-36.23 49.86,-62.02 9.32,-20.05 18.72,-45.19 45.19,-52.82 0.05,5.73 0.1,11.46 0.15,17.21 2.94,1.9 3.92,3.78 2.94,5.69 -0.99,1.89 -1.97,2.82 -2.96,2.82z"/>
   <path class="fil92" d="M4619.87 1010.32c-17.05,-102.99 13.16,-135.49 87.63,-166.23 45.78,-18.9 84.24,-54.82 128.44,-78.52 43.09,-23.1 88.3,-48.99 137.38,-49.4 34.66,-0.3 61.15,28.21 74.65,62.97 57.24,138.84 -31.08,257.61 -175.89,307.25 -106.59,36.56 -182.94,-1.84 -252.2,-76.07z"/>
   <path class="fil93" d="M4953.82 565.09c-0.01,-2.84 0,-5.69 0.02,-8.51 5.69,-0.02 11.38,-0.02 17.07,-0.04 -2.86,40.72 18.85,68.99 48.4,92.33 20.54,16.21 36.83,33.93 37.19,61.8 -5.7,0 -11.4,0 -17.11,-0.01 -11.02,-32.47 -35.05,-54.34 -64.46,-67.54 -25.03,-11.22 -30.2,-24.57 -18.91,-47.69 5.01,-10.26 10.34,-21.09 -2.19,-30.34z"/>
   <path class="fil94" d="M4508.61 590.71c0,-17.1 0,-34.2 0,-51.3 27.42,-39.71 32.37,-89.16 59.32,-129.96 37.25,-56.34 90,-87.1 151.19,-106.88 16.58,-5.35 32.77,3.17 46.31,14.23 -10.31,12.76 -25.35,15.06 -39.99,18.23 -91.19,16.08 -152.73,88.44 -158.49,186.72 -3.87,14.11 -4.92,28.82 -9.31,42.82 -6.11,14.66 -13.77,27.89 -30.71,32.25 -7.01,0.73 -13.13,-1.31 -18.33,-6.1z"/>
   <path class="fil95" d="M4722.61 325.38c14.27,-2.86 28.54,-5.73 42.82,-8.59 5.71,0.02 11.41,0.05 17.12,0.07 14.66,22.58 43.34,36.35 42.82,68.4 -1.75,0.81 -3.51,1.6 -5.28,2.42 -22.04,-1.76 -39.42,-14.88 -58.5,-23.92 -12.17,-13.62 -38.43,-13.01 -38.98,-38.39z"/>
   <path class="fil96" d="M4508.61 590.71c5.69,0.02 11.38,0.04 17.07,0.05 21.58,13.22 30.92,39.82 57.92,48.29 42.23,13.23 80.07,7.88 118.25,-13.65 76.12,-42.91 138.39,-94.71 139.18,-191.88 0.07,-8.48 2.61,-16.85 10.02,-22.56 10.05,-6.16 8.25,-16.26 8.55,-25.67 15.57,6.48 17.91,19.58 17.14,34.24 23.51,35.5 4.85,68.1 -7.39,100.83 -41.91,111.96 -195.42,197.63 -298.77,166.95 -39.68,-11.78 -62.58,-35.17 -62.07,-70.94 0.03,-8.55 0.07,-17.11 0.1,-25.66z"/>
   <path class="fil97" d="M4508.51 616.37c20.5,71.94 116.83,78.28 179.41,54.26 85,-32.63 149.44,-86.31 180.5,-176.52 8.87,-25.79 5.29,-49.84 8.32,-74.57 8.53,5.71 17.07,11.43 25.58,17.15 0.04,5.7 0.07,11.4 0.1,17.11 2.34,76.88 -40.34,131.15 -94.2,176.9 -51.26,43.52 -110.94,75.15 -177.95,85.67 -45.12,7.1 -89.96,0.15 -121.68,-39.96 1.16,-14.91 -12.41,-22.42 -17.22,-34.3 -0.07,-12.44 -0.05,-24.81 17.15,-25.74z"/>
   <path class="fil98" d="M4508.58 676.4c87.3,56.94 166.82,24.31 245.9,-20.5 79.96,-45.29 125.44,-115.13 147.93,-202.11 11.14,8.7 15.69,20.7 17.16,34.25 -77.26,184.96 -191.2,254.29 -393.89,239.69 -4.61,-17.48 -23.7,-30.12 -17.1,-51.33z"/>
   <path class="fil99" d="M4851.05 410.96c16.92,131.71 -97.43,213.31 -192.23,244.65 -55.3,18.3 -110.45,-11.32 -133.14,-64.85 8.55,-8.56 17.12,-17.13 25.67,-25.7 34.68,48.35 71.27,58.98 127.72,38.21 82.73,-30.42 149.41,-96.84 142.46,-201.81 -0.39,-5.74 0.59,-11.22 3.82,-16.14 0,0 0.01,-0.03 0.01,-0.03 16.82,0.32 19.47,14.79 25.69,25.68z"/>
   <path class="fil100" d="M5040.93 883.92c-2.96,57.73 -34.48,96.52 -69.43,128.07 -61.42,55.45 -134.53,80.49 -218.86,58.04 -31.37,-8.37 -56.15,-23.61 -76.41,-49.7 -47.89,-61.57 -27.17,-119.36 46.23,-148.39 59.54,-23.55 115.08,-57.75 171.04,-89.63 54.65,-31.15 102.94,-27.18 128.52,20.64 13.35,24.94 13.71,56.84 18.92,80.97z"/>
   <path class="fil101" d="M4825.35 385.32c30.28,63.36 -20.64,162.96 -83.44,199.09 -44.91,25.85 -90.57,53.98 -148.27,34.2 -28.11,-9.63 -44.48,-22.72 -42.3,-53.52 2.06,-14.46 -5.69,-30.88 8.53,-42.89 3.22,-2.85 6.95,-4.16 11.21,-3.94 25.71,15.5 40.73,45.95 78.34,45.27 73.73,-1.29 139.95,-79.93 124.55,-151.97 -3.01,-14.04 -9.93,-26.66 -12.81,-40.64 0.09,-4.28 1.59,-8.01 4.29,-11.28 22.46,2.74 39.76,17.53 59.89,25.69z"/>
   <path class="fil102" d="M4568.48 522.24c-2.86,-0.02 -5.73,-0.04 -8.61,-0.05 -5.77,-94.18 73.46,-190.02 162.74,-196.81 10.71,15.87 35.37,14.31 42.85,34.25 -0.03,2.84 -0.03,5.69 -0.03,8.54 -91.25,0.27 -144.55,52.9 -179.71,130.4 -4.15,9.2 -8.87,17.68 -17.23,23.67z"/>
   <path class="fil103" d="M4929.87 813.45c64.47,-0.36 96.17,52 80.62,109.94 -18.13,67.56 -117.63,130.57 -177.54,130.27 -72.25,-0.39 -108.06,-17.79 -127.99,-64.9 -9.96,-23.58 -6.18,-40.51 13.69,-55.62 58.51,-44.46 125.27,-75.57 186.75,-115.24 8.65,-5.59 21.92,-4.06 24.47,-4.46z"/>
   <path class="fil104" d="M4568.48 522.24c18.18,-71.51 59.28,-123.65 127.55,-154.02 23.76,-10.56 46.25,-12.28 69.39,-0.06 42.28,53.49 23.93,133.22 -41.96,182.37 -54.76,40.81 -113.06,30.18 -154.98,-28.29z"/>
   <path class="fil105" d="M4837.18 1019.08c-31.71,-4.28 -56.1,-14.89 -64.08,-41.7 -6.4,-21.53 16.52,-31.38 30.49,-40.63 28.55,-18.89 48.25,-51.56 89.73,-51.65 21.11,-0.05 42.4,-18.69 58.71,10.31 15.63,27.8 6.95,51.62 -9.7,74.23 -27.23,36.97 -72.61,34.13 -105.15,49.45z"/>
   <path class="fil106" d="M4739.74 443.05c-0.82,40.85 -30.6,70.86 -65.98,70.83 -24.12,-0.02 -42.52,-7.42 -44.51,-34.09 -1.91,-25.14 52.76,-76.59 81.54,-76.36 28.43,0.24 26.69,23.46 28.95,39.62z"/>
  </g>
 </g>
</svg>
