<?xml version="1.0" encoding="UTF-8"?>
<!DOCTYPE svg PUBLIC "-//W3C//DTD SVG 1.1//EN" "http://www.w3.org/Graphics/SVG/1.1/DTD/svg11.dtd">
<!-- Creator: CorelDRAW 2019 (64 Bit) -->
<svg xmlns="http://www.w3.org/2000/svg" xml:space="preserve" width="34.8592mm" height="21.966mm" version="1.1" style="shape-rendering:geometricPrecision; text-rendering:geometricPrecision; image-rendering:optimizeQuality; fill-rule:evenodd; clip-rule:evenodd"
viewBox="0 0 3471.72 2187.65"
 xmlns:xlink="http://www.w3.org/1999/xlink"
 xmlns:xodm="http://www.corel.com/coreldraw/odm/2003">
 <defs>
  <style type="text/css">
   <![CDATA[
    .fil0 {fill:#0A4192}
    .fil1 {fill:#0A4092;fill-rule:nonzero}
    .fil39 {fill:#1774B9;fill-rule:nonzero}
    .fil8 {fill:#1B4FA1;fill-rule:nonzero}
    .fil6 {fill:#1C57A6;fill-rule:nonzero}
    .fil4 {fill:#1D4E9E;fill-rule:nonzero}
    .fil7 {fill:#1D56A5;fill-rule:nonzero}
    .fil10 {fill:#1E4999;fill-rule:nonzero}
    .fil26 {fill:#275AA9;fill-rule:nonzero}
    .fil29 {fill:#2866B0;fill-rule:nonzero}
    .fil3 {fill:#295BAA;fill-rule:nonzero}
    .fil45 {fill:#2C6CB4;fill-rule:nonzero}
    .fil33 {fill:#305AA9;fill-rule:nonzero}
    .fil58 {fill:#3391CF;fill-rule:nonzero}
    .fil40 {fill:#3486C6;fill-rule:nonzero}
    .fil46 {fill:#3778BC;fill-rule:nonzero}
    .fil19 {fill:#3863AE;fill-rule:nonzero}
    .fil77 {fill:#389AD4;fill-rule:nonzero}
    .fil57 {fill:#3985C5;fill-rule:nonzero}
    .fil24 {fill:#3A65AE;fill-rule:nonzero}
    .fil78 {fill:#3B9BD4;fill-rule:nonzero}
    .fil16 {fill:#416CB4;fill-rule:nonzero}
    .fil59 {fill:#4595D1;fill-rule:nonzero}
    .fil22 {fill:#4670B6;fill-rule:nonzero}
    .fil56 {fill:#4693CF;fill-rule:nonzero}
    .fil41 {fill:#4E7ABC;fill-rule:nonzero}
    .fil60 {fill:#4E93CF;fill-rule:nonzero}
    .fil37 {fill:#5182C2;fill-rule:nonzero}
    .fil25 {fill:#5273B6;fill-rule:nonzero}
    .fil62 {fill:#54A4D9;fill-rule:nonzero}
    .fil20 {fill:#557BBB;fill-rule:nonzero}
    .fil55 {fill:#55A9DC;fill-rule:nonzero}
    .fil44 {fill:#5783C2;fill-rule:nonzero}
    .fil27 {fill:#5A7BBB;fill-rule:nonzero}
    .fil36 {fill:#5D95CF;fill-rule:nonzero}
    .fil76 {fill:#5EAFE1;fill-rule:nonzero}
    .fil43 {fill:#6095CF;fill-rule:nonzero}
    .fil23 {fill:#6383C0;fill-rule:nonzero}
    .fil61 {fill:#65A5D9;fill-rule:nonzero}
    .fil12 {fill:#6788C4;fill-rule:nonzero}
    .fil63 {fill:#68B9E8;fill-rule:nonzero}
    .fil47 {fill:#6BA2D7;fill-rule:nonzero}
    .fil21 {fill:#6C89C5;fill-rule:nonzero}
    .fil73 {fill:#6EC4EE;fill-rule:nonzero}
    .fil28 {fill:#6F90CB;fill-rule:nonzero}
    .fil2 {fill:#7086C2;fill-rule:nonzero}
    .fil93 {fill:#70CAF1;fill-rule:nonzero}
    .fil75 {fill:#71B1E0;fill-rule:nonzero}
    .fil42 {fill:#729FD4;fill-rule:nonzero}
    .fil17 {fill:#7490CA;fill-rule:nonzero}
    .fil90 {fill:#74D0F4;fill-rule:nonzero}
    .fil64 {fill:#75B6E4;fill-rule:nonzero}
    .fil14 {fill:#768FC9;fill-rule:nonzero}
    .fil79 {fill:#77CDF2;fill-rule:nonzero}
    .fil74 {fill:#79CAF0;fill-rule:nonzero}
    .fil80 {fill:#7AC6EE;fill-rule:nonzero}
    .fil38 {fill:#7B9ED3;fill-rule:nonzero}
    .fil53 {fill:#7BB6E3;fill-rule:nonzero}
    .fil13 {fill:#7D94CC;fill-rule:nonzero}
    .fil18 {fill:#7F98CE;fill-rule:nonzero}
    .fil34 {fill:#7FA4D6;fill-rule:nonzero}
    .fil54 {fill:#7FB2E0;fill-rule:nonzero}
    .fil92 {fill:#7FD3F4;fill-rule:nonzero}
    .fil35 {fill:#80A4D6;fill-rule:nonzero}
    .fil91 {fill:#80D2F4;fill-rule:nonzero}
    .fil9 {fill:#85A0D2;fill-rule:nonzero}
    .fil71 {fill:#85BCE6;fill-rule:nonzero}
    .fil100 {fill:#85D5F4;fill-rule:nonzero}
    .fil11 {fill:#869ED0;fill-rule:nonzero}
    .fil72 {fill:#86C5EB;fill-rule:nonzero}
    .fil52 {fill:#88B6E1;fill-rule:nonzero}
    .fil89 {fill:#89D6F4;fill-rule:nonzero}
    .fil87 {fill:#8ACDEF;fill-rule:nonzero}
    .fil51 {fill:#8CB6E0;fill-rule:nonzero}
    .fil15 {fill:#90A4D4;fill-rule:nonzero}
    .fil31 {fill:#90AEDA;fill-rule:nonzero}
    .fil103 {fill:#90D8F4;fill-rule:nonzero}
    .fil70 {fill:#92C2E8;fill-rule:nonzero}
    .fil32 {fill:#93B0DC;fill-rule:nonzero}
    .fil69 {fill:#97C2E8;fill-rule:nonzero}
    .fil84 {fill:#97D2F0;fill-rule:nonzero}
    .fil88 {fill:#98CFEF;fill-rule:nonzero}
    .fil5 {fill:#99ABD8;fill-rule:nonzero}
    .fil105 {fill:#9ADAF4;fill-rule:nonzero}
    .fil49 {fill:#9CB8E0;fill-rule:nonzero}
    .fil50 {fill:#9CBAE2;fill-rule:nonzero}
    .fil98 {fill:#9CDBF6;fill-rule:nonzero}
    .fil30 {fill:#9FB2DB;fill-rule:nonzero}
    .fil67 {fill:#A4C4E7;fill-rule:nonzero}
    .fil68 {fill:#A5C5E8;fill-rule:nonzero}
    .fil86 {fill:#A5D6F2;fill-rule:nonzero}
    .fil97 {fill:#A5DDF7;fill-rule:nonzero}
    .fil48 {fill:#A7B8DF;fill-rule:nonzero}
    .fil66 {fill:#ABBDE1;fill-rule:nonzero}
    .fil82 {fill:#ACCCEA;fill-rule:nonzero}
    .fil96 {fill:#AEE0F6;fill-rule:nonzero}
    .fil83 {fill:#B0CBE8;fill-rule:nonzero}
    .fil65 {fill:#B2C4E5;fill-rule:nonzero}
    .fil85 {fill:#B3D9F2;fill-rule:nonzero}
    .fil99 {fill:#B6E2F8;fill-rule:nonzero}
    .fil81 {fill:#B8CCE8;fill-rule:nonzero}
    .fil101 {fill:#BCE5F9;fill-rule:nonzero}
    .fil95 {fill:#BEDCF2;fill-rule:nonzero}
    .fil94 {fill:#C0D7EE;fill-rule:nonzero}
    .fil102 {fill:#C5DDF2;fill-rule:nonzero}
    .fil104 {fill:#C9E8F9;fill-rule:nonzero}
    .fil106 {fill:#CDEAFB;fill-rule:nonzero}
   ]]>
  </style>
    <clipPath id="id0">
     <path d="M2503.52 2.01l653.39 0 0 580.78c0,109.08 -89.25,198.34 -198.33,198.34l-256.75 0c-109.07,0 -198.31,-89.25 -198.31,-198.34l0 -580.78z"/>
    </clipPath>
 </defs>
 <g id="Camada_x0020_1">
  <metadata id="CorelCorpID_0Corel-Layer"/>
  <g id="_1565486409904">
   <g style="clip-path:url(#id0)">
    <image x="2490.89" y="1.91" width="671.48" height="787.31" xlink:href="logo-blu_Images\logo-blu_ImgID1.png"/>
   </g>
   <path class="fil0" d="M316.78 847.99l316.29 0c173.98,0 316.31,142.34 316.31,316.3l0 0.01c0,173.95 -142.33,316.28 -316.31,316.28 -173.97,0 -316.29,-142.33 -316.29,-316.28l0 -316.31zm-316.78 279.43l0 0c0,116.39 14.05,193.05 47.89,276.22 43.57,107.08 125.36,199.62 216.62,268.4 14.92,11.24 32.65,22.91 48.96,32.63 53.04,31.58 113.49,56.53 174.78,70.01 100.93,22.22 187.13,21.44 287.47,1.54 83,-16.48 148.72,-49.03 217.92,-94.86 15.05,-9.99 30.72,-21.55 43.83,-33.23 60.12,-53.6 124.11,-116.44 160.77,-190.53 14.69,-29.73 25.5,-47.5 36.74,-81.13 7,-20.99 12.75,-38.47 18.38,-60.93 25.63,-101.82 24.56,-230.93 -6.52,-331.19l-20.02 -57.04c-4.25,-10.67 -7.89,-17.43 -11.96,-26.57 -31.27,-70.34 -53.44,-90.15 -91.65,-139.54l-37.24 -39.83c-8.68,-6.88 -12.34,-10.44 -20.15,-18.36 -6.92,-7 -13.1,-11.6 -20.48,-18.07 -104.03,-90.94 -252.95,-146.8 -392.61,-146.8l-328.64 0c0,-44.87 -2.94,-68.02 -17.82,-109.11 -2.52,-6.93 -7.39,-18.86 -10.9,-25.37 -61.7,-114.73 -164.19,-157.91 -295.4,-157.91l0 881.66z"/>
   <path class="fil0" d="M2187.15 1181.82c0,104.39 38.97,227.09 86.55,301.03 33.85,52.57 59.71,83.86 104.38,129.06 7.55,7.63 13.07,10.58 20.46,18.09 14.84,15.05 46.19,38.89 64.21,51.38 15.99,11.08 30.19,19.8 47.2,29.86 90.07,53.26 207.06,80.26 311.83,80.26 137.88,0 246.8,-37.3 356.76,-110.13 21.44,-14.22 66.97,-51.58 85.78,-70.61 26.1,-26.4 49.25,-52.65 71.62,-82.48 24.06,-32.06 40.57,-60.08 59.27,-97.14 31.48,-62.34 58.93,-159.98 58.93,-253.85l0 -639.13c-38.11,0 -65.45,1.46 -100.65,10.4 -13.83,3.52 -24.49,5.95 -36.97,10.64 -79.73,29.9 -143.32,90.45 -170.33,171.9 -20.04,60.33 -16.15,115.03 -16.15,178.76 0,39.39 1.77,271.2 -0.59,289.52 -7.99,61.56 -23.82,99.44 -52.45,142.49 -51.47,77.41 -136.38,139.15 -259.76,139.15 -61.34,0 -111.85,-18.33 -150.91,-41.73 -59.63,-35.7 -107.9,-93.8 -134.36,-158.01 -26.11,-63.38 -20.7,-109.54 -20.7,-174.23 0,-71.17 4.69,-277.71 -5.49,-334.49 -15.08,-84.15 -69.45,-159.99 -144.86,-197.38 -56.25,-27.89 -107.38,-37 -173.77,-37l0 643.67z"/>
   <path class="fil0" d="M1325.9 1168.22c0,98.41 21.66,185.8 52.16,253.81 27.99,62.38 77.98,133.58 126.29,181.95l40.1 36.98c15.26,11.86 26.87,22.97 43.01,34.04 57.56,39.49 59.68,41.01 122.25,70.4 21.76,10.24 62.58,22.54 86.3,29.29 19.77,5.64 42.83,9.68 64.38,12.69 21.65,3.02 45.42,6.38 70.67,6.38l414.75 0c0,-87.26 -17.64,-166.13 -77.62,-226.09 -152.05,-151.94 -276.47,-30.83 -445.18,-114.63 -68.42,-33.99 -120.8,-94.32 -150.97,-164.07 -29.51,-68.23 -22.01,-145.62 -22.01,-222.74 0,-88.4 4.55,-195.54 -2.34,-278.72 -3.21,-38.81 -18.53,-78.84 -34.64,-105.89 -24.5,-41.12 -63.09,-82.81 -105.8,-104.99 -57.06,-29.64 -110.92,-40.76 -181.35,-40.76l0 632.34z"/>
   <path class="fil0" d="M1745.19 1789.24c0.23,0.21 0.67,-1.01 0.67,-0.68 -0.03,0.03 -0.9,0.44 -0.67,0.68z"/>
   <path class="fil1" d="M158.91 2129.34l28.6 0 -70.53 -196.03 -28.87 0 -70.53 196.03 28.32 0 19.43 -56.37 73.86 0 19.72 56.37zm-56.09 -169.1c0,0 4.16,17.77 7.5,27.77l21.66 62.2 -59.43 0 21.94 -62.2c3.33,-10 7.77,-27.77 7.77,-27.77l0.56 0zm96.63 151.88c0,0 18.88,20.56 53.31,20.56 30.81,0 50.81,-17.5 50.81,-40.82 0,-46.09 -72.19,-40.53 -72.19,-65.8 0,-12.22 11.38,-17.22 23.05,-17.22 22.21,0 34.71,12.5 34.71,12.5l10.83 -20.28c0,0 -14.43,-15.55 -45.25,-15.55 -28.05,0 -50.81,14.44 -50.81,39.99 0,45.81 72.19,40.53 72.19,66.36 0,11.38 -11.66,17.5 -23.32,17.5 -24.44,0 -40.27,-16.38 -40.27,-16.38l-13.05 19.15zm124.39 0c0,0 18.88,20.56 53.31,20.56 30.81,0 50.81,-17.5 50.81,-40.82 0,-46.09 -72.19,-40.53 -72.19,-65.8 0,-12.22 11.38,-17.22 23.05,-17.22 22.21,0 34.71,12.5 34.71,12.5l10.83 -20.28c0,0 -14.43,-15.55 -45.25,-15.55 -28.05,0 -50.81,14.44 -50.81,39.99 0,45.81 72.19,40.53 72.19,66.36 0,11.38 -11.66,17.5 -23.32,17.5 -24.44,0 -40.27,-16.38 -40.27,-16.38l-13.05 19.15zm135.5 -151.32l27.21 0 0 -27.49 -27.21 0 0 27.49zm0.28 168.54l26.93 0 0 -140.5 -26.93 0 0 140.5zm69.14 0l26.93 0 0 -65.81c0,-6.94 0.56,-13.33 2.22,-18.87 5.84,-20.28 23.05,-34.44 44.43,-34.44 22.49,0 26.66,15.56 26.66,35.27l0 83.86 26.93 0 0 -89.96c0,-35.82 -15.27,-53.87 -48.31,-53.87 -30.55,0 -47.21,20 -52.75,32.21l-0.56 0c0,0 0.56,-4.72 0.56,-10.27l0 -18.6 -26.1 0 0 140.5zm156.05 -39.43c0,28.05 23.6,42.77 47.75,42.77 33.6,0 44.99,-27.77 44.99,-27.77l0.55 0c0,0 -0.55,4.72 -0.55,11.1l0 13.33 24.99 0 0 -88.86c0,-35.53 -19.99,-54.98 -55.53,-54.98 -32.21,0 -52.48,16.66 -52.48,16.66l11.1 19.71c0,0 17.49,-13.6 39.15,-13.6 17.77,0 30.82,7.78 30.82,30.82l0 2.5 -6.11 0c-23.6,0 -84.68,1.94 -84.68,48.31zm27.21 -1.38c0,-25.27 36.65,-26.66 56.92,-26.66l6.94 0 0 4.44c0,20.82 -14.71,44.71 -37.48,44.71 -17.5,0 -26.38,-11.1 -26.38,-22.49zm135.77 -10.56c0,46.93 35.82,52.49 53.87,52.49 5.56,0 9.44,-0.56 9.44,-0.56l0 -23.88c0,0 -2.5,0.56 -6.38,0.56 -10.28,0 -29.99,-3.62 -29.99,-31.65l0 -62.47 33.87 0 0 -21.66 -33.87 0 0 -40.54 -26.1 0 0 40.54 -19.16 0 0 21.66 18.33 0 0 65.52zm91.64 0.84c0,37.21 16.38,53.87 48.03,53.87 27.49,0 45.81,-18.33 51.65,-32.22l0.55 0c0,0 -0.55,4.45 -0.55,10.28l0 18.6 26.09 0 0 -140.5 -26.93 0 0 65.8c0,27.77 -16.94,53.03 -45.53,53.03 -22.5,0 -26.38,-15.55 -26.38,-34.99l0 -83.85 -26.93 0 0 89.96zm167.98 50.53l26.93 0 0 -57.47c0,-8.6 0.84,-17.22 3.34,-25.27 6.38,-20.82 22.21,-33.04 39.43,-33.04 4.16,0 7.77,0.84 7.77,0.84l0 -26.66c0,0 -3.33,-0.56 -6.94,-0.56 -21.65,0 -38.03,16.1 -44.42,36.66l-0.56 0c0,0 0.56,-4.72 0.56,-10.56l0 -24.43 -26.1 0 0 140.5zm92.74 -39.43c0,28.05 23.6,42.77 47.75,42.77 33.6,0 44.99,-27.77 44.99,-27.77l0.55 0c0,0 -0.55,4.72 -0.55,11.1l0 13.33 24.99 0 0 -88.86c0,-35.53 -19.99,-54.98 -55.53,-54.98 -32.21,0 -52.48,16.66 -52.48,16.66l11.1 19.71c0,0 17.49,-13.6 39.15,-13.6 17.77,0 30.82,7.78 30.82,30.82l0 2.5 -6.11 0c-23.6,0 -84.68,1.94 -84.68,48.31zm27.21 -1.38c0,-25.27 36.65,-26.66 56.92,-26.66l6.94 0 0 4.44c0,20.82 -14.71,44.71 -37.48,44.71 -17.5,0 -26.38,-11.1 -26.38,-22.49zm192.98 -29.44c0,43.6 23.88,73.59 61.92,73.59 34.71,0 46.09,-26.1 46.09,-26.1l0.56 0c0,0 -0.28,3.88 -0.28,9.44l0 13.33 25.55 0 0 -196.03 -26.93 0 0 64.97c0,5.27 0.55,9.44 0.55,9.44l-0.55 0c0,0 -10.84,-22.22 -43.32,-22.22 -37.21,0 -63.58,28.88 -63.58,73.58zm27.49 0c0,-31.93 18.33,-50.25 40.53,-50.25 26.66,0 39.71,24.99 39.71,49.98 0,35.82 -19.71,50.54 -40.53,50.54 -23.32,0 -39.71,-19.72 -39.71,-50.26zm138.83 0c0,41.65 30.27,73.59 74.42,73.59 33.59,0 54.42,-20 54.42,-20l-11.1 -19.71c0,0 -17.49,16.38 -41.65,16.38 -24.99,0 -46.93,-15.56 -48.31,-46.37l102.46 0c0,0 0.83,-8.06 0.83,-11.66 0,-36.38 -21.09,-65.81 -60.8,-65.81 -39.99,0 -70.25,28.88 -70.25,73.58zm28.6 -16.38c3.88,-23.05 20.55,-35.81 41.09,-35.81 18.05,0 33.04,11.66 33.87,35.81l-74.96 0zm329.02 86.64l28.6 0 -70.53 -196.03 -28.87 0 -70.53 196.03 28.32 0 19.43 -56.37 73.86 0 19.72 56.37zm-56.09 -169.1c0,0 4.16,17.77 7.5,27.77l21.66 62.2 -59.43 0 21.94 -62.2c3.33,-10 7.77,-27.77 7.77,-27.77l0.56 0zm-12.49 -40.53l22.49 0 26.65 -35.27 -28.87 0 -20.27 35.27zm133 235.18l-8.88 21.1c13.6,6.94 31.1,11.66 48.04,11.66 35.53,0 70.8,-17.78 70.8,-64.14l0 -134.67 -25.82 0 0 13.05c0,2.5 0.28,4.44 0.28,4.44l-0.56 0c0,0 -10.27,-20.82 -44.15,-20.82 -38.87,0 -61.36,29.99 -61.36,70.25 0,40.53 23.6,71.92 62.75,71.92 20.27,0 33.31,-8.06 41.65,-21.94l0.55 0c0,0 -0.27,4.44 -0.27,8.88l0 10.28c0,28.6 -20,39.43 -44.43,39.43 -21.1,0 -38.6,-9.44 -38.6,-9.44zm46.37 -50.53c-25.27,0 -40.81,-20 -40.81,-49.15 0,-28.6 13.88,-46.37 38.32,-46.37 21.93,0 39.7,10.56 39.7,47.21 0,36.65 -17.77,48.31 -37.21,48.31zm103.86 -25.55c0,37.21 16.38,53.87 48.03,53.87 27.49,0 45.81,-18.33 51.65,-32.22l0.55 0c0,0 -0.55,4.45 -0.55,10.28l0 18.6 26.09 0 0 -140.5 -26.93 0 0 65.8c0,27.77 -16.94,53.03 -45.53,53.03 -22.5,0 -26.38,-15.55 -26.38,-34.99l0 -83.85 -26.93 0 0 89.96zm156.6 11.1c0,28.05 23.6,42.77 47.75,42.77 33.6,0 44.99,-27.77 44.99,-27.77l0.55 0c0,0 -0.55,4.72 -0.55,11.1l0 13.33 24.99 0 0 -88.86c0,-35.53 -19.99,-54.98 -55.53,-54.98 -32.21,0 -52.48,16.66 -52.48,16.66l11.1 19.71c0,0 17.49,-13.6 39.15,-13.6 17.77,0 30.82,7.78 30.82,30.82l0 2.5 -6.11 0c-23.6,0 -84.68,1.94 -84.68,48.31zm27.21 -1.38c0,-25.27 36.65,-26.66 56.92,-26.66l6.94 0 0 4.44c0,20.82 -14.71,44.71 -37.48,44.71 -17.5,0 -26.38,-11.1 -26.38,-22.49zm201.59 40.81l27.49 0 9.44 -123.56c0.84,-11.93 0.56,-29.43 0.56,-29.43l0.56 0c0,0 6.11,18.88 10.55,29.43l38.87 88.3 24.44 0 39.15 -88.3c4.72,-10.83 10.55,-28.87 10.55,-28.87l0.56 0c0,0 -0.56,16.94 0.28,28.87l9.72 123.56 27.21 0 -15.83 -196.03 -28.88 0 -44.98 106.07c-4.44,10.83 -9.72,26.37 -9.72,26.37l-0.56 0c0,0 -5.28,-15.55 -9.72,-26.37l-44.98 -106.07 -28.88 0 -15.83 196.03zm240.74 -168.54l27.21 0 0 -27.49 -27.21 0 0 27.49zm0.28 168.54l26.93 0 0 -140.5 -26.93 0 0 140.5zm69.14 0l26.93 0 0 -65.81c0,-6.94 0.56,-13.33 2.22,-18.87 5.84,-20.28 23.05,-34.44 44.43,-34.44 22.49,0 26.66,15.56 26.66,35.27l0 83.86 26.93 0 0 -89.96c0,-35.82 -15.27,-53.87 -48.31,-53.87 -30.55,0 -47.21,20 -52.75,32.21l-0.56 0c0,0 0.56,-4.72 0.56,-10.27l0 -18.6 -26.1 0 0 140.5zm157.71 -70.25c0,41.65 30.27,73.59 74.42,73.59 33.59,0 54.42,-20 54.42,-20l-11.1 -19.71c0,0 -17.49,16.38 -41.65,16.38 -24.99,0 -46.93,-15.56 -48.31,-46.37l102.46 0c0,0 0.83,-8.06 0.83,-11.66 0,-36.38 -21.09,-65.81 -60.8,-65.81 -39.99,0 -70.25,28.88 -70.25,73.58zm28.6 -16.38c3.88,-23.05 20.55,-35.81 41.09,-35.81 18.05,0 33.04,11.66 33.87,35.81l-74.96 0zm135.22 86.64l26.93 0 0 -57.47c0,-8.6 0.84,-17.22 3.34,-25.27 6.38,-20.82 22.21,-33.04 39.43,-33.04 4.16,0 7.77,0.84 7.77,0.84l0 -26.66c0,0 -3.33,-0.56 -6.94,-0.56 -21.65,0 -38.03,16.1 -44.42,36.66l-0.56 0c0,0 0.56,-4.72 0.56,-10.56l0 -24.43 -26.1 0 0 140.5zm92.74 -39.43c0,28.05 23.6,42.77 47.75,42.77 33.6,0 44.99,-27.77 44.99,-27.77l0.55 0c0,0 -0.55,4.72 -0.55,11.1l0 13.33 24.99 0 0 -88.86c0,-35.53 -19.99,-54.98 -55.53,-54.98 -32.21,0 -52.48,16.66 -52.48,16.66l11.1 19.71c0,0 17.49,-13.6 39.15,-13.6 17.77,0 30.82,7.78 30.82,30.82l0 2.5 -6.11 0c-23.6,0 -84.68,1.94 -84.68,48.31zm27.21 -1.38c0,-25.27 36.65,-26.66 56.92,-26.66l6.94 0 0 4.44c0,20.82 -14.71,44.71 -37.48,44.71 -17.5,0 -26.38,-11.1 -26.38,-22.49zm129.12 2.5c0,35.26 22.49,39.43 37.76,39.43 4.72,0 8.88,-0.56 8.88,-0.56l0 -23.88c0,0 -2.22,0.28 -4.72,0.28 -8.33,0 -14.99,-3.06 -14.99,-19.99l0 -152.99 -26.93 0 0 157.71z"/>
   <path class="fil2" d="M2834.88 0c28.5,28.76 57.01,57.51 85.51,86.28 -6.46,4.79 -10.88,1.03 -15.3,-3.86 6.12,13.22 24.37,21.14 16.37,39.81 -5.33,2.02 -9.52,-0.48 -13.64,-3.37 -24.05,-32.61 -53.91,-57.45 -92.73,-70.98 -7.18,-2.5 -17.46,-5.8 -10.79,-17.89 8.51,-9.99 17.01,-19.99 25.52,-29.99 1.68,0 3.38,0 5.06,0z"/>
   <path class="fil3" d="M3149.42 399.26c9.08,36.32 7.38,73.33 1.84,109.41 -12.8,83.45 -56,149.65 -120.66,203.22 -45.33,37.58 -96.36,59.76 -154.49,68.93 -41.36,6.52 -82.18,7.11 -122.83,-1.01 -28.27,-5.65 -56.96,-11.81 -80.94,-29.83 -1.52,-6.27 -7.14,-8.45 -11.59,-11.95 -7.22,-5.68 -9.72,-11.61 1.06,-16.45 27.58,7.56 48.77,28.46 77.69,34.34 108.73,22.07 206.76,4.35 291.12,-71.8 34.88,-31.49 62.73,-67.61 80.94,-111.09 22.65,-54.06 25.92,-108.69 7.02,-164.59 -3.21,-9.49 -9.86,-20.7 2.19,-29.72 19.57,7.69 18.52,26.96 21.48,42.32 3.71,19.36 6.33,39.42 3.64,59.46 2.42,-19.49 -1.49,-38.74 -2.45,-58.09 -0.43,-8.56 -1.48,-16.83 5.98,-23.16z"/>
   <path class="fil4" d="M3043.85 212.08c52.43,44.08 90.53,96.82 100.6,166.5 1.69,5.53 5.02,13.03 -1.34,15.67 -8,3.32 -7.95,-5.95 -10.24,-10.66 -20.28,-41.72 -44.72,-80.51 -78.54,-112.81 -10.57,-10.08 -17.57,-22.41 -21.71,-36.42 0.1,-9.26 -4.18,-20.78 11.23,-22.28z"/>
   <path class="fil5" d="M2652.34 186.78c16.54,-31.86 44.52,-53.04 70.77,-75.85 27.75,-10.94 55.39,-21.77 86.39,-16.06 10.98,2.02 21.19,4.08 26.71,15.13 0.78,2.61 0.47,5.11 -0.9,7.47 -6,4.56 -12.63,3.15 -19.3,2.13 -52.76,-8.1 -92,15.19 -125.81,52.94 -22.65,25.3 -40.54,53.05 -52.03,85 -2.59,7.18 -6.96,13.37 -12.89,18.36 -4.39,2.99 -8.82,5.85 -14.34,2.6 1.14,-36.28 18,-65.48 41.39,-91.72z"/>
   <path class="fil6" d="M2657.56 724.45c-2.39,12.75 20.64,10.79 14.79,25.54 -19.68,-12.28 -42.03,-20.75 -56.99,-39.79 -25.4,-34.52 -47.73,-70.52 -61.9,-111.5 -5.58,-16.14 -7.6,-32.52 -10.92,-48.87 -2.56,-12.58 -8.86,-23.48 -17.25,-33.18 -1.44,-2.11 -2.53,-4.38 -3.39,-6.78 -1.63,-6.47 -1.64,-12.72 2.65,-18.33 11.68,-3.3 14.18,8.31 21.04,12.88 12.65,12.07 19.33,26.83 21.72,44.2 8.04,58.32 34.68,107.88 72.84,151.84 6.5,7.49 15.56,13.15 17.39,24.01z"/>
   <path class="fil7" d="M3037.53 238.11c18.15,26.92 44.92,47.28 62.02,73.98 15.74,24.57 35.6,48.2 43.53,78.46 0.46,-3.98 0.91,-7.97 1.36,-11.96 6.26,5.79 4.22,13.56 4.97,20.68 0,28.87 0,57.75 0,86.63 -3.95,-31 -11.75,-60.58 -20.31,-90.1 -1.98,-6.85 -3.68,-12.73 -10.51,-15.84 -22.74,-38.65 -49.55,-74.12 -81.84,-105.36 -3.62,-3.5 -4.68,-8.71 -5.31,-13.77 -0.39,-8.22 -0.83,-16.45 6.08,-22.71z"/>
   <path class="fil8" d="M2525.86 511.68c17.22,8.64 21.84,25.89 24.28,41.92 7.73,50.77 27.76,95.53 58.65,136.21 3.69,4.86 15.15,10.35 6.57,20.39 -23.5,-18.93 -46.43,-38.39 -59.64,-66.55 -15.57,-35.35 -23.55,-72.71 -29.86,-110.57 -1.2,-7.2 -5.8,-14.24 -0.01,-21.4z"/>
   <path class="fil9" d="M2652.34 186.78c-13.93,30.42 -31.9,59.07 -40.37,91.87 8.56,16.19 1.23,31.86 -1.57,47.66 -8.94,-3.75 -17.3,4.8 -26.29,1.32 -12.31,-32.16 5.93,-60.16 12.18,-89.79 17.01,-18.86 32.03,-39.91 56.06,-51.06z"/>
   <path class="fil10" d="M2525.86 511.68c16.33,39.09 11,84.33 34.38,121.51 2.38,3.78 -0.67,7.94 -4.51,10.46 -32.28,-41.26 -50.05,-87.8 -51.12,-140.43 -0.9,-2.32 -0.96,-4.64 -0.07,-6.98 13.63,-3.87 14.49,9.91 21.32,15.44z"/>
   <path class="fil11" d="M2748.3 86.03c6.58,-10.47 14.02,-20.09 25.56,-25.62 44.3,-6.3 76.61,17.16 107.55,43.64 5.21,4.46 8.64,10.37 5.33,17.84 -4.39,4.28 -9.76,5.02 -15.54,4.37 -5.65,-1.01 -10.48,-3.73 -14.97,-7.16 -21.76,-20.64 -47.82,-28.32 -77.43,-26.57 -10.51,0.63 -21.77,2.32 -30.5,-6.5z"/>
   <path class="fil12" d="M2921 121.59c0.18,-16.4 -16.59,-24.28 -20.56,-39.78 8.67,-5.22 12.9,6.78 19.95,4.46 9.3,7.52 20.14,13.57 24.57,25.74 5.62,23.76 20.23,44.05 26.19,67.71 2.02,9.3 2.9,18.49 -2.65,27.04 -5.69,4.54 -9.85,0.96 -14.02,-2.62 -14.98,-22.92 -17.6,-51.76 -35.1,-73.56 -2.18,-2.72 -0.78,-6.31 1.61,-9z"/>
   <path class="fil13" d="M2885.55 121.59c-20.98,-33.9 -54.55,-47.34 -91.11,-55.57 -6.97,-1.57 -15.19,1.78 -20.59,-5.61 5.42,-8.17 11.36,-15.81 20.3,-20.48 6.44,3.86 11.05,11.07 18.9,12.16 41.06,5.67 66.73,33.32 91.05,63.03 2.68,3.28 5.86,6.06 8.98,8.9 4.68,8.36 13.65,15.15 9.73,26.64 -15.34,5.93 -19.82,-8.31 -28.29,-15.17 -3.24,-4.46 -7.08,-8.56 -8.97,-13.91z"/>
   <path class="fil14" d="M2910.86 126.66c-10.37,-6.07 -16.98,-15.97 -25.29,-24.18 -20.04,-19.79 -38.95,-41.35 -70.79,-42.95 -9.87,-0.5 -22.67,-3.76 -20.64,-19.59 1.44,-5.3 4.93,-8.52 10.16,-9.95 4.53,16.1 20.56,14.88 31.75,19.93 32.14,14.5 57.23,36.15 74.83,66.6 2.8,3.39 3.24,6.77 -0.03,10.15z"/>
   <path class="fil15" d="M2748.3 86.03c29.47,0.73 59.5,-3.81 87.37,10.87 9.6,5.06 19.59,9.03 24.56,19.62 -10.13,6.74 -17.79,1.09 -25.35,-5.05 -25.81,-16.21 -52.8,-13.58 -80.38,-5.52 -10.16,2.97 -19.3,13.75 -31.39,4.99 6.76,-9.96 14.88,-18.54 25.19,-24.91z"/>
   <path class="fil16" d="M2506.29 420.43c0.36,-10.27 -4.35,-21.26 4.32,-30.36 13.29,-6.25 17.27,3.72 21.53,12.62 4.6,9.6 5.01,20.87 11.59,29.72 7.67,19.29 21.26,35.76 26.88,56.07 -0.02,2.53 -0.48,4.97 -1.32,7.36 -1.76,3.5 -4.44,6.01 -8.09,7.43 -2.5,0.3 -4.8,-0.31 -6.91,-1.64 -20.4,-24.45 -28.84,-55.99 -48,-81.2z"/>
   <path class="fil17" d="M2561.1 283.03c-0.23,-7.25 2.85,-12.34 9.79,-14.89 12.17,1.18 11.2,10.27 10.75,18.52 -1.56,28.47 2.95,56.8 2.03,85.24 0.15,9.6 0.65,19.27 -5.51,27.61 -2.8,2.15 -5.69,2.27 -8.67,0.39 -19.71,-37.74 -20.44,-76.85 -8.39,-116.87z"/>
   <path class="fil18" d="M2576.53 374.88c-0.01,-27.78 0.16,-55.55 -0.12,-83.32 -0.08,-8.08 2.67,-17.12 -5.52,-23.41 2.92,-14.74 14.65,-22.11 25.39,-30.31 7.93,11.2 2.16,23.91 -1.85,32.46 -9.14,19.5 -7.3,39.12 -7.77,59.01 8.91,9.91 6.93,21.32 4.6,32.82 -2.99,6.45 -5.2,13.85 -14.73,12.76z"/>
   <path class="fil19" d="M2506.29 420.43c3.78,-1.52 7.57,-3.61 10.27,1.79 13.2,26.43 26.47,52.84 39.72,79.26 -4.08,4.2 -8.76,4.73 -13.91,2.3 -13.29,-14.83 -24.06,-31.18 -31.33,-53.54 0.7,11.57 1.25,20.01 1.1,28.47 -0.34,6.55 -0.5,13.15 -5.74,18.11 -0.6,2.14 -1.19,4.27 -1.78,6.4 -8.93,-27.79 -3.79,-55.29 1.68,-82.79z"/>
   <path class="fil20" d="M2966.54 177.32c-8.11,-21.46 -27.99,-39.04 -21.58,-65.3 10.24,11.65 27.33,16.7 32.2,33.51 7.27,17.41 13.72,34.94 7.95,54.26 -6.6,7.72 -9.95,2.19 -12.45,-3.5 -2.67,-6.08 -1.99,-13.31 -6.11,-18.97z"/>
   <path class="fil21" d="M2561.1 283.03c0.38,39.34 -2.34,78.96 10.36,117.21 5.09,6.35 6.09,12.97 1.23,19.95 -9.47,3.45 -12.7,-3.33 -16.14,-9.8 -7.88,-33.32 -13.29,-67.03 -14.86,-101.29 5.34,-9.53 6.33,-22.3 19.41,-26.07z"/>
   <path class="fil22" d="M2981.82 202.65c1.94,-19.32 -8.65,-37.63 -4.66,-57.12 9.31,5.8 19.21,10.96 23.63,22 -0.22,19.42 9.03,37.11 10.31,56.28 0.8,4.87 0.59,9.57 -2.44,13.76 -11.17,4.39 -13.94,-6.99 -20.69,-10.98 -6.13,-6.93 -8.07,-14.95 -6.15,-23.95z"/>
   <path class="fil23" d="M2541.69 309.11c4.34,0.82 9.31,2.81 8.77,7.32 -3.86,32.24 10.19,62.31 10.85,93.94 -12.83,0.46 -13.37,-12.01 -19.59,-18.52 -10.6,-19.61 -6.91,-41.58 -10.26,-62.39 -2.59,-9.8 7.83,-13.06 10.23,-20.34z"/>
   <path class="fil24" d="M3007.1 222.9c-0.35,-18.65 -21.1,-34.99 -6.3,-55.36 7.58,9.22 20.93,12.66 25.29,25.13 -1.76,15.1 7.77,30.82 -2.57,45.44 -14.11,4.26 -11.29,-9.75 -16.41,-15.21z"/>
   <path class="fil25" d="M2541.06 435.68c-10.87,-4.08 -8.72,-14.74 -11.89,-22.86 -3.66,-9.38 -3.31,-22.63 -18.55,-22.75 2.1,-8.5 4.2,-16.98 6.3,-25.48 2.53,-5.29 5.37,-11.02 12.21,-10.12 4.41,0.59 6.86,5.56 6.17,9.57 -3.04,17.7 10.27,31.04 12.02,47.39 0.23,8.67 1.06,17.52 -6.26,24.24z"/>
   <path class="fil26" d="M3022.34 238.1c6.02,-14.75 -10.49,-31.36 3.74,-45.43 6.69,5.77 14.57,10.45 17.77,19.42 -9.93,6.77 -5.11,17.13 -6.31,26.02 -0.01,8.45 -0.02,16.9 -0.03,25.36 -5.62,2.63 -9.06,-0.7 -12.36,-4.47 -3.55,-6.61 -4.23,-13.61 -2.81,-20.89z"/>
   <path class="fil27" d="M2541.07 410.34c-2.72,-14.66 -11.34,-27.34 -10.72,-43.54 0.74,-19.09 -8.7,-1.85 -13.44,-2.2 4.86,-11.72 9.71,-23.44 14.56,-35.16 10.63,10.18 7.83,24.02 9.28,36.45 0.98,8.38 0.97,16.69 5.39,24.2 3.45,6.11 4.51,12.47 1.87,19.18 -1.99,2.44 -4.31,2.8 -6.94,1.07z"/>
   <path class="fil28" d="M2910.86 126.66c0.01,-3.39 0.02,-6.76 0.03,-10.15 3.37,1.69 6.73,3.39 10.11,5.08 17.92,24.35 28.38,51.98 35.48,81.07 2.78,3.19 3.2,6.59 0.93,10.24 -11.76,2.22 -13.9,-8.23 -19.23,-14.52 -4.21,-16.01 -21.18,-27.33 -17.2,-46.39 -3.37,-8.45 -6.74,-16.88 -10.12,-25.33z"/>
   <path class="fil29" d="M3027.4 258.37c3.38,1.69 6.74,3.39 10.11,5.09 10.21,15.01 21.97,28.55 35.53,40.72 22.86,20.51 36.6,46.76 45.56,75.76 5.27,33.05 20.79,64.51 19.81,98.24 -2.21,76.03 -33.09,140.58 -85.43,194.9 -43.5,45.15 -95.99,79.3 -156.89,90.53 -78.05,14.41 -157.63,17.61 -227,-34.79 -3.15,-2.38 -7.66,-2.96 -11.53,-4.38 -54.39,-46.37 -86.01,-105.34 -96.11,-175.78 -2.38,-16.61 -10.31,-29.63 -20.39,-42.04 -1.56,-1.14 -2.07,-2.27 -1.55,-3.4 0.53,-1.13 1.05,-1.69 1.57,-1.69 5.07,-0.02 10.13,-0.04 15.19,-0.06 1.64,0.02 3.29,0.03 4.93,0.02 14.99,9.44 21.49,24.14 21.37,40.7 -0.39,53.53 27.75,94.21 58.8,133.53 73.36,92.9 211.5,95.77 305.76,49.56 84.82,-41.59 146.16,-106.32 165.82,-201.11 16.34,-78.79 -5.32,-150.19 -57.54,-211.81 -6.18,-10.69 -15.19,-19.02 -23.19,-28.22 -6.44,-7.4 -13.08,-15.36 -4.83,-25.77z"/>
   <path class="fil30" d="M2622.1 273.58c6.53,-13.48 13.16,-26.92 19.6,-40.45 20.02,-42.09 48.14,-76.92 87.94,-102.29 33.22,-21.17 68.26,-23.52 105.23,-14.31 7.85,3.22 14.77,6.91 9.06,17.26 -4.56,3.12 -9.69,3.79 -15.04,3.57 -78.26,-18.55 -130.06,25.44 -169.72,97.37 -10.87,19.71 -10.1,44.4 -27.3,61.13 -4.25,1.31 -8.13,0.77 -11.55,-2.23 -4.22,-7.11 -2.33,-13.67 1.77,-20.04z"/>
   <path class="fil31" d="M2845.04 131.7c-3.39,-5.06 -6.77,-10.12 -10.17,-15.18 0.01,-1.68 0.01,-3.38 0.01,-5.06 8.46,1.68 16.9,3.37 25.35,5.05 3.37,1.7 6.73,3.41 10.09,5.1 16.25,15.04 37.48,27.11 32.63,54.73 -1.63,1.94 -3.72,3.14 -6.22,3.59 -20.9,-12.11 -35.67,-30.82 -51.68,-48.22z"/>
   <path class="fil32" d="M2622.1 273.58c0.01,6.75 0.02,13.5 0.03,20.27 14.27,25.37 1.98,49.73 -2.8,74.39 -6.94,6.05 -11.02,0.77 -15.3,-3.85 -4.77,-12.15 -6.61,-24.08 2.76,-35.13 -1.78,-17.22 2.51,-33.83 5.17,-50.6 3.38,-1.69 6.75,-3.38 10.14,-5.07z"/>
   <path class="fil33" d="M2541.09 501.54c-0.01,1.69 -0.01,3.4 -0.02,5.09 -5.07,-5.06 -10.14,-10.12 -15.21,-15.17 -9.42,-1.5 -14.07,-9.34 -20.23,-15.18 1.06,-10.36 -2.49,-21.13 3.07,-33.28 16.19,17.75 22.8,39.01 32.39,58.54z"/>
   <path class="fil8" d="M2505.63 476.28c10.32,0.29 15.77,7.07 20.23,15.18 0,6.74 0,13.47 0,20.22 -10.73,0.59 -11.1,-12.38 -19.48,-14.86 -0.24,-6.84 -0.5,-13.69 -0.75,-20.54z"/>
   <path class="fil34" d="M2606.8 329.25c0.06,11.84 0.11,23.67 0.16,35.51 8.82,13.29 7.89,27.83 5.59,42.56 -0.76,2.81 -2.1,5.34 -3.98,7.56 -17.64,-7.08 -24.35,-22.4 -21.93,-50.1 0.01,-11.83 0.02,-23.66 0.03,-35.48 6.7,-3.16 13.39,-17.62 20.14,-0.05z"/>
   <path class="fil35" d="M2900.8 177.27c1.96,-25.19 -24.29,-34.94 -30.48,-55.66 5.07,-0.01 10.15,-0.01 15.22,-0.02 6.56,0.18 9.95,3.56 10.14,10.12 11.71,20.9 35.35,35.7 32.72,63.95 -1.26,2.21 -3.18,3.49 -5.72,3.81 -11.27,-3.47 -16.83,-12.58 -21.88,-22.2z"/>
   <path class="fil36" d="M2956.46 212.8c0.01,-3.39 0.02,-6.76 0.03,-10.14 3.36,1.68 6.72,3.37 10.08,5.05 19.01,9.93 16.59,29.77 21.47,46.27 0.35,9.73 1.52,19.6 -4.16,28.45 -13.77,4.95 -15.52,-7.5 -21.06,-14.51 -0.56,-18.53 -18.79,-35.08 -6.35,-55.12z"/>
   <path class="fil37" d="M2981.83 253.26c-4.06,-15.53 -6.44,-31.62 -15.27,-45.55 0,-10.13 -0.01,-20.26 -0.02,-30.39 9.8,5.6 7.15,18.71 15.28,25.33 8.11,4.4 1.96,15.85 10.03,20.27 5.25,11.99 12,23.87 2.79,36.96 -6.5,2.13 -9.83,-1.89 -12.81,-6.61z"/>
   <path class="fil38" d="M2926.09 197.55c-1.69,-25.84 -25.89,-41.3 -30.41,-65.84 8.44,6.76 16.86,13.51 25.3,20.28 4.71,16.1 20.69,27.19 20.32,45.56 3.48,4.68 4.43,9.57 1.27,14.83 -12.4,2.74 -17.38,-2.78 -16.48,-14.83z"/>
   <path class="fil39" d="M3057.78 308.96c42.19,40.18 60.55,91.29 65.68,147.64 8.1,88.91 -29.49,158.2 -92.28,218.3 -76.25,72.98 -165.85,96.83 -267.82,79.92 -79.73,-13.23 -130.05,-64.49 -166.22,-132.85 -13.45,-25.42 -24.88,-51.34 -20.69,-81.3 2.21,-15.8 -13.38,-24.85 -15.25,-39.17 1.77,-1.7 3.54,-3.41 5.3,-5.11 20.54,2.32 23,19.34 27.07,34.3 11.32,41.6 23.47,82.72 47.98,119.03 36.84,54.59 88.08,84 153.61,88.3 45.89,3.02 91.35,-0.08 133.53,-19.92 82.33,-38.72 149.64,-93.86 169.79,-187.08 18.54,-85.8 -7.46,-161.11 -70.74,-222.74 -6.72,-7.49 -13.16,-15.21 -17.99,-24.13 -1.1,-3.74 -0.84,-7.33 1.32,-10.67 22.58,2.59 32.14,22.33 46.7,35.47z"/>
   <path class="fil40" d="M3027.39 304.12c25.45,9.06 33.39,33.84 46.79,53.28 46.99,68.13 46.75,142.94 18.07,215.55 -20.3,51.39 -59.95,90.79 -107.77,121.95 -51.66,33.67 -105.98,50.62 -167.84,50.41 -89.14,-0.3 -153.24,-38.15 -195.21,-116.37 -16.48,-30.73 -25.37,-63.85 -34.01,-96.95 -3.81,-14.65 -9.46,-26.33 -20.9,-35.59 0.01,-1.64 0.03,-3.28 0.05,-4.91 4.55,-3.77 5.48,-11.05 12.25,-12.71 7.53,-0.8 11.25,4.06 14.5,9.68 12.06,17.39 18.91,36.34 23.08,57.43 9.44,47.71 31.47,89.68 65.52,124.91 30.58,43.98 75.75,55.7 125.73,57.24 132.57,4.07 218.69,-63.32 274.15,-177.92 5.93,-12.23 7.35,-25.94 11.71,-38.7 6.68,-23.81 3.39,-47.19 -3.04,-70.4 -0.9,-2.34 -1.54,-4.75 -2.05,-7.19 -2.12,-38.19 -25.62,-66.6 -44.32,-97.27 -6.31,-10.36 -18.57,-17.81 -16.69,-32.42z"/>
   <path class="fil41" d="M2576.55 481.25c-0.19,6.47 -3.46,9.95 -10,10.23 -6.2,-19.65 -22.09,-34.88 -25.5,-55.8 0,-8.45 0,-16.89 0.01,-25.34 1.68,0.01 3.38,0.01 5.07,0.01 3.74,-1.26 7.28,-0.05 8.03,3.5 4.56,21.66 18.95,39.24 24.73,60.36 0.21,2.67 -0.59,5.02 -2.34,7.04z"/>
   <path class="fil42" d="M2586.63 364.79c7.96,16.39 7.23,36.26 20.24,50.64 5.99,5.99 5.69,12.62 2.06,19.62 -8.3,7.02 -15.7,2.96 -23.05,-1.86 -7.65,-9.68 -13.77,-19.83 -9.39,-32.97 0.01,-8.45 0.02,-16.89 0.04,-25.35 3.37,-3.37 6.73,-6.72 10.1,-10.09z"/>
   <path class="fil43" d="M2576.49 400.22c3.4,10.14 6.79,20.27 10.19,30.41 14.62,11.32 21.08,27.05 24.12,44.65 -0.44,2.59 -1.56,4.83 -3.36,6.75 -20.92,-0.39 -24.93,-19.66 -35.44,-31.71 -4.63,-9.85 -9.21,-19.73 -0.62,-29.85 0.03,-6.74 0.05,-13.48 0.07,-20.24 1.67,0 3.36,-0.01 5.03,-0.01z"/>
   <path class="fil44" d="M2571.39 420.47c-1.68,10.71 3.42,20.27 5.11,30.41 4.72,8.44 7.72,16.87 -0.01,25.31 -14.24,-20.04 -23.22,-42.52 -30.36,-65.83 0,-6.75 0,-13.5 0,-20.26 5.06,6.75 10.12,13.51 15.18,20.27 3.37,3.37 6.72,6.74 10.08,10.11z"/>
   <path class="fil45" d="M3057.78 308.96c-17.54,-8.72 -29.93,-24.06 -45.47,-35.35 -9.43,-10.72 -7.61,-23.07 -5.17,-35.5 -0.02,-5.07 -0.03,-10.14 -0.04,-15.21 5.08,5.07 10.16,10.13 15.24,15.2 7.37,5.34 4.31,13.29 5.06,20.28 -1.87,12.49 6.84,19.25 14.18,27 6.58,6.96 16.03,12.15 16.2,23.58z"/>
   <path class="fil46" d="M3007.14 238.11c9.74,10.67 3.02,23.73 5.17,35.5 -0.03,3.35 -0.06,6.69 -0.08,10.03 -10.43,1.99 -13.2,-8.06 -19.61,-12.42 -2.91,-4.12 -5.07,-8.31 -0.67,-12.82 -0.04,-11.83 -0.07,-23.65 -0.1,-35.48 8.07,2.07 8.93,11.38 15.29,15.19z"/>
   <path class="fil47" d="M2941.22 212.82c0.03,-5.09 0.05,-10.18 0.08,-15.27 5.05,5.08 10.1,10.16 15.16,15.25 -2.66,19.69 14.83,35.7 10.18,55.75 2.77,3.3 3.19,6.77 0.78,10.46 -5.88,2.4 -9.78,-0.7 -13.37,-4.75 -4.85,-8.93 -7.96,-18.7 -13.1,-27.54 -4.53,-11.33 -9.32,-22.69 0.27,-33.9z"/>
   <path class="fil48" d="M2632.24 293.83c10.04,-44.86 29.53,-84.78 60.74,-118.92 37.4,-40.92 81.96,-58.11 136.84,-43.17 7.92,9.27 28.31,7.02 24.83,26.86 -10.15,5.96 -19.65,0.4 -29.37,-1.55 -3.58,-1.22 -6.9,-2.95 -10.15,-4.82 -51.4,-15.28 -88.02,10.3 -118.84,45.89 -24.29,28.06 -41.47,60.93 -48.01,98.35 -4.23,8.62 -1.4,23.13 -17.87,21.6 -4.52,-8.48 -4.03,-16.55 1.83,-24.23z"/>
   <path class="fil49" d="M2855.15 157.08c-3.74,-13.15 -24.1,-9.69 -25.33,-25.35 5.07,-0.01 10.15,-0.02 15.22,-0.03 22.2,9.3 35.44,28.54 50.62,45.61 5.46,5.47 10.62,11.03 6.51,19.67 -6.15,4.69 -11.84,1.22 -17.62,-0.96 -13.29,-10.34 -28.6,-19.17 -29.41,-38.95z"/>
   <path class="fil50" d="M2632.24 293.83c0,8.45 0.01,16.89 0.01,25.35 9.81,11.02 6.6,24.36 6.65,37.13 -1.43,9.8 -3.42,19.34 -13.25,24.63 -7.57,-0.07 -8.11,-5.58 -8.6,-11.12 -2.52,-25.6 8.36,-50.3 5.08,-75.96 3.37,-0.01 6.74,-0.01 10.11,-0.02z"/>
   <path class="fil51" d="M2900.72 197.57c-1.68,-6.75 -3.38,-13.5 -5.06,-20.26 1.71,-0.01 3.43,-0.02 5.14,-0.04 11.88,1.63 13.98,13.02 20.23,20.27 4.86,9.34 13.01,17.92 7,29.82 -3.02,3.27 -6.77,4 -10.99,3.21 -12,-7.74 -19.12,-17.92 -16.32,-33z"/>
   <path class="fil52" d="M2617.05 369.81c4.03,2.2 4.96,5.96 5.08,10.12 10.34,7.85 12.46,19.72 15.38,31.23 0.89,6.79 0.62,13.4 -3.47,19.3 -19.58,7.54 -21.01,-9.41 -27.08,-20.1 0,-15.2 0,-30.4 -0.01,-45.59 3.37,1.68 6.73,3.37 10.1,5.04z"/>
   <path class="fil53" d="M2606.97 410.36c8.81,6.26 12.98,18.31 25.24,20.27 9.07,2.78 11.36,11.22 15.38,18.27 2.6,5.53 4.65,11.18 3.65,17.46 -0.65,2.4 -1.83,4.49 -3.54,6.3 -3.37,1.84 -6.87,2.05 -10.49,0.88 -10.65,-7.25 -17.69,-18.67 -29.01,-25.19 -3.47,-3.92 -5.51,-8 -1.26,-12.69 -0.02,-6.74 -0.04,-13.48 -0.06,-20.23 0.03,-1.69 0.06,-3.38 0.1,-5.07z"/>
   <path class="fil54" d="M2926.09 227.97c-1.68,-10.14 -3.37,-20.29 -5.06,-30.43 1.69,0.02 3.38,0.02 5.06,0.02 3.3,6.81 8.33,11.91 15.13,15.26 -1.53,12.28 2.27,23.78 5.14,35.43 3.33,6.2 5.18,12.15 -2.97,16.26 -12.1,-9.17 -15.53,-22.47 -17.3,-36.54z"/>
   <path class="fil55" d="M2966.52 278.69c0.04,-3.38 0.07,-6.76 0.11,-10.14 8.01,2.11 8.83,11.37 15.12,15.19 4.25,3.27 5.21,8.05 6.02,12.91 1.43,27.09 26.64,36.32 40.64,53.95 1.46,1.77 2.75,3.68 3.94,5.65 5.83,9.75 11.81,19.39 19.9,27.55 5.12,5.62 9.33,11.74 11.16,19.25 1.95,12.45 3.96,25.11 7.81,36.89 20.28,62.09 0.66,116.36 -34.61,165.67 -23.2,32.44 -48.68,64.94 -91.32,75.09 -4.2,0.47 -8.54,0.88 -12.15,3.06 -44.37,26.76 -93.57,25.63 -142.01,21.22 -27.03,-2.46 -57.78,-5.49 -69.91,-38.41 15.56,-14.64 26.1,7.66 40.01,5.38 110.1,36.04 227.54,-21.79 272.14,-128 18.16,-43.22 8.71,-88.25 -9.38,-130.06 -9.58,-22.12 -22.65,-42.66 -40.58,-60.33 -20.65,-20.37 -32.59,-45.14 -16.88,-74.86z"/>
   <path class="fil56" d="M3027.46 359.71c-0.04,-1.67 -0.07,-3.35 -0.08,-5.03 -14.52,-19.09 -32.86,-35.08 -45.5,-55.7 -0.04,-5.08 -0.08,-10.16 -0.12,-15.24 0.03,-10.16 0.05,-20.32 0.08,-30.48 3.38,1.71 6.74,3.43 10.12,5.14 0.11,4.14 0.91,7.96 4.99,10.14 7.87,17.7 18.66,33.15 31.71,47.67 31.01,34.51 52.87,74.37 64.59,119.5l0 -0.01c4.22,6.23 2.32,12.98 1.66,19.63 -13.45,7.67 -17.85,-3.16 -21.25,-11.8 -5.62,-14.27 -11.84,-28.38 -15.82,-43.28 -3.41,-5.04 -6.8,-10.08 -10.21,-15.12 -6.32,-8.79 -9.06,-20.42 -20.17,-25.42z"/>
   <path class="fil57" d="M3093.24 435.71c-21.3,-39.04 -34.54,-82.93 -67.82,-114.76 -15.25,-14.59 -29.46,-29.23 -28.47,-52.41 8.08,2.02 8.89,11.38 15.29,15.1 8.01,4.63 14.74,10.22 15.16,20.48 25.69,30.15 44.72,64.59 63.3,99.25 5.43,10.11 1.63,21.54 2.55,32.34z"/>
   <path class="fil58" d="M3057.83 400.24c15.89,15.96 13.58,43.49 35.39,55.69 8.75,17.94 9.84,36.58 5.11,55.75 -20.76,90.88 -74.56,155.45 -157.17,196.88 -67.02,33.6 -136.44,34.16 -206.89,13.32 -25.47,-7.54 -42.11,-26.72 -56.42,-48.03 8.81,-5.08 18.75,-3.49 28.23,-4.8 17.88,3.43 28.06,19.81 45.25,25.54 68.49,22.82 133.09,14.78 195.06,-20.76 46.41,-15.02 73.47,-52.14 97.32,-90.38 20.39,-32.71 32.32,-70.17 28.75,-109.67 -2.23,-24.8 -14.66,-48 -14.64,-73.54z"/>
   <path class="fil59" d="M2703.15 673.73c-8.43,2.51 -16.86,2.37 -25.31,0.12 -39.29,-35.85 -59.99,-82.26 -69.25,-132.96 -3.56,-19.5 -12.31,-34.02 -21.9,-49.46 11.3,-7.37 18.89,3.41 28.24,5.73 10.37,5.38 16.59,13.92 18.3,25.41 7.26,49.24 26.18,92.8 60.95,129.16 5.39,5.64 12,12.25 8.96,22z"/>
   <path class="fil60" d="M2612 501.52c-8.44,-3.36 -16.87,-6.72 -25.31,-10.08 -0.26,-6.51 -3.57,-9.99 -10.15,-10.19 -0.01,-1.69 -0.03,-3.38 -0.06,-5.07 0,-8.44 0.01,-16.87 0.01,-25.31 12.65,7.62 15.83,24.69 30.38,30.4 9.66,4.74 11.29,11.5 5.13,20.25z"/>
   <path class="fil57" d="M3098.33 511.69c3.09,-19.02 -5.04,-37.02 -5.1,-55.75 0,-6.74 0,-13.49 0.01,-20.24 11.66,24.66 15.3,49.86 5.09,75.99z"/>
   <path class="fil61" d="M2606.93 435.66c0.13,4.15 0.98,7.97 5.04,10.17 5.83,11.53 18.24,19.99 16.41,35.12 -1.67,1.92 -3.73,3.21 -6.18,3.91 -7.38,1.19 -11.66,-3.12 -15.26,-8.63 -6.75,-15.2 -13.5,-30.4 -20.26,-45.59 6.75,1.67 13.49,3.36 20.25,5.03z"/>
   <path class="fil62" d="M2606.94 476.22c5.05,1.69 10.1,3.4 15.15,5.09 17.52,9.7 24.6,24.32 28.25,44.44 8.96,49.32 26.74,95.1 68.74,127.18 3.36,2.57 6.04,5.9 4.35,10.75 15.2,27.56 42.74,33.54 69.66,34.81 48.21,2.25 97.52,6.21 141.03,-23.07 3.06,-2.06 8.14,-1.13 12.28,-1.58 -14.03,17.22 -34.56,23.48 -54.31,28.77 -63.19,16.92 -124.91,19.06 -179.54,-25.95 -2.35,-1.93 -6.23,-1.98 -9.4,-2.92 -25.43,-32.7 -54.74,-62.99 -65.95,-104.56 -3.89,-14.44 -7.85,-29.06 -9.57,-43.85 -1.32,-11.36 -6.06,-18.72 -15.63,-23.8 0.76,-7.37 -1.67,-13.93 -5.13,-20.25 0.02,-1.68 0.04,-3.37 0.06,-5.05z"/>
   <path class="fil63" d="M2966.52 278.69c-3.68,33.14 7.85,58.09 32.56,82.02 42.19,40.84 66.06,152.5 29.65,209.48 -57.45,89.91 -135.59,123.48 -236.86,118.98 -12.33,-0.55 -20.08,-13.18 -32.97,-10.34 -28.23,-20.32 -58,-37.4 -77.91,-68.94 -16.32,-25.84 -24.64,-52.89 -28.83,-81.51 -2.42,-16.43 -5.41,-30.85 -17.82,-42.3 -1.73,-5.52 -1.48,-10.64 2.98,-14.91 3.4,0 6.78,-0.01 10.17,-0.02 21.71,9.12 29.65,27.11 32.14,49.01 3.99,35.03 14.89,66.49 39.87,93.41 49.48,53.32 111.22,67.19 178.48,37.22 8.1,-3.49 16.02,-7.32 23.76,-11.57 97.64,-52.81 128.91,-152.6 63.92,-245.32 -9.09,-12.96 -18.28,-26.06 -30.38,-36.91 -13.72,-12.31 -10.56,-29.05 -9.02,-45.02 5.55,-12.23 -0.32,-27.53 10.22,-38.41 3.35,1.7 6.7,3.41 10.05,5.11z"/>
   <path class="fil64" d="M2956.48 273.58c-0.8,13.6 2.77,27.76 -5.07,40.48 -2.56,1.75 -4.89,1.49 -7.01,-0.76 -5.91,-9.45 -4.35,-20.76 -7.72,-30.84 -0.97,-6.95 -1.23,-13.73 4.62,-19.01 5.93,-3.66 4.87,-9.64 5.06,-15.21 8.03,6.58 10.44,15.42 10.12,25.34z"/>
   <path class="fil65" d="M2819.69 146.93c1.7,1.68 3.4,3.38 5.09,5.06 6.34,3.86 10.22,8.6 5.82,16.3 -3.07,2.67 -6.71,3.99 -10.65,4.64 -64.93,-3.28 -104.87,31.49 -131.8,86.37 -5.9,12.03 -9.3,25.33 -17.98,36 -4.2,3.59 -8.46,6.94 -14.24,3.01 -4.4,-5.95 -4.86,-12.62 -3.62,-19.59 13.15,-44.31 37.05,-81.05 73.85,-109.83 28.22,-22.09 58.94,-29.17 93.53,-21.96z"/>
   <path class="fil66" d="M2819.69 146.93c-74.97,-10.08 -136.44,52.15 -162.13,131.72 -5.09,5.04 -1.63,18.6 -15.17,15.19 18.35,-68.99 51.17,-126.67 124.07,-149.64 16.61,-5.23 35.96,-7.17 53.22,2.73z"/>
   <path class="fil67" d="M2642.39 293.84c5.05,-5.06 10.11,-10.12 15.17,-15.19 0.01,6.75 0.02,13.49 0.03,20.25 4.09,22.64 3.47,45.21 -1.09,67.7 -2.09,4.09 -5.53,6.05 -10.05,6.24 -8.31,-0.51 -10.17,-8.01 -14.2,-13.16 0,-13.5 0,-27.01 0,-40.51 6.87,-7.05 7.94,-16.41 10.14,-25.34z"/>
   <path class="fil68" d="M2829.83 167.18c-1.68,-5.06 -3.38,-10.13 -5.06,-15.19 10.13,1.69 20.25,3.4 30.38,5.09 10.14,11.81 20.28,23.62 30.43,35.43 8.13,7.81 12.79,16.59 7.98,28.08 -8.58,8.73 -12.95,-1.64 -19.07,-4.19 -2.78,-2.31 -5.11,-5.02 -6.99,-8.09 -5.02,-20.6 -26.48,-26.15 -37.66,-41.12z"/>
   <path class="fil69" d="M2890.66 222.87c1.77,-10.7 -3.48,-20.23 -5.08,-30.37 5.05,1.69 10.1,3.38 15.15,5.07 5.08,10.14 10.16,20.27 15.25,30.41 5.35,5.19 10.05,10.63 7.17,18.92 -1.33,2.01 -3.17,3.35 -5.53,3.91 -12.18,-0.74 -15.46,-12.33 -22.96,-18.8 -2.21,-2.66 -3.81,-5.6 -4,-9.14z"/>
   <path class="fil70" d="M2632.25 359.69c4.83,1.92 8.21,5.31 10.16,10.13 9.1,14.98 16.25,30.47 12.56,48.75 -11.39,7.88 -16.18,-2.56 -22.71,-8.21 -3.38,-10.14 -6.75,-20.29 -10.13,-30.44 6.57,-5.14 9.28,-12.23 10.12,-20.24z"/>
   <path class="fil71" d="M2920.98 248.26c-1.66,-6.76 -3.34,-13.52 -5.01,-20.29 3.37,0 6.74,-0.01 10.12,-0.01 9.22,10.05 15.18,21.49 15.21,35.48 0.01,6.74 0.01,13.48 0.01,20.22 -2.2,1.35 -4.51,1.56 -6.93,0.64 -9.46,-10.15 -16.23,-21.31 -13.4,-36.04z"/>
   <path class="fil72" d="M2632.26 410.36c8.8,-0.74 13.22,7.26 20.21,10.13 5.22,1.36 7.88,5.31 10.03,9.81 2.08,8.98 10.79,17.19 3.41,27.37 -10.15,5.79 -16.24,-2.49 -23.49,-6.77 -3.4,-6.75 -6.8,-13.5 -10.21,-20.27 0.02,-6.75 0.04,-13.51 0.06,-20.27z"/>
   <path class="fil73" d="M2900.74 653.53c-40.56,27.63 -83.03,25.89 -126.04,7.25 -64.37,-27.9 -97.95,-77.54 -101.96,-147.36 -1.07,-18.6 -17.53,-27.76 -25.25,-42.25 0.02,-1.69 0.03,-3.39 0.05,-5.07 16.23,-4.92 24.83,11.78 38.7,13.64 18.53,14.74 12.72,35.65 13.96,54.78 -6.16,49.22 57.59,112.5 105.36,117.22 23.39,2.31 46.28,4.36 69.32,-2.14 8.8,-2.48 18.25,-3.87 25.86,3.92z"/>
   <path class="fil74" d="M2682.9 481.29c-16.28,5.4 -23.07,-11.33 -35.37,-15.2 -1.71,-5.06 -3.42,-10.13 -5.13,-15.2 8.43,1.68 16.85,3.37 25.27,5.04 1.14,0.23 2.26,0.47 3.4,0.68 8.14,4.78 15,10.75 18.39,19.92 -0.65,3.69 -1.78,6.74 -6.56,4.76z"/>
   <path class="fil75" d="M2637.32 471.19c0,5.05 -0.01,10.09 -0.01,15.14 -5.54,2.62 -8.25,-0.41 -10.14,-5.07 -3.67,-12.41 -17.19,-20.6 -15.21,-35.44 13.37,3.55 19.54,14.28 25.36,25.37z"/>
   <path class="fil76" d="M2627.17 481.26c3.38,1.69 6.75,3.38 10.14,5.07 15.7,5.81 19.84,17.7 20.54,33.58 2.66,60.7 31.83,106.44 81.89,139.57 7.83,5.19 14.64,11.07 19.17,19.36 -14.13,0.35 -21.95,-14.07 -35.47,-15.17 -50,-31.97 -70.36,-82.64 -79.41,-137.03 -3.24,-19.41 -16.22,-29.65 -21.94,-45.33 1.69,-0.01 3.4,-0.03 5.09,-0.05z"/>
   <path class="fil77" d="M2981.87 298.98c22.2,12.83 33.29,34.72 45.5,55.7 -18.33,-15.99 -42.81,-26.94 -45.5,-55.7z"/>
   <path class="fil78" d="M3027.46 359.71c15.33,1.64 17.59,13.65 20.17,25.42 -10.39,-5.57 -13.35,-17.02 -20.17,-25.42z"/>
   <path class="fil79" d="M2900.74 653.53c-37.79,4.19 -75.02,12.65 -113.55,0.86 -44.52,-13.63 -96.85,-70.13 -94.15,-117.37 13.76,-1.72 15.38,9.88 19.83,18.21 7.73,14.45 11.01,31.74 26.59,41.11 22.58,12.42 35.89,36.85 63.8,43.59 23.19,5.62 43.85,5.75 66.42,-1.36 29.14,-9.19 57.28,-19.04 80.12,-40.47 35.69,-33.48 49.16,-73.23 35.71,-121.08 -1.35,-4.85 -2.32,-9.83 -2.56,-14.91 6.9,-14.51 -8.75,-28.59 -0.88,-43.14 3.84,-1.79 7.62,-1.6 11.36,0.33 33.01,54.26 35.93,113.08 -3.02,164.02 -18.67,24.43 -39.11,48.38 -69.41,60.12 -3.85,9.18 -11.62,10.54 -20.28,10.11z"/>
   <path class="fil73" d="M2921.02 643.42c32.02,-24.48 62.93,-50.2 80.64,-87.6 22.11,-46.7 6.3,-91.12 -9.74,-135.32 -11.01,-14.72 -22.17,-29.13 -36.08,-41.54 -14.32,-12.78 -21.99,-29.49 -20.25,-49.48 1.1,-6.89 3.44,-12.93 10.79,-15.43 1.67,0.01 3.35,0.01 5.03,0.01 -9.6,34.72 20.83,50.05 36.65,70.96 48.99,64.78 56.01,158.83 -10.9,219.71 -16.85,15.34 -28.49,38.81 -56.14,38.68z"/>
   <path class="fil80" d="M2946.38 314.06c-1.7,5.09 -3.41,10.17 -5.1,15.25 -3.36,3 -7.01,3.03 -10.87,1.09 -2.86,-3.03 -4.23,-6.73 -4.96,-10.75 -0.52,-2.65 -0.73,-5.33 -0.75,-8.03 0.81,-10.55 -1.17,-22.28 11.5,-27.95 1.7,0 3.41,0 5.1,0 9.11,8.89 3.39,20.26 5.07,30.39z"/>
   <path class="fil81" d="M2667.69 293.85c15.54,-54.05 45.21,-96.17 97.55,-121.18 18.35,-8.76 36.41,-3.11 54.44,-5.47 7.05,5.69 18.88,7.82 15.74,21.12 -1.93,1.6 -4.14,2.65 -6.57,3.26 -3.74,0.55 -7.43,0.2 -11.07,-0.74 -27.92,-11.69 -50.51,2.76 -71.89,16.68 -28.22,18.38 -46.06,45.5 -56.17,77.68 -3.26,10.38 -7.11,20.64 -13.2,29.73 -2.82,4.22 -6.77,8.03 -11.75,1.83 -4.08,-8.3 -1.78,-15.77 2.93,-22.92z"/>
   <path class="fil82" d="M2667.69 293.85c0.02,8.44 0.04,16.88 0.05,25.32 7.78,8 6.71,18.1 6.69,27.95 -0.15,5.47 -0.87,10.85 -3.09,15.91 -4.19,6.51 -7.87,13.49 -14.57,18.01 -6.64,-1.7 -8.26,-5.37 -4.31,-11.17 2.32,-23.6 -5.06,-47.91 5.13,-70.96 3.37,-1.68 6.73,-3.37 10.1,-5.05z"/>
   <path class="fil83" d="M2834.88 187.42c-5.07,-6.74 -10.14,-13.48 -15.21,-20.23 3.39,-0.01 6.77,-0.01 10.16,-0.02 18.01,8.99 39.27,14.72 40.5,40.49 -15.89,0.37 -25.08,-10.98 -35.45,-20.25z"/>
   <path class="fil84" d="M2652.46 369.86c0.13,4.14 1.02,7.9 5.07,10.07 10.63,2.65 14.02,11 16.11,20.4 -2.3,11.19 13.16,20.87 2.88,32.78 -6.88,3.44 -13.18,2.48 -18.93,-2.49 -1.71,-3.38 -3.42,-6.74 -5.12,-10.12 0.54,-17.66 -12.67,-32.6 -10.06,-50.67 3.35,0.01 6.7,0.03 10.05,0.04z"/>
   <path class="fil85" d="M2834.88 187.42c15.33,0.61 23.74,13.31 35.45,20.25 1.69,1.69 3.39,3.39 5.08,5.08 3.85,4.1 5.27,9.16 5.8,14.58 -0.15,6.76 -0.98,13.22 -7.72,16.98 -10.31,-0.29 -13.92,-9.45 -20.17,-15.17 -5.15,-15.38 -22.99,-23.64 -23.5,-41.66 1.69,-0.01 3.38,-0.04 5.06,-0.06z"/>
   <path class="fil86" d="M2875.42 227.98c0,-5.07 0,-10.15 0,-15.23 7.85,-0.8 9.92,7.11 15.23,10.12 1.69,1.7 3.39,3.4 5.07,5.09 4.75,9.04 10.76,17.77 6.96,28.87 -8.97,6.76 -13.39,-0.86 -18.62,-5.89 -5.1,-6.8 -2.2,-16.63 -8.63,-22.97z"/>
   <path class="fil87" d="M2936.21 283.67c-6.04,9.41 -5.15,19.99 -5.12,30.43 -18.39,-0.66 -16.66,-16.56 -21.12,-27.82 -0.28,-13.02 -4.23,-26.63 5.99,-37.99 1.68,-0.01 3.36,-0.02 5.03,-0.02 5.08,11.8 10.15,23.6 15.23,35.41z"/>
   <path class="fil88" d="M2915.95 248.28c0,13.48 0,26.98 -0.01,40.46 -1.98,1.57 -4.1,1.78 -6.36,0.64 -6.01,-5.99 -9.15,-13.55 -11.81,-21.4 -0.56,-3.67 -0.04,-7.01 2.93,-9.6 -1.58,-10.16 -6.84,-19.71 -4.98,-30.43 9.95,3.59 12.84,14.2 20.24,20.33z"/>
   <path class="fil89" d="M2910.9 288.77c1.68,-0.01 3.36,-0.01 5.04,-0.02 5.78,8.02 3.47,20.86 15.15,25.35 0.02,1.68 0.02,3.37 0,5.05 -41.57,84.94 -115.56,125.86 -202.67,148.41 -21.53,5.58 -41.44,-2.59 -60.7,-11.61 0,0 -0.04,-0.01 -0.04,-0.01 -3.37,-8.44 -6.73,-16.88 -10.09,-25.33 6.74,-0.01 13.49,-0.01 20.25,-0.02 7.21,-6.79 15.57,-5.23 23.73,-2.84 21.22,6.21 42.07,2.68 61.85,-4.48 36.67,-13.28 69.48,-33.76 98.47,-59.82 13.9,-12.49 23.4,-28.44 30.11,-46 4.16,-10.92 7.46,-22.53 18.91,-28.68z"/>
   <path class="fil90" d="M2981.8 420.49c2.93,13.36 17.42,25.26 5.07,40.52 -2.57,0.83 -5.39,0.6 -6.78,-1.51 -25.7,-38.72 -47.78,-30.26 -80.22,-16.91 -48.28,19.87 -89.9,51.78 -136.11,75.39 -22.9,11.7 -25.4,33.75 -27.09,55.88 -0.62,8.06 4.12,16.75 -3.1,23.94 -15.17,-7.55 -18.4,-23.36 -24.75,-36.74 -4.21,-8.88 -5.72,-19.13 -15.78,-24.05 -1.42,-18.93 5.29,-39.34 -10.14,-55.72 1.68,-1.69 3.38,-3.38 5.06,-5.07 17.69,-10.67 38.55,-7.86 57.66,-13.78 66.52,-20.64 125.2,-51.48 165.15,-111.19 4.9,-7.32 8.64,-16.96 19.59,-18.25 9.18,-0.34 9.35,6.8 7.96,12.07 -5.09,19.27 5.61,28.54 19.95,38.06 12.74,8.45 28.3,17.04 23.52,37.35z"/>
   <path class="fil91" d="M2931.17 334.36c-24.79,34.78 -51.44,68.23 -88.43,90.53 -47.49,28.64 -97.2,52.31 -154.78,51.33 -8.63,-4.87 -15.42,-11.6 -20.25,-20.28 83.16,19.6 145.61,-23.69 207.13,-68.85 12.69,-9.31 22.41,-21.44 29.5,-36.7 5.52,-11.86 11.08,-26.74 26.74,-31.25 0.03,3.39 0.06,6.78 0.09,10.18 1.74,1.13 2.32,2.24 1.74,3.37 -0.59,1.12 -1.17,1.67 -1.75,1.67z"/>
   <path class="fil92" d="M2733.57 597.8c-10.09,-60.94 7.79,-80.17 51.85,-98.36 27.09,-11.18 49.85,-32.44 76,-46.46 25.5,-13.67 52.25,-28.99 81.29,-29.23 20.51,-0.18 36.18,16.69 44.17,37.26 33.87,82.15 -18.39,152.43 -104.07,181.8 -63.07,21.63 -108.25,-1.09 -149.23,-45.01z"/>
   <path class="fil93" d="M2931.17 334.36c-0.01,-1.68 0,-3.37 0.01,-5.04 3.37,-0.01 6.73,-0.01 10.1,-0.02 -1.69,24.09 11.15,40.82 28.64,54.63 12.15,9.59 21.79,20.08 22,36.57 -3.37,0 -6.74,0 -10.12,-0.01 -6.52,-19.21 -20.74,-32.15 -38.14,-39.96 -14.81,-6.64 -17.87,-14.54 -11.19,-28.22 2.97,-6.07 6.12,-12.48 -1.29,-17.95z"/>
   <path class="fil94" d="M2667.74 349.52c0,-10.12 0,-20.24 0,-30.36 16.22,-23.49 19.15,-52.75 35.1,-76.9 22.04,-33.34 53.25,-51.54 89.46,-63.24 9.81,-3.17 19.39,1.87 27.4,8.42 -6.1,7.55 -15,8.91 -23.66,10.79 -53.96,9.51 -90.37,52.33 -93.78,110.48 -2.29,8.35 -2.91,17.05 -5.51,25.34 -3.62,8.67 -8.15,16.5 -18.17,19.08 -4.15,0.43 -7.77,-0.78 -10.85,-3.61z"/>
   <path class="fil95" d="M2794.36 192.52c8.45,-1.69 16.89,-3.39 25.34,-5.08 3.38,0.01 6.75,0.03 10.13,0.04 8.67,13.36 25.65,21.51 25.34,40.47 -1.04,0.48 -2.08,0.95 -3.13,1.43 -13.04,-1.04 -23.32,-8.8 -34.61,-14.15 -7.2,-8.06 -22.74,-7.7 -23.07,-22.72z"/>
   <path class="fil96" d="M2667.74 349.52c3.37,0.01 6.73,0.02 10.1,0.03 12.77,7.82 18.3,23.56 34.27,28.57 24.99,7.83 47.38,4.66 69.97,-8.08 45.04,-25.39 81.89,-56.04 82.35,-113.54 0.04,-5.02 1.54,-9.97 5.93,-13.35 5.95,-3.65 4.88,-9.62 5.06,-15.19 9.21,3.83 10.6,11.58 10.14,20.26 13.91,21 2.87,40.3 -4.37,59.66 -24.8,66.25 -115.63,116.94 -176.78,98.79 -23.48,-6.97 -37.03,-20.81 -36.73,-41.98 0.02,-5.06 0.04,-10.12 0.06,-15.18z"/>
   <path class="fil97" d="M2667.68 364.7c12.13,42.57 69.13,46.32 106.16,32.11 50.29,-19.31 88.42,-51.07 106.8,-104.45 5.25,-15.26 3.13,-29.49 4.92,-44.12 5.05,3.38 10.1,6.76 15.14,10.15 0.02,3.37 0.04,6.74 0.06,10.12 1.38,45.49 -23.87,77.6 -55.74,104.67 -30.33,25.75 -65.64,44.47 -105.29,50.69 -26.7,4.2 -53.23,0.09 -72.01,-23.64 0.69,-8.82 -7.34,-13.27 -10.19,-20.3 -0.04,-7.36 -0.03,-14.68 10.15,-15.23z"/>
   <path class="fil98" d="M2667.72 400.22c51.66,33.69 98.71,14.38 145.5,-12.13 47.31,-26.8 74.22,-68.12 87.53,-119.59 6.59,5.15 9.28,12.25 10.15,20.27 -45.71,109.44 -113.13,150.46 -233.07,141.82 -2.73,-10.34 -14.02,-17.82 -10.12,-30.37z"/>
   <path class="fil99" d="M2870.36 243.17c10.01,77.93 -57.65,126.21 -113.74,144.76 -32.72,10.83 -65.35,-6.7 -78.78,-38.37 5.06,-5.07 10.13,-10.14 15.19,-15.21 20.52,28.61 42.17,34.9 75.57,22.61 48.95,-18 88.41,-57.3 84.3,-119.41 -0.23,-3.4 0.35,-6.64 2.26,-9.55 0,0 0.01,-0.02 0.01,-0.02 9.95,0.19 11.52,8.75 15.2,15.2z"/>
   <path class="fil100" d="M2982.71 523.01c-1.75,34.16 -20.4,57.11 -41.08,75.78 -36.34,32.81 -79.6,47.63 -129.5,34.34 -18.56,-4.95 -33.22,-13.97 -45.22,-29.41 -28.33,-36.43 -16.07,-70.62 27.36,-87.8 35.23,-13.93 68.09,-34.17 101.2,-53.03 32.34,-18.43 60.91,-16.08 76.05,12.21 7.9,14.76 8.11,33.63 11.19,47.91z"/>
   <path class="fil101" d="M2855.15 227.99c17.92,37.49 -12.21,96.43 -49.37,117.8 -26.57,15.3 -53.59,31.94 -87.73,20.24 -16.63,-5.7 -26.32,-13.44 -25.03,-31.67 1.22,-8.56 -3.37,-18.27 5.05,-25.38 1.9,-1.68 4.11,-2.46 6.63,-2.33 15.21,9.17 24.1,27.19 46.35,26.79 43.63,-0.77 82.81,-47.3 73.7,-89.92 -1.78,-8.31 -5.88,-15.78 -7.58,-24.05 0.05,-2.53 0.94,-4.74 2.54,-6.67 13.29,1.62 23.52,10.37 35.44,15.2z"/>
   <path class="fil102" d="M2703.16 309.01c-1.69,-0.01 -3.39,-0.02 -5.09,-0.03 -3.42,-55.72 43.46,-112.43 96.29,-116.45 6.34,9.39 20.93,8.47 25.36,20.27 -0.02,1.68 -0.02,3.37 -0.02,5.05 -53.99,0.16 -85.53,31.3 -106.34,77.16 -2.46,5.44 -5.25,10.46 -10.2,14z"/>
   <path class="fil103" d="M2917 481.31c38.14,-0.21 56.9,30.77 47.7,65.05 -10.73,39.98 -69.61,77.26 -105.05,77.08 -42.76,-0.23 -63.94,-10.53 -75.73,-38.4 -5.9,-13.95 -3.66,-23.97 8.1,-32.91 34.62,-26.31 74.12,-44.72 110.5,-68.19 5.12,-3.31 12.97,-2.4 14.48,-2.64z"/>
   <path class="fil104" d="M2703.16 309.01c10.76,-42.31 35.08,-73.16 75.47,-91.13 14.06,-6.25 27.37,-7.27 41.06,-0.04 25.02,31.65 14.16,78.83 -24.83,107.91 -32.4,24.15 -66.9,17.86 -91.7,-16.74z"/>
   <path class="fil105" d="M2862.15 602.98c-18.76,-2.53 -33.19,-8.81 -37.91,-24.67 -3.79,-12.74 9.77,-18.57 18.04,-24.04 16.89,-11.18 28.55,-30.52 53.09,-30.56 12.49,-0.03 25.09,-11.06 34.74,6.1 9.25,16.45 4.11,30.55 -5.74,43.92 -16.11,21.88 -42.96,20.2 -62.22,29.26z"/>
   <path class="fil106" d="M2804.5 262.15c-0.49,24.17 -18.11,41.93 -39.04,41.91 -14.27,-0.01 -25.16,-4.39 -26.34,-20.17 -1.13,-14.88 31.22,-45.32 48.25,-45.19 16.82,0.14 15.79,13.88 17.13,23.44z"/>
  </g>
 </g>
</svg>
